SplineFontDB: 3.2
FontName: hinkvz5m
FullName: hinkvz5m
FamilyName: hinkvz5m
Weight: Book
Copyright: Copyright 2022 The Noto Project Authors (https://github.com/notofonts/devanagari)
Version: 2.003
ItalicAngle: 0
UnderlinePosition: -125
UnderlineWidth: 50
Ascent: 800
Descent: 200
InvalidEm: 0
sfntRevision: 0x000200c5
LayerCount: 2
Layer: 0 1 "Back" 1
Layer: 1 1 "Fore" 0
XUID: [1021 467 -1121320856 3670528]
StyleMap: 0x0040
FSType: 0
OS2Version: 4
OS2_WeightWidthSlopeOnly: 0
OS2_UseTypoMetrics: 1
CreationTime: 1432194851
ModificationTime: 1717106695
PfmFamily: 81
TTFWeight: 400
TTFWidth: 5
LineGap: 0
VLineGap: 0
Panose: 0 0 0 0 0 0 0 0 0 0
OS2TypoAscent: 896
OS2TypoAOffset: 0
OS2TypoDescent: -408
OS2TypoDOffset: 0
OS2TypoLinegap: 0
OS2WinAscent: 896
OS2WinAOffset: 0
OS2WinDescent: 408
OS2WinDOffset: 0
HheadAscent: 896
HheadAOffset: 0
HheadDescent: -408
HheadDOffset: 0
OS2SubXSize: 650
OS2SubYSize: 600
OS2SubXOff: 0
OS2SubYOff: 75
OS2SupXSize: 650
OS2SupYSize: 600
OS2SupXOff: 0
OS2SupYOff: 350
OS2StrikeYSize: 50
OS2StrikeYPos: 322
OS2CapHeight: 622
OS2XHeight: 536
OS2Vendor: 'GOOG'
OS2CodePages: 00000093.00000000
OS2UnicodeRanges: 80008023.00002046.00000000.00000000
Lookup: 1 0 0 "'aalt' Access All Alternates in Devanagari2 lookup 0" { "'aalt' Access All Alternates in Devanagari2 lookup 0 subtable"  } ['aalt' ('DFLT' <'dflt' > 'dev2' <'MAR ' 'NEP ' 'dflt' > 'latn' <'MOL ' 'ROM ' > ) ]
Lookup: 1 0 0 "Single Substitution lookup 1" { "Single Substitution lookup 1 subtable"  } []
Lookup: 1 0 0 "Single Substitution lookup 2" { "Single Substitution lookup 2 subtable"  } []
Lookup: 1 0 0 "Single Substitution lookup 3" { "Single Substitution lookup 3 subtable"  } []
Lookup: 1 0 0 "Single Substitution lookup 4" { "Single Substitution lookup 4 subtable"  } []
Lookup: 1 0 0 "Single Substitution lookup 5" { "Single Substitution lookup 5 subtable"  } []
Lookup: 1 0 0 "Single Substitution lookup 6" { "Single Substitution lookup 6 subtable"  } []

StartChar: exclam.deva
Encoding: 33 33 3
Width: 780
Flags: W
LayerCount: 2
Fore
SplineSet
362 201 m 1,0,-1
 337 714 l 1,1,-1
 444 714 l 1,2,-1
 419 201 l 1,3,-1
 362 201 l 1,0,-1
328 54 m 0,4,5
 328 91 328 91 346 106 c 128,-1,6
 364 121 364 121 390 121 c 0,7,8
 415 121 415 121 433.5 106 c 128,-1,9
 452 91 452 91 452 54 c 0,10,11
 452 18 452 18 433.5 2 c 128,-1,12
 415 -14 415 -14 390 -14 c 0,13,14
 364 -14 364 -14 346 2 c 128,-1,15
 328 18 328 18 328 54 c 0,4,5
EndSplineSet
EndChar

StartChar: quotedbl.deva
Encoding: 34 34 4
Width: 780
Flags: W
LayerCount: 2
Fore
SplineSet
272 471 m 1,0,-1
 247 729 l 1,1,-1
 358 729 l 1,2,-1
 333 471 l 1,3,-1
 272 471 l 1,0,-1
448 471 m 1,4,-1
 423 729 l 1,5,-1
 533 729 l 1,6,-1
 508 471 l 1,7,-1
 448 471 l 1,4,-1
EndSplineSet
EndChar

StartChar: numbersign.deva
Encoding: 35 35 5
Width: 780
Flags: W
LayerCount: 2
Fore
SplineSet
222.5 176 m 1,0,-1
 97.5 176 l 1,1,-1
 97.5 242 l 1,2,-1
 234.5 242 l 1,3,-1
 265.5 394 l 1,4,-1
 133.5 394 l 1,5,-1
 133.5 459 l 1,6,-1
 276.5 459 l 1,7,-1
 310.5 632 l 1,8,-1
 380.5 632 l 1,9,-1
 347.5 459 l 1,10,-1
 487.5 459 l 1,11,-1
 521.5 632 l 1,12,-1
 590.5 632 l 1,13,-1
 556.5 459 l 1,14,-1
 682.5 459 l 1,15,-1
 682.5 394 l 1,16,-1
 543.5 394 l 1,17,-1
 514.5 242 l 1,18,-1
 647.5 242 l 1,19,-1
 647.5 176 l 1,20,-1
 501.5 176 l 1,21,-1
 467.5 0 l 1,22,-1
 397.5 0 l 1,23,-1
 432.5 176 l 1,24,-1
 292.5 176 l 1,25,-1
 258.5 0 l 1,26,-1
 189.5 0 l 1,27,-1
 222.5 176 l 1,0,-1
444.5 242 m 1,28,-1
 474.5 394 l 1,29,-1
 334.5 394 l 1,30,-1
 305.5 242 l 1,31,-1
 444.5 242 l 1,28,-1
EndSplineSet
EndChar

StartChar: percent.deva
Encoding: 37 37 6
Width: 780
Flags: W
LayerCount: 2
Fore
SplineSet
545.5 622 m 1,0,-1
 622.5 622 l 1,1,-1
 237.5 0 l 1,2,-1
 159.5 0 l 1,3,-1
 545.5 622 l 1,0,-1
178.5 271 m 0,4,5
 107.5 271 107.5 271 70.5 319 c 128,-1,6
 33.5 367 33.5 367 33.5 452 c 0,7,8
 33.5 538 33.5 538 68 585 c 128,-1,9
 102.5 632 102.5 632 178.5 632 c 0,10,11
 250.5 632 250.5 632 288 585 c 128,-1,12
 325.5 538 325.5 538 325.5 452 c 0,13,14
 325.5 367 325.5 367 290.5 319 c 128,-1,15
 255.5 271 255.5 271 178.5 271 c 0,4,5
177.5 334 m 256,16,17
 215.5 334 215.5 334 234 364 c 128,-1,18
 252.5 394 252.5 394 252.5 452 c 0,19,20
 252.5 511 252.5 511 234 540 c 128,-1,21
 215.5 569 215.5 569 177.5 569 c 256,22,23
 139.5 569 139.5 569 122.5 540 c 128,-1,24
 105.5 511 105.5 511 105.5 452 c 0,25,26
 105.5 394 105.5 394 122.5 364 c 128,-1,27
 139.5 334 139.5 334 177.5 334 c 256,16,17
600.5 -10 m 0,28,29
 528.5 -10 528.5 -10 492 38.5 c 128,-1,30
 455.5 87 455.5 87 455.5 171 c 0,31,32
 455.5 257 455.5 257 490 304.5 c 128,-1,33
 524.5 352 524.5 352 600.5 352 c 0,34,35
 673.5 352 673.5 352 710 304.5 c 128,-1,36
 746.5 257 746.5 257 746.5 171 c 0,37,38
 746.5 87 746.5 87 712 38.5 c 128,-1,39
 677.5 -10 677.5 -10 600.5 -10 c 0,28,29
600.5 55 m 256,40,41
 638.5 55 638.5 55 657 84 c 128,-1,42
 675.5 113 675.5 113 675.5 171 c 0,43,44
 675.5 230 675.5 230 657 259.5 c 128,-1,45
 638.5 289 638.5 289 600.5 289 c 256,46,47
 562.5 289 562.5 289 545.5 259.5 c 128,-1,48
 528.5 230 528.5 230 528.5 171 c 0,49,50
 528.5 113 528.5 113 545.5 84 c 128,-1,51
 562.5 55 562.5 55 600.5 55 c 256,40,41
EndSplineSet
EndChar

StartChar: quotesingle.deva
Encoding: 39 39 7
Width: 780
Flags: W
LayerCount: 2
Fore
SplineSet
359.5 471 m 1,0,-1
 334.5 729 l 1,1,-1
 445.5 729 l 1,2,-1
 420.5 471 l 1,3,-1
 359.5 471 l 1,0,-1
EndSplineSet
EndChar

StartChar: parenleft.deva
Encoding: 40 40 8
Width: 780
Flags: W
LayerCount: 2
Fore
SplineSet
421.5 -165 m 1,0,1
 346.5 -62 346.5 -62 311.5 68.5 c 128,-1,2
 276.5 199 276.5 199 276.5 337 c 0,3,4
 276.5 477 276.5 477 311 603.5 c 128,-1,5
 345.5 730 345.5 730 421.5 832 c 1,6,-1
 502.5 832 l 1,7,8
 457.5 762 457.5 762 426 681.5 c 128,-1,9
 394.5 601 394.5 601 378 514 c 128,-1,10
 361.5 427 361.5 427 361.5 336 c 0,11,12
 361.5 248 361.5 248 377.5 160 c 128,-1,13
 393.5 72 393.5 72 425 -10 c 128,-1,14
 456.5 -92 456.5 -92 503.5 -165 c 1,15,-1
 421.5 -165 l 1,0,1
EndSplineSet
EndChar

StartChar: parenright.deva
Encoding: 41 41 9
Width: 780
Flags: W
LayerCount: 2
Fore
SplineSet
277.5 -165 m 1,0,1
 322.5 -94 322.5 -94 354 -13 c 128,-1,2
 385.5 68 385.5 68 401.5 155 c 128,-1,3
 417.5 242 417.5 242 417.5 330 c 0,4,5
 417.5 419 417.5 419 401.5 506.5 c 128,-1,6
 385.5 594 385.5 594 354.5 676.5 c 128,-1,7
 323.5 759 323.5 759 276.5 832 c 1,8,-1
 358.5 832 l 1,9,10
 433.5 729 433.5 729 468.5 598 c 128,-1,11
 503.5 467 503.5 467 503.5 329 c 0,12,13
 503.5 190 503.5 190 468.5 63 c 128,-1,14
 433.5 -64 433.5 -64 358.5 -165 c 1,15,-1
 277.5 -165 l 1,0,1
EndSplineSet
EndChar

StartChar: asterisk.deva
Encoding: 42 42 10
Width: 780
Flags: W
LayerCount: 2
Fore
SplineSet
220 340 m 1,0,-1
 338 499 l 1,1,-1
 155 513 l 1,2,-1
 169 607 l 1,3,-1
 360 553 l 1,4,-1
 339 745 l 1,5,-1
 439 745 l 1,6,-1
 418 553 l 1,7,-1
 612 607 l 1,8,-1
 625 513 l 1,9,-1
 440 499 l 1,10,-1
 560 340 l 1,11,-1
 473 293 l 1,12,-1
 387 468 l 1,13,-1
 310 293 l 1,14,-1
 220 340 l 1,0,-1
EndSplineSet
EndChar

StartChar: plus.deva
Encoding: 43 43 11
Width: 780
Flags: W
LayerCount: 2
Fore
SplineSet
353.5 286 m 1,0,-1
 164.5 286 l 1,1,-1
 164.5 359 l 1,2,-1
 353.5 359 l 1,3,-1
 353.5 548 l 1,4,-1
 426.5 548 l 1,5,-1
 426.5 359 l 1,6,-1
 615.5 359 l 1,7,-1
 615.5 286 l 1,8,-1
 426.5 286 l 1,9,-1
 426.5 97 l 1,10,-1
 353.5 97 l 1,11,-1
 353.5 286 l 1,0,-1
EndSplineSet
EndChar

StartChar: comma.deva
Encoding: 44 44 12
Width: 780
Flags: W
LayerCount: 2
Fore
SplineSet
313.5 -129 m 1,0,1
 323.5 -89 323.5 -89 333 -45.5 c 128,-1,2
 342.5 -2 342.5 -2 350 40 c 128,-1,3
 357.5 82 357.5 82 362.5 116 c 1,4,-1
 459.5 116 l 1,5,-1
 466.5 105 l 1,6,7
 457.5 70 457.5 70 443.5 29.5 c 128,-1,8
 429.5 -11 429.5 -11 413.5 -51.5 c 128,-1,9
 397.5 -92 397.5 -92 380.5 -129 c 1,10,-1
 313.5 -129 l 1,0,1
EndSplineSet
EndChar

StartChar: hyphen.deva
Encoding: 45 45 13
Width: 780
Flags: W
LayerCount: 2
Fore
SplineSet
269 338 m 1,0,-1
 511 338 l 1,1,-1
 511 256 l 1,2,-1
 269 256 l 1,3,-1
 269 338 l 1,0,-1
EndSplineSet
EndChar

StartChar: period.deva
Encoding: 46 46 14
Width: 780
Flags: W
LayerCount: 2
Fore
SplineSet
328 54 m 0,0,1
 328 91 328 91 346 106 c 128,-1,2
 364 121 364 121 389 121 c 0,3,4
 415 121 415 121 433.5 106 c 128,-1,5
 452 91 452 91 452 54 c 0,6,7
 452 18 452 18 433.5 2 c 128,-1,8
 415 -14 415 -14 389 -14 c 0,9,10
 364 -14 364 -14 346 2 c 128,-1,11
 328 18 328 18 328 54 c 0,0,1
EndSplineSet
EndChar

StartChar: slash.deva
Encoding: 47 47 15
Width: 780
Flags: W
LayerCount: 2
Fore
SplineSet
480.5 833 m 1,0,-1
 562.5 833 l 1,1,-1
 300.5 -166 l 1,2,-1
 217.5 -166 l 1,3,-1
 480.5 833 l 1,0,-1
EndSplineSet
EndChar

StartChar: zero.deva
Encoding: 48 48 16
Width: 780
Flags: W
LayerCount: 2
Fore
SplineSet
389 -10 m 0,0,1
 274 -10 274 -10 218 87.5 c 128,-1,2
 162 185 162 185 162 358 c 0,3,4
 162 474 162 474 184.5 556 c 128,-1,5
 207 638 207 638 257 681.5 c 128,-1,6
 307 725 307 725 389 725 c 0,7,8
 505 725 505 725 561.5 628.5 c 128,-1,9
 618 532 618 532 618 358 c 0,10,11
 618 271 618 271 605.5 203 c 128,-1,12
 593 135 593 135 566 87.5 c 128,-1,13
 539 40 539 40 495 15 c 128,-1,14
 451 -10 451 -10 389 -10 c 0,0,1
389 66 m 256,15,16
 464 66 464 66 496 138 c 128,-1,17
 528 210 528 210 528 358 c 0,18,19
 528 504 528 504 496 576.5 c 128,-1,20
 464 649 464 649 389 649 c 256,21,22
 314 649 314 649 283 576.5 c 128,-1,23
 252 504 252 504 252 358 c 256,24,25
 252 212 252 212 283 139 c 128,-1,26
 314 66 314 66 389 66 c 256,15,16
EndSplineSet
EndChar

StartChar: one.deva
Encoding: 49 49 17
Width: 780
Flags: W
LayerCount: 2
Fore
SplineSet
434 0 m 1,0,-1
 434 446 l 2,1,2
 434 474 434 474 435 506.5 c 128,-1,3
 436 539 436 539 437 569.5 c 128,-1,4
 438 600 438 600 438 622 c 1,5,6
 422 605 422 605 410.5 594.5 c 128,-1,7
 399 584 399 584 379 567 c 2,8,-1
 307 508 l 1,9,-1
 260 568 l 1,10,-1
 447 714 l 1,11,-1
 520 714 l 1,12,-1
 520 0 l 1,13,-1
 434 0 l 1,0,-1
EndSplineSet
EndChar

StartChar: two.deva
Encoding: 50 50 18
Width: 780
Flags: W
LayerCount: 2
Fore
SplineSet
167.5 76 m 1,0,-1
 338.5 262 l 2,1,2
 387.5 315 387.5 315 422 357 c 128,-1,3
 456.5 399 456.5 399 475.5 440 c 128,-1,4
 494.5 481 494.5 481 494.5 530 c 0,5,6
 494.5 587 494.5 587 462.5 618 c 128,-1,7
 430.5 649 430.5 649 379.5 649 c 0,8,9
 333.5 649 333.5 649 296 630 c 128,-1,10
 258.5 611 258.5 611 224.5 582 c 1,11,-1
 174.5 640 l 1,12,13
 200.5 664 200.5 664 232 683 c 128,-1,14
 263.5 702 263.5 702 301 713 c 128,-1,15
 338.5 724 338.5 724 380.5 724 c 0,16,17
 443.5 724 443.5 724 489 701 c 128,-1,18
 534.5 678 534.5 678 559.5 635.5 c 128,-1,19
 584.5 593 584.5 593 584.5 533 c 0,20,21
 584.5 478 584.5 478 562.5 429 c 128,-1,22
 540.5 380 540.5 380 502 332 c 128,-1,23
 463.5 284 463.5 284 413.5 231 c 2,24,-1
 276.5 85 l 1,25,-1
 276.5 81 l 1,26,-1
 612.5 81 l 1,27,-1
 612.5 0 l 1,28,-1
 167.5 0 l 1,29,-1
 167.5 76 l 1,0,-1
EndSplineSet
EndChar

StartChar: three.deva
Encoding: 51 51 19
Width: 780
Flags: W
LayerCount: 2
Fore
SplineSet
353.5 -10 m 0,0,1
 300.5 -10 300.5 -10 253 -1.5 c 128,-1,2
 205.5 7 205.5 7 164.5 29 c 1,3,-1
 164.5 112 l 1,4,5
 207.5 90 207.5 90 256.5 77.5 c 128,-1,6
 305.5 65 305.5 65 351.5 65 c 0,7,8
 441.5 65 441.5 65 483 102.5 c 128,-1,9
 524.5 140 524.5 140 524.5 206 c 0,10,11
 524.5 250 524.5 250 502 278 c 128,-1,12
 479.5 306 479.5 306 438 319 c 128,-1,13
 396.5 332 396.5 332 338.5 332 c 2,14,-1
 273.5 332 l 1,15,-1
 273.5 406 l 1,16,-1
 338.5 406 l 2,17,18
 391.5 406 391.5 406 428 423 c 128,-1,19
 464.5 440 464.5 440 483.5 470.5 c 128,-1,20
 502.5 501 502.5 501 502.5 541 c 0,21,22
 502.5 575 502.5 575 487 599 c 128,-1,23
 471.5 623 471.5 623 444.5 636 c 128,-1,24
 417.5 649 417.5 649 380.5 649 c 0,25,26
 328.5 649 328.5 649 288.5 632.5 c 128,-1,27
 248.5 616 248.5 616 212.5 590 c 1,28,-1
 167.5 651 l 1,29,30
 204.5 681 204.5 681 258.5 702.5 c 128,-1,31
 312.5 724 312.5 724 380.5 724 c 0,32,33
 450.5 724 450.5 724 498 701 c 128,-1,34
 545.5 678 545.5 678 569.5 638.5 c 128,-1,35
 593.5 599 593.5 599 593.5 547 c 0,36,37
 593.5 499 593.5 499 574 463.5 c 128,-1,38
 554.5 428 554.5 428 520 406 c 128,-1,39
 485.5 384 485.5 384 439.5 376 c 1,40,-1
 439.5 373 l 1,41,42
 525.5 363 525.5 363 570.5 318.5 c 128,-1,43
 615.5 274 615.5 274 615.5 203 c 0,44,45
 615.5 141 615.5 141 587.5 92.5 c 128,-1,46
 559.5 44 559.5 44 501.5 17 c 128,-1,47
 443.5 -10 443.5 -10 353.5 -10 c 0,0,1
EndSplineSet
EndChar

StartChar: four.deva
Encoding: 52 52 20
Width: 780
Flags: W
LayerCount: 2
Fore
SplineSet
460 160 m 1,0,-1
 130 160 l 1,1,-1
 130 238 l 1,2,-1
 454 718 l 1,3,-1
 546 718 l 1,4,-1
 546 241 l 1,5,-1
 650 241 l 1,6,-1
 650 160 l 1,7,-1
 546 160 l 1,8,-1
 546 0 l 1,9,-1
 460 0 l 1,10,-1
 460 160 l 1,0,-1
460 241 m 1,11,-1
 460 415 l 2,12,13
 460 442 460 442 461 472 c 128,-1,14
 462 502 462 502 463 531 c 128,-1,15
 464 560 464 560 465 585 c 128,-1,16
 466 610 466 610 466 626 c 1,17,-1
 462 626 l 1,18,19
 455 607 455 607 442 581 c 128,-1,20
 429 555 429 555 418 538 c 2,21,-1
 217 241 l 1,22,-1
 460 241 l 1,11,-1
EndSplineSet
EndChar

StartChar: five.deva
Encoding: 53 53 21
Width: 780
Flags: W
LayerCount: 2
Fore
SplineSet
348.5 -10 m 0,0,1
 298.5 -10 298.5 -10 252.5 -0.5 c 128,-1,2
 206.5 9 206.5 9 174.5 29 c 1,3,-1
 174.5 113 l 1,4,5
 196.5 98 196.5 98 227 87.5 c 128,-1,6
 257.5 77 257.5 77 290.5 71.5 c 128,-1,7
 323.5 66 323.5 66 350.5 66 c 0,8,9
 427.5 66 427.5 66 471 103 c 128,-1,10
 514.5 140 514.5 140 514.5 219 c 0,11,12
 514.5 290 514.5 290 471.5 326.5 c 128,-1,13
 428.5 363 428.5 363 346.5 363 c 0,14,15
 320.5 363 320.5 363 287 358.5 c 128,-1,16
 253.5 354 253.5 354 233.5 350 c 1,17,-1
 189.5 378 l 1,18,-1
 216.5 714 l 1,19,-1
 553.5 714 l 1,20,-1
 553.5 633 l 1,21,-1
 293.5 633 l 1,22,-1
 274.5 428 l 1,23,24
 290.5 432 290.5 432 318 435 c 128,-1,25
 345.5 438 345.5 438 376.5 438 c 0,26,27
 441.5 438 441.5 438 493 414.5 c 128,-1,28
 544.5 391 544.5 391 575 344.5 c 128,-1,29
 605.5 298 605.5 298 605.5 229 c 0,30,31
 605.5 117 605.5 117 539.5 53.5 c 128,-1,32
 473.5 -10 473.5 -10 348.5 -10 c 0,0,1
EndSplineSet
EndChar

StartChar: six.deva
Encoding: 54 54 22
Width: 780
Flags: W
LayerCount: 2
Fore
SplineSet
398 -10 m 0,0,1
 333 -10 333 -10 280 24 c 128,-1,2
 227 58 227 58 196 128 c 128,-1,3
 165 198 165 198 165 305 c 0,4,5
 165 367 165 367 172.5 427 c 128,-1,6
 180 487 180 487 200 540.5 c 128,-1,7
 220 594 220 594 255 635.5 c 128,-1,8
 290 677 290 677 344.5 700.5 c 128,-1,9
 399 724 399 724 477 724 c 0,10,11
 496 724 496 724 520.5 722 c 128,-1,12
 545 720 545 720 561 715 c 1,13,-1
 561 639 l 1,14,15
 544 645 544 645 522.5 648 c 128,-1,16
 501 651 501 651 480 651 c 0,17,18
 414 651 414 651 371.5 628 c 128,-1,19
 329 605 329 605 304.5 565.5 c 128,-1,20
 280 526 280 526 269 474 c 128,-1,21
 258 422 258 422 256 364 c 1,22,-1
 262 364 l 1,23,24
 282 399 282 399 318 423 c 128,-1,25
 354 447 354 447 412 447 c 0,26,27
 474 447 474 447 519.5 421.5 c 128,-1,28
 565 396 565 396 590 347.5 c 128,-1,29
 615 299 615 299 615 230 c 0,30,31
 615 156 615 156 588.5 102 c 128,-1,32
 562 48 562 48 513.5 19 c 128,-1,33
 465 -10 465 -10 398 -10 c 0,0,1
397 65 m 0,34,35
 456 65 456 65 492.5 105 c 128,-1,36
 529 145 529 145 529 230 c 0,37,38
 529 298 529 298 497 337.5 c 128,-1,39
 465 377 465 377 400 377 c 0,40,41
 356 377 356 377 323 357.5 c 128,-1,42
 290 338 290 338 272 308.5 c 128,-1,43
 254 279 254 279 254 247 c 0,44,45
 254 204 254 204 270 162 c 128,-1,46
 286 120 286 120 318 92.5 c 128,-1,47
 350 65 350 65 397 65 c 0,34,35
EndSplineSet
EndChar

StartChar: seven.deva
Encoding: 55 55 23
Width: 780
Flags: W
LayerCount: 2
Fore
SplineSet
528.5 633 m 1,0,-1
 160.5 633 l 1,1,-1
 160.5 714 l 1,2,-1
 619.5 714 l 1,3,-1
 619.5 643 l 1,4,-1
 348.5 0 l 1,5,-1
 253.5 0 l 1,6,-1
 528.5 633 l 1,0,-1
EndSplineSet
EndChar

StartChar: eight.deva
Encoding: 56 56 24
Width: 780
Flags: W
LayerCount: 2
Fore
SplineSet
390 -10 m 0,0,1
 283 -10 283 -10 224.5 41.5 c 128,-1,2
 166 93 166 93 166 182 c 0,3,4
 166 231 166 231 184.5 267 c 128,-1,5
 203 303 203 303 234.5 329.5 c 128,-1,6
 266 356 266 356 304 374 c 1,7,8
 272 395 272 395 246 420 c 128,-1,9
 220 445 220 445 204.5 478 c 128,-1,10
 189 511 189 511 189 554 c 0,11,12
 189 611 189 611 217 649 c 128,-1,13
 245 687 245 687 291 706 c 128,-1,14
 337 725 337 725 390 725 c 0,15,16
 445 725 445 725 490.5 706 c 128,-1,17
 536 687 536 687 563.5 649 c 128,-1,18
 591 611 591 611 591 553 c 0,19,20
 591 510 591 510 574 477.5 c 128,-1,21
 557 445 557 445 528.5 421 c 128,-1,22
 500 397 500 397 463 378 c 1,23,24
 501 358 501 358 535.5 331.5 c 128,-1,25
 570 305 570 305 592 269.5 c 128,-1,26
 614 234 614 234 614 186 c 0,27,28
 614 126 614 126 585.5 82 c 128,-1,29
 557 38 557 38 507 14 c 128,-1,30
 457 -10 457 -10 390 -10 c 0,0,1
388 64 m 0,31,32
 457 64 457 64 492 97 c 128,-1,33
 527 130 527 130 527 185 c 0,34,35
 527 233 527 233 490.5 268.5 c 128,-1,36
 454 304 454 304 377 340 c 1,37,38
 336 321 336 321 308.5 297.5 c 128,-1,39
 281 274 281 274 267 245.5 c 128,-1,40
 253 217 253 217 253 181 c 0,41,42
 253 129 253 129 285.5 96.5 c 128,-1,43
 318 64 318 64 388 64 c 0,31,32
391 414 m 1,44,45
 423 429 423 429 448.5 447 c 128,-1,46
 474 465 474 465 489 490 c 128,-1,47
 504 515 504 515 504 550 c 0,48,49
 504 600 504 600 473.5 625.5 c 128,-1,50
 443 651 443 651 389 651 c 0,51,52
 355 651 355 651 329.5 639.5 c 128,-1,53
 304 628 304 628 290 605.5 c 128,-1,54
 276 583 276 583 276 550 c 0,55,56
 276 514 276 514 291 489.5 c 128,-1,57
 306 465 306 465 332 447.5 c 128,-1,58
 358 430 358 430 391 414 c 1,44,45
EndSplineSet
EndChar

StartChar: nine.deva
Encoding: 57 57 25
Width: 780
Flags: W
LayerCount: 2
Fore
SplineSet
303 -10 m 0,0,1
 284 -10 284 -10 260 -7.5 c 128,-1,2
 236 -5 236 -5 219 -1 c 1,3,-1
 219 75 l 1,4,5
 236 69 236 69 257.5 66 c 128,-1,6
 279 63 279 63 300 63 c 0,7,8
 366 63 366 63 409 86 c 128,-1,9
 452 109 452 109 476 148.5 c 128,-1,10
 500 188 500 188 511 240 c 128,-1,11
 522 292 522 292 524 350 c 1,12,-1
 518 350 l 1,13,14
 505 327 505 327 484.5 308 c 128,-1,15
 464 289 464 289 435.5 278 c 128,-1,16
 407 267 407 267 368 267 c 0,17,18
 307 267 307 267 261 292.5 c 128,-1,19
 215 318 215 318 190 366.5 c 128,-1,20
 165 415 165 415 165 484 c 0,21,22
 165 559 165 559 191.5 612.5 c 128,-1,23
 218 666 218 666 267 695 c 128,-1,24
 316 724 316 724 382 724 c 256,25,26
 448 724 448 724 500.5 690 c 128,-1,27
 553 656 553 656 584 586 c 128,-1,28
 615 516 615 516 615 409 c 0,29,30
 615 348 615 348 607.5 287.5 c 128,-1,31
 600 227 600 227 580 173.5 c 128,-1,32
 560 120 560 120 525 78.5 c 128,-1,33
 490 37 490 37 435.5 13.5 c 128,-1,34
 381 -10 381 -10 303 -10 c 0,0,1
380 337 m 0,35,36
 424 337 424 337 457 356.5 c 128,-1,37
 490 376 490 376 508 406 c 128,-1,38
 526 436 526 436 526 467 c 0,39,40
 526 500 526 500 517 532 c 128,-1,41
 508 564 508 564 490 590.5 c 128,-1,42
 472 617 472 617 445.5 633 c 128,-1,43
 419 649 419 649 383 649 c 0,44,45
 325 649 325 649 288 609 c 128,-1,46
 251 569 251 569 251 484 c 0,47,48
 251 416 251 416 283.5 376.5 c 128,-1,49
 316 337 316 337 380 337 c 0,35,36
EndSplineSet
EndChar

StartChar: colon.deva
Encoding: 58 58 26
Width: 780
Flags: W
LayerCount: 2
Fore
SplineSet
390 414 m 256,0,1
 364 414 364 414 346 430 c 128,-1,2
 328 446 328 446 328 482 c 0,3,4
 328 520 328 520 346 535 c 128,-1,5
 364 550 364 550 390 550 c 256,6,7
 416 550 416 550 434 535 c 128,-1,8
 452 520 452 520 452 482 c 0,9,10
 452 446 452 446 434 430 c 128,-1,11
 416 414 416 414 390 414 c 256,0,1
390 -14 m 256,12,13
 364 -14 364 -14 346 2 c 128,-1,14
 328 18 328 18 328 54 c 0,15,16
 328 92 328 92 346 107 c 128,-1,17
 364 122 364 122 390 122 c 256,18,19
 416 122 416 122 434 107 c 128,-1,20
 452 92 452 92 452 54 c 0,21,22
 452 18 452 18 434 2 c 128,-1,23
 416 -14 416 -14 390 -14 c 256,12,13
EndSplineSet
EndChar

StartChar: semicolon.deva
Encoding: 59 59 27
Width: 780
Flags: W
LayerCount: 2
Fore
SplineSet
453.5 116 m 1,0,-1
 460.5 105 l 1,1,2
 451.5 70 451.5 70 437.5 29.5 c 128,-1,3
 423.5 -11 423.5 -11 407.5 -51.5 c 128,-1,4
 391.5 -92 391.5 -92 374.5 -129 c 1,5,-1
 307.5 -129 l 1,6,7
 317.5 -89 317.5 -89 327 -45.5 c 128,-1,8
 336.5 -2 336.5 -2 344 40 c 128,-1,9
 351.5 82 351.5 82 356.5 116 c 1,10,-1
 453.5 116 l 1,0,-1
410.5 414 m 260,11,12
 384.5 414 384.5 414 366.5 430 c 132,-1,13
 348.5 446 348.5 446 348.5 482 c 4,14,15
 348.5 520 348.5 520 366.5 535 c 132,-1,16
 384.5 550 384.5 550 410.5 550 c 260,17,18
 436.5 550 436.5 550 454.5 535 c 132,-1,19
 472.5 520 472.5 520 472.5 482 c 4,20,21
 472.5 446 472.5 446 454.5 430 c 132,-1,22
 436.5 414 436.5 414 410.5 414 c 260,11,12
EndSplineSet
EndChar

StartChar: less.deva
Encoding: 60 60 28
Width: 780
Flags: W
LayerCount: 2
Fore
SplineSet
164.5 284 m 1,0,-1
 164.5 333 l 1,1,-1
 615.5 568 l 1,2,-1
 615.5 490 l 1,3,-1
 256.5 313 l 1,4,-1
 615.5 155 l 1,5,-1
 615.5 77 l 1,6,-1
 164.5 284 l 1,0,-1
EndSplineSet
EndChar

StartChar: equal.deva
Encoding: 61 61 29
Width: 780
Flags: W
LayerCount: 2
Fore
SplineSet
164.5 459 m 1,0,-1
 615.5 459 l 1,1,-1
 615.5 386 l 1,2,-1
 164.5 386 l 1,3,-1
 164.5 459 l 1,0,-1
164.5 259 m 1,4,-1
 615.5 259 l 1,5,-1
 615.5 186 l 1,6,-1
 164.5 186 l 1,7,-1
 164.5 259 l 1,4,-1
EndSplineSet
EndChar

StartChar: greater.deva
Encoding: 62 62 30
Width: 780
Flags: W
LayerCount: 2
Fore
SplineSet
164.5 155 m 1,0,-1
 523.5 313 l 1,1,-1
 164.5 490 l 1,2,-1
 164.5 568 l 1,3,-1
 615.5 333 l 1,4,-1
 615.5 284 l 1,5,-1
 164.5 77 l 1,6,-1
 164.5 155 l 1,0,-1
EndSplineSet
EndChar

StartChar: question.deva
Encoding: 63 63 31
Width: 780
Flags: W
LayerCount: 2
Fore
SplineSet
321.5 202 m 1,0,-1
 321.5 220 l 2,1,2
 321.5 258 321.5 258 328.5 285.5 c 128,-1,3
 335.5 313 335.5 313 354 338 c 128,-1,4
 372.5 363 372.5 363 404.5 390 c 0,5,6
 435.5 417 435.5 417 455 438 c 128,-1,7
 474.5 459 474.5 459 483.5 483 c 128,-1,8
 492.5 507 492.5 507 492.5 541 c 0,9,10
 492.5 588 492.5 588 464 617 c 128,-1,11
 435.5 646 435.5 646 381.5 646 c 0,12,13
 341.5 646 341.5 646 304.5 633.5 c 128,-1,14
 267.5 621 267.5 621 233.5 604 c 1,15,-1
 202.5 675 l 1,16,17
 242.5 695 242.5 695 288.5 709.5 c 128,-1,18
 334.5 724 334.5 724 381.5 724 c 0,19,20
 472.5 724 472.5 724 525 676 c 128,-1,21
 577.5 628 577.5 628 577.5 542 c 0,22,23
 577.5 499 577.5 499 566 467 c 128,-1,24
 554.5 435 554.5 435 531 408 c 128,-1,25
 507.5 381 507.5 381 472.5 350 c 0,26,27
 439.5 321 439.5 321 421.5 300.5 c 128,-1,28
 403.5 280 403.5 280 396.5 260 c 128,-1,29
 389.5 240 389.5 240 389.5 211 c 2,30,-1
 389.5 202 l 1,31,-1
 321.5 202 l 1,0,-1
298.5 54 m 0,32,33
 298.5 92 298.5 92 316.5 107 c 128,-1,34
 334.5 122 334.5 122 360.5 122 c 256,35,36
 386.5 122 386.5 122 404.5 107 c 128,-1,37
 422.5 92 422.5 92 422.5 54 c 0,38,39
 422.5 18 422.5 18 404.5 2 c 128,-1,40
 386.5 -14 386.5 -14 360.5 -14 c 256,41,42
 334.5 -14 334.5 -14 316.5 2 c 128,-1,43
 298.5 18 298.5 18 298.5 54 c 0,32,33
EndSplineSet
EndChar

StartChar: bracketleft.deva
Encoding: 91 91 32
Width: 780
Flags: W
LayerCount: 2
Fore
SplineSet
293 832 m 1,0,-1
 487 832 l 1,1,-1
 487 762 l 1,2,-1
 373 762 l 1,3,-1
 373 -96 l 1,4,-1
 487 -96 l 1,5,-1
 487 -166 l 1,6,-1
 293 -166 l 1,7,-1
 293 832 l 1,0,-1
EndSplineSet
EndChar

StartChar: backslash.deva
Encoding: 92 92 33
Width: 780
Flags: W
LayerCount: 2
Fore
SplineSet
217.5 832 m 1,0,-1
 299.5 832 l 1,1,-1
 562.5 -166 l 1,2,-1
 480.5 -166 l 1,3,-1
 217.5 832 l 1,0,-1
EndSplineSet
EndChar

StartChar: bracketright.deva
Encoding: 93 93 34
Width: 780
Flags: W
LayerCount: 2
Fore
SplineSet
293 -96 m 1,0,-1
 406 -96 l 1,1,-1
 406 762 l 1,2,-1
 293 762 l 1,3,-1
 293 832 l 1,4,-1
 487 832 l 1,5,-1
 487 -166 l 1,6,-1
 293 -166 l 1,7,-1
 293 -96 l 1,0,-1
EndSplineSet
EndChar

StartChar: asciicircum.deva
Encoding: 94 94 35
Width: 780
Flags: W
LayerCount: 2
Fore
SplineSet
368 719 m 1,0,-1
 418 719 l 1,1,-1
 636 268 l 1,2,-1
 558 268 l 1,3,-1
 393 627 l 1,4,-1
 223 268 l 1,5,-1
 144 268 l 1,6,-1
 368 719 l 1,0,-1
EndSplineSet
EndChar

StartChar: underscore.deva
Encoding: 95 95 36
Width: 780
Flags: W
LayerCount: 2
Fore
SplineSet
182.5 -90 m 1,0,-1
 597.5 -90 l 1,1,-1
 597.5 -158 l 1,2,-1
 182.5 -158 l 1,3,-1
 182.5 -90 l 1,0,-1
EndSplineSet
EndChar

StartChar: braceleft.deva
Encoding: 123 123 37
Width: 780
Flags: W
LayerCount: 2
Fore
SplineSet
243.5 370 m 1,0,1
 283.5 370 283.5 370 311 379 c 128,-1,2
 338.5 388 338.5 388 352.5 408 c 128,-1,3
 366.5 428 366.5 428 366.5 460 c 2,4,-1
 366.5 691 l 2,5,6
 366.5 741 366.5 741 388.5 771.5 c 128,-1,7
 410.5 802 410.5 802 449 816.5 c 128,-1,8
 487.5 831 487.5 831 536.5 832 c 1,9,-1
 536.5 760 l 1,10,11
 509.5 760 509.5 760 489.5 753.5 c 128,-1,12
 469.5 747 469.5 747 458.5 731.5 c 128,-1,13
 447.5 716 447.5 716 447.5 685 c 2,14,-1
 447.5 455 l 2,15,16
 447.5 405 447.5 405 420.5 375.5 c 128,-1,17
 393.5 346 393.5 346 341.5 335 c 1,18,-1
 341.5 330 l 1,19,20
 393.5 320 393.5 320 420.5 291 c 128,-1,21
 447.5 262 447.5 262 447.5 211 c 2,22,-1
 447.5 -18 l 2,23,24
 447.5 -49 447.5 -49 458.5 -65 c 128,-1,25
 469.5 -81 469.5 -81 489.5 -87 c 128,-1,26
 509.5 -93 509.5 -93 536.5 -94 c 1,27,-1
 536.5 -166 l 1,28,29
 487.5 -165 487.5 -165 449 -150.5 c 128,-1,30
 410.5 -136 410.5 -136 388.5 -105.5 c 128,-1,31
 366.5 -75 366.5 -75 366.5 -25 c 2,32,-1
 366.5 206 l 2,33,34
 366.5 239 366.5 239 352.5 258.5 c 128,-1,35
 338.5 278 338.5 278 311 287 c 128,-1,36
 283.5 296 283.5 296 243.5 296 c 1,37,-1
 243.5 370 l 1,0,1
EndSplineSet
EndChar

StartChar: bar.deva
Encoding: 124 124 38
Width: 780
Flags: W
LayerCount: 2
Fore
SplineSet
354 832 m 1,0,-1
 426 832 l 1,1,-1
 426 -166 l 1,2,-1
 354 -166 l 1,3,-1
 354 832 l 1,0,-1
EndSplineSet
EndChar

StartChar: braceright.deva
Encoding: 125 125 39
Width: 780
Flags: W
LayerCount: 2
Fore
SplineSet
536.5 296 m 1,0,1
 496.5 296 496.5 296 469.5 287 c 128,-1,2
 442.5 278 442.5 278 428.5 258.5 c 128,-1,3
 414.5 239 414.5 239 414.5 206 c 2,4,-1
 414.5 -25 l 2,5,6
 414.5 -75 414.5 -75 392 -105.5 c 128,-1,7
 369.5 -136 369.5 -136 331 -150.5 c 128,-1,8
 292.5 -165 292.5 -165 243.5 -166 c 1,9,-1
 243.5 -94 l 1,10,11
 271.5 -93 271.5 -93 291.5 -87 c 128,-1,12
 311.5 -81 311.5 -81 322 -65 c 128,-1,13
 332.5 -49 332.5 -49 332.5 -18 c 2,14,-1
 332.5 211 l 2,15,16
 332.5 262 332.5 262 359.5 291 c 128,-1,17
 386.5 320 386.5 320 438.5 330 c 1,18,-1
 438.5 335 l 1,19,20
 386.5 346 386.5 346 359.5 375.5 c 128,-1,21
 332.5 405 332.5 405 332.5 455 c 2,22,-1
 332.5 685 l 2,23,24
 332.5 716 332.5 716 322 731.5 c 128,-1,25
 311.5 747 311.5 747 291.5 753.5 c 128,-1,26
 271.5 760 271.5 760 243.5 760 c 1,27,-1
 243.5 832 l 1,28,29
 292.5 831 292.5 831 331 816.5 c 128,-1,30
 369.5 802 369.5 802 392 771.5 c 128,-1,31
 414.5 741 414.5 741 414.5 691 c 2,32,-1
 414.5 460 l 2,33,34
 414.5 428 414.5 428 428.5 408 c 128,-1,35
 442.5 388 442.5 388 469.5 379 c 128,-1,36
 496.5 370 496.5 370 536.5 370 c 1,37,-1
 536.5 296 l 1,0,1
EndSplineSet
EndChar

StartChar: asciitilde.deva
Encoding: 126 126 40
Width: 780
Flags: W
LayerCount: 2
Fore
SplineSet
164.5 335 m 1,0,1
 189.5 362 189.5 362 219.5 375 c 128,-1,2
 249.5 388 249.5 388 285.5 388 c 0,3,4
 304.5 388 304.5 388 320.5 385.5 c 128,-1,5
 336.5 383 336.5 383 356.5 376.5 c 128,-1,6
 376.5 370 376.5 370 406.5 357 c 0,7,8
 443.5 341 443.5 341 463.5 335.5 c 128,-1,9
 483.5 330 483.5 330 504.5 330 c 0,10,11
 532.5 330 532.5 330 562.5 347 c 128,-1,12
 592.5 364 592.5 364 615.5 389 c 1,13,-1
 615.5 310 l 1,14,15
 591.5 284 591.5 284 561 270.5 c 128,-1,16
 530.5 257 530.5 257 494.5 257 c 0,17,18
 475.5 257 475.5 257 459.5 259.5 c 128,-1,19
 443.5 262 443.5 262 424 268.5 c 128,-1,20
 404.5 275 404.5 275 373.5 288 c 0,21,22
 337.5 304 337.5 304 318 309.5 c 128,-1,23
 298.5 315 298.5 315 275.5 315 c 0,24,25
 248.5 315 248.5 315 218.5 298 c 128,-1,26
 188.5 281 188.5 281 164.5 256 c 1,27,-1
 164.5 335 l 1,0,1
EndSplineSet
EndChar

StartChar: A
Encoding: 65 65 42
Width: 780
Flags: W
LayerCount: 2
Fore
SplineSet
661 551 m 1,0,-1
 661 0 l 1,1,-1
 580 0 l 1,2,-1
 580 551 l 1,3,-1
 507 551 l 1,4,-1
 507 622 l 1,5,-1
 765 622 l 1,6,-1
 765 551 l 1,7,-1
 661 551 l 1,0,-1
284 632 m 0,8,9
 362 632 362 632 403.5 593 c 128,-1,10
 445 554 445 554 445 495 c 0,11,12
 445 452 445 452 422.5 417.5 c 128,-1,13
 400 383 400 383 356 363 c 128,-1,14
 312 343 312 343 246 341 c 1,15,-1
 241 411 l 1,16,17
 309 413 309 413 337.5 435 c 128,-1,18
 366 457 366 457 366 494 c 0,19,20
 366 530 366 530 342.5 546 c 128,-1,21
 319 562 319 562 288 562 c 0,22,23
 251 562 251 562 221 552 c 128,-1,24
 191 542 191 542 157 525 c 1,25,-1
 132 594 l 1,26,27
 158 608 158 608 196.5 620 c 128,-1,28
 235 632 235 632 284 632 c 0,8,9
456 218 m 0,29,30
 456 172 456 172 435 141 c 128,-1,31
 414 110 414 110 378.5 95 c 128,-1,32
 343 80 343 80 298 80 c 0,33,34
 241 80 241 80 192.5 108 c 128,-1,35
 144 136 144 136 100.5 197 c 128,-1,36
 57 258 57 258 15 356 c 1,37,-1
 86 382 l 1,38,39
 115 311 115 311 146.5 259.5 c 128,-1,40
 178 208 178 208 214 180.5 c 128,-1,41
 250 153 250 153 291 153 c 0,42,43
 329 153 329 153 353 170.5 c 128,-1,44
 377 188 377 188 377 227 c 0,45,46
 377 275 377 275 344 310 c 128,-1,47
 311 345 311 345 264 374 c 1,48,-1
 323 377 l 1,49,-1
 366 386 l 1,50,51
 380 374 380 374 397 357 c 128,-1,52
 414 340 414 340 424 323 c 1,53,-1
 429 304 l 1,54,55
 442 285 442 285 449 264 c 128,-1,56
 456 243 456 243 456 218 c 0,29,30
472 350 m 0,57,58
 520 350 520 350 555 357.5 c 128,-1,59
 590 365 590 365 637 382 c 1,60,-1
 637 310 l 1,61,62
 594 291 594 291 559.5 285 c 128,-1,63
 525 279 525 279 484 279 c 0,64,65
 469 279 469 279 449 281.5 c 128,-1,66
 429 284 429 284 411.5 287.5 c 128,-1,67
 394 291 394 291 386 294 c 1,68,-1
 339 350 l 1,69,-1
 345 365 l 1,70,71
 374 358 374 358 406 354 c 128,-1,72
 438 350 438 350 472 350 c 0,57,58
EndSplineSet
EndChar

StartChar: B
Encoding: 66 66 43
Width: 780
Flags: W
LayerCount: 2
Fore
SplineSet
576.5 617 m 0,0,1
 576.5 583 576.5 583 562.5 557.5 c 128,-1,2
 548.5 532 548.5 532 527.5 512.5 c 128,-1,3
 506.5 493 506.5 493 485.5 477 c 128,-1,4
 464.5 461 464.5 461 450.5 445.5 c 128,-1,5
 436.5 430 436.5 430 436.5 412 c 0,6,7
 436.5 399 436.5 399 443 388 c 128,-1,8
 449.5 377 449.5 377 468.5 362.5 c 128,-1,9
 487.5 348 487.5 348 524.5 323 c 0,10,11
 560.5 299 560.5 299 586.5 275 c 128,-1,12
 612.5 251 612.5 251 626.5 222 c 128,-1,13
 640.5 193 640.5 193 640.5 153 c 0,14,15
 640.5 96 640.5 96 617 60 c 128,-1,16
 593.5 24 593.5 24 551.5 7 c 128,-1,17
 509.5 -10 509.5 -10 454.5 -10 c 0,18,19
 407.5 -10 407.5 -10 371.5 -1 c 128,-1,20
 335.5 8 335.5 8 309.5 24 c 1,21,-1
 309.5 103 l 1,22,23
 326.5 93 326.5 93 349.5 83 c 128,-1,24
 372.5 73 372.5 73 399 67 c 128,-1,25
 425.5 61 425.5 61 451.5 61 c 0,26,27
 506.5 61 506.5 61 530.5 84 c 128,-1,28
 554.5 107 554.5 107 554.5 147 c 0,29,30
 554.5 171 554.5 171 546 189.5 c 128,-1,31
 537.5 208 537.5 208 517 226 c 128,-1,32
 496.5 244 496.5 244 460.5 267 c 0,33,34
 418.5 294 418.5 294 395 315.5 c 128,-1,35
 371.5 337 371.5 337 361.5 359 c 128,-1,36
 351.5 381 351.5 381 351.5 407 c 0,37,38
 351.5 438 351.5 438 365 460 c 128,-1,39
 378.5 482 378.5 482 399 498.5 c 128,-1,40
 419.5 515 419.5 515 440 531 c 128,-1,41
 460.5 547 460.5 547 474 566 c 128,-1,42
 487.5 585 487.5 585 487.5 612 c 0,43,44
 487.5 654 487.5 654 452 673 c 128,-1,45
 416.5 692 416.5 692 360.5 692 c 0,46,47
 325.5 692 325.5 692 295 682.5 c 128,-1,48
 264.5 673 264.5 673 246 650 c 128,-1,49
 227.5 627 227.5 627 227.5 584 c 2,50,-1
 227.5 0 l 1,51,-1
 139.5 0 l 1,52,-1
 139.5 584 l 2,53,54
 139.5 651 139.5 651 168.5 690.5 c 128,-1,55
 197.5 730 197.5 730 247.5 747.5 c 128,-1,56
 297.5 765 297.5 765 360.5 765 c 0,57,58
 425.5 765 425.5 765 474 748.5 c 128,-1,59
 522.5 732 522.5 732 549.5 699.5 c 128,-1,60
 576.5 667 576.5 667 576.5 617 c 0,0,1
EndSplineSet
EndChar

StartChar: C
Encoding: 67 67 44
Width: 780
Flags: W
AnchorPoint: "Anchor-1" 474.5 536 basechar 0
AnchorPoint: "Anchor-0" 474.5 0 basechar 0
LayerCount: 2
Fore
SplineSet
455 633 m 260,0,1
 429 633 429 633 410.5 649 c 132,-1,2
 392 665 392 665 392 696 c 4,3,4
 392 729 392 729 410.5 744.5 c 132,-1,5
 429 760 429 760 455 760 c 260,6,7
 481 760 481 760 499.5 744.5 c 132,-1,8
 518 729 518 729 518 696 c 4,9,10
 518 665 518 665 499.5 649 c 132,-1,11
 481 633 481 633 455 633 c 260,0,1
530.5 -10 m 0,12,13
 412.5 -10 412.5 -10 347.5 57 c 128,-1,14
 282.5 124 282.5 124 282.5 245 c 0,15,16
 282.5 325 282.5 325 311.5 380.5 c 128,-1,17
 340.5 436 340.5 436 394.5 465 c 1,18,-1
 92.5 465 l 1,19,-1
 92.5 537 l 1,20,-1
 687.5 537 l 1,21,-1
 687.5 465 l 1,22,-1
 574.5 465 l 2,23,24
 480.5 465 480.5 465 427 411.5 c 128,-1,25
 373.5 358 373.5 358 373.5 252 c 0,26,27
 373.5 165 373.5 165 416.5 114.5 c 128,-1,28
 459.5 64 459.5 64 539.5 64 c 0,29,30
 576.5 64 576.5 64 610.5 73.5 c 128,-1,31
 644.5 83 644.5 83 676.5 99 c 1,32,-1
 676.5 21 l 1,33,34
 647.5 5 647.5 5 612.5 -2.5 c 128,-1,35
 577.5 -10 577.5 -10 530.5 -10 c 0,12,13
EndSplineSet
EndChar

StartChar: D
Encoding: 68 68 45
Width: 780
Flags: W
AnchorPoint: "Anchor-2" 402 0 basechar 0
AnchorPoint: "Anchor-1" 519 0 basechar 0
AnchorPoint: "Anchor-0" 418 622 basechar 0
LayerCount: 2
Fore
SplineSet
536 -58 m 1,0,1
 520 -32 520 -32 505 -5 c 128,-1,2
 490 22 490 22 478 46.5 c 128,-1,3
 466 71 466 71 458 89 c 2,4,-1
 444 121 l 2,5,6
 438 129 438 129 433.5 147 c 128,-1,7
 429 165 429 165 429 176 c 0,8,9
 429 211 429 211 450 225.5 c 128,-1,10
 471 240 471 240 496 240 c 0,11,12
 539 240 539 240 561.5 215.5 c 128,-1,13
 584 191 584 191 584 162 c 0,14,15
 584 135 584 135 574 118.5 c 128,-1,16
 564 102 564 102 547 93 c 128,-1,17
 530 84 530 84 509 79 c 2,18,-1
 484 77 l 2,19,20
 471 73 471 73 451.5 70.5 c 128,-1,21
 432 68 432 68 410 68 c 0,22,23
 368 68 368 68 325.5 78.5 c 128,-1,24
 283 89 283 89 247.5 112.5 c 128,-1,25
 212 136 212 136 190.5 175.5 c 128,-1,26
 169 215 169 215 169 272 c 0,27,28
 169 316 169 316 184.5 347.5 c 128,-1,29
 200 379 200 379 225 401 c 0,30,31
 258 430 258 430 306 443 c 128,-1,32
 354 456 354 456 413 456 c 2,33,-1
 454 456 l 1,34,-1
 418 420 l 1,35,-1
 418 551 l 1,36,-1
 123 551 l 1,37,-1
 123 622 l 1,38,-1
 657 622 l 1,39,-1
 657 551 l 1,40,-1
 499 551 l 1,41,-1
 499 385 l 1,42,-1
 450 385 l 2,43,44
 392 385 392 385 356.5 378 c 128,-1,45
 321 371 321 371 296 355 c 0,46,47
 274 340 274 340 261.5 317 c 128,-1,48
 249 294 249 294 249 262 c 0,49,50
 249 209 249 209 288.5 174.5 c 128,-1,51
 328 140 328 140 410 140 c 0,52,53
 422 140 422 140 435 141 c 128,-1,54
 448 142 448 142 476 148 c 1,55,-1
 524 104 l 1,56,57
 538 75 538 75 555.5 46 c 128,-1,58
 573 17 573 17 603 -24 c 1,59,-1
 536 -58 l 1,0,1
EndSplineSet
EndChar

StartChar: E
Encoding: 69 69 46
Width: 780
Flags: W
LayerCount: 2
Fore
SplineSet
589.5 0 m 1,0,-1
 190.5 0 l 1,1,-1
 190.5 714 l 1,2,-1
 589.5 714 l 1,3,-1
 589.5 635 l 1,4,-1
 280.5 635 l 1,5,-1
 280.5 412 l 1,6,-1
 571.5 412 l 1,7,-1
 571.5 334 l 1,8,-1
 280.5 334 l 1,9,-1
 280.5 79 l 1,10,-1
 589.5 79 l 1,11,-1
 589.5 0 l 1,0,-1
EndSplineSet
EndChar

StartChar: F
Encoding: 70 70 47
Width: 780
Flags: W
LayerCount: 2
Fore
SplineSet
280.5 0 m 1,0,-1
 190.5 0 l 1,1,-1
 190.5 714 l 1,2,-1
 589.5 714 l 1,3,-1
 589.5 635 l 1,4,-1
 280.5 635 l 1,5,-1
 280.5 382 l 1,6,-1
 570.5 382 l 1,7,-1
 570.5 303 l 1,8,-1
 280.5 303 l 1,9,-1
 280.5 0 l 1,0,-1
EndSplineSet
EndChar

StartChar: G
Encoding: 71 71 48
Width: 780
Flags: W
LayerCount: 2
Fore
SplineSet
372.5 546 m 0,0,1
 425.5 546 425.5 546 468 526 c 128,-1,2
 510.5 506 510.5 506 540.5 465 c 1,3,-1
 545.5 465 l 1,4,-1
 557.5 536 l 1,5,-1
 627.5 536 l 1,6,-1
 627.5 -9 l 2,7,8
 627.5 -85 627.5 -85 601.5 -136.5 c 128,-1,9
 575.5 -188 575.5 -188 522.5 -214 c 128,-1,10
 469.5 -240 469.5 -240 387.5 -240 c 0,11,12
 329.5 -240 329.5 -240 281 -231.5 c 128,-1,13
 232.5 -223 232.5 -223 194.5 -206 c 1,14,-1
 194.5 -125 l 1,15,16
 232.5 -145 232.5 -145 283.5 -156 c 128,-1,17
 334.5 -167 334.5 -167 392.5 -167 c 0,18,19
 461.5 -167 461.5 -167 501 -126.5 c 128,-1,20
 540.5 -86 540.5 -86 540.5 -16 c 2,21,-1
 540.5 5 l 2,22,23
 540.5 17 540.5 17 541.5 39.5 c 128,-1,24
 542.5 62 542.5 62 543.5 71 c 1,25,-1
 539.5 71 l 1,26,27
 511.5 30 511.5 30 470 10 c 128,-1,28
 428.5 -10 428.5 -10 373.5 -10 c 0,29,30
 269.5 -10 269.5 -10 211 63 c 128,-1,31
 152.5 136 152.5 136 152.5 267 c 0,32,33
 152.5 395 152.5 395 211 470.5 c 128,-1,34
 269.5 546 269.5 546 372.5 546 c 0,0,1
384.5 472 m 0,35,36
 339.5 472 339.5 472 308 448 c 128,-1,37
 276.5 424 276.5 424 260 378 c 128,-1,38
 243.5 332 243.5 332 243.5 266 c 0,39,40
 243.5 167 243.5 167 280 114.5 c 128,-1,41
 316.5 62 316.5 62 386.5 62 c 0,42,43
 427.5 62 427.5 62 456.5 72.5 c 128,-1,44
 485.5 83 485.5 83 504.5 105.5 c 128,-1,45
 523.5 128 523.5 128 532.5 163 c 128,-1,46
 541.5 198 541.5 198 541.5 246 c 2,47,-1
 541.5 267 l 2,48,49
 541.5 340 541.5 340 525 385 c 128,-1,50
 508.5 430 508.5 430 473.5 451 c 128,-1,51
 438.5 472 438.5 472 384.5 472 c 0,35,36
395.5 737 m 0,52,53
 415.5 737 415.5 737 431 723.5 c 128,-1,54
 446.5 710 446.5 710 446.5 681 c 0,55,56
 446.5 653 446.5 653 431 639 c 128,-1,57
 415.5 625 415.5 625 395.5 625 c 0,58,59
 373.5 625 373.5 625 358.5 639 c 128,-1,60
 343.5 653 343.5 653 343.5 681 c 0,61,62
 343.5 710 343.5 710 358.5 723.5 c 128,-1,63
 373.5 737 373.5 737 395.5 737 c 0,52,53
EndSplineSet
EndChar

StartChar: H
Encoding: 72 72 49
Width: 780
Flags: W
AnchorPoint: "Anchor-2" 383 0 basechar 0
LayerCount: 2
Fore
SplineSet
254 229 m 1,0,1
 229 247 229 247 207.5 277.5 c 128,-1,2
 186 308 186 308 186 352 c 0,3,4
 186 380 186 380 196 400 c 128,-1,5
 206 420 206 420 223 433 c 0,6,7
 238 445 238 445 256 452 c 128,-1,8
 274 459 274 459 296.5 462 c 128,-1,9
 319 465 319 465 346 465 c 2,10,-1
 478 465 l 1,11,-1
 478 551 l 1,12,-1
 117 551 l 1,13,-1
 117 622 l 1,14,-1
 663 622 l 1,15,-1
 663 551 l 1,16,-1
 559 551 l 1,17,-1
 559 394 l 1,18,-1
 347 394 l 2,19,20
 316 394 316 394 303 391 c 128,-1,21
 290 388 290 388 281 381 c 0,22,23
 274 375 274 375 270 366.5 c 128,-1,24
 266 358 266 358 266 347 c 0,25,26
 266 323 266 323 280.5 305 c 128,-1,27
 295 287 295 287 314 274 c 1,28,-1
 254 229 l 1,0,1
438 69 m 1,29,30
 474 80 474 80 497 98 c 128,-1,31
 520 116 520 116 520 148 c 0,32,33
 520 186 520 186 491 207.5 c 128,-1,34
 462 229 462 229 397 229 c 0,35,36
 328 229 328 229 291.5 200.5 c 128,-1,37
 255 172 255 172 255 124 c 0,38,39
 255 101 255 101 261 79.5 c 128,-1,40
 267 58 267 58 284 34 c 128,-1,41
 301 10 301 10 333.5 -20 c 128,-1,42
 366 -50 366 -50 419 -89 c 1,43,-1
 365 -142 l 1,44,45
 304 -94 304 -94 261.5 -51.5 c 128,-1,46
 219 -9 219 -9 197 35 c 128,-1,47
 175 79 175 79 175 130 c 0,48,49
 175 186 175 186 207.5 224 c 128,-1,50
 240 262 240 262 291.5 281 c 128,-1,51
 343 300 343 300 401 300 c 0,52,53
 470 300 470 300 513.5 279 c 128,-1,54
 557 258 557 258 577.5 224.5 c 128,-1,55
 598 191 598 191 598 153 c 0,56,57
 598 95 598 95 564 57 c 128,-1,58
 530 19 530 19 465 2 c 1,59,-1
 438 69 l 1,29,30
EndSplineSet
EndChar

StartChar: I
Encoding: 73 73 50
Width: 780
Flags: W
LayerCount: 2
Fore
SplineSet
490.5 756 m 1,0,1
 481.5 742 481.5 742 464.5 722 c 128,-1,2
 447.5 702 447.5 702 427 680.5 c 128,-1,3
 406.5 659 406.5 659 386 639.5 c 128,-1,4
 365.5 620 365.5 620 347.5 606 c 1,5,-1
 289.5 606 l 1,6,-1
 289.5 618 l 1,7,8
 304.5 637 304.5 637 322 663 c 128,-1,9
 339.5 689 339.5 689 356.5 716.5 c 128,-1,10
 373.5 744 373.5 744 384.5 766 c 1,11,-1
 490.5 766 l 1,12,-1
 490.5 756 l 1,0,1
386.5 0 m 5,13,-1
 298.5 0 l 5,14,-1
 298.5 536 l 5,15,-1
 386.5 536 l 5,16,-1
 386.5 0 l 5,13,-1
EndSplineSet
EndChar

StartChar: J
Encoding: 74 74 51
Width: 780
Flags: W
LayerCount: 2
Fore
SplineSet
339.5 -8 m 4,0,1
 284.5 -8 284.5 -8 240.5 4 c 132,-1,2
 196.5 16 196.5 16 162.5 33 c 5,3,-1
 193.5 103 l 5,4,5
 223.5 89 223.5 89 260 77 c 132,-1,6
 296.5 65 296.5 65 337.5 65 c 4,7,8
 394.5 65 394.5 65 424.5 94.5 c 132,-1,9
 454.5 124 454.5 124 454.5 190 c 6,10,-1
 454.5 329 l 5,11,-1
 250.5 329 l 5,12,-1
 250.5 395 l 5,13,-1
 454.5 395 l 5,14,-1
 454.5 499 l 6,15,16
 454.5 539 454.5 539 464 565.5 c 132,-1,17
 473.5 592 473.5 592 489 608 c 132,-1,18
 504.5 624 504.5 624 522.5 635 c 5,19,-1
 138.5 635 l 5,20,-1
 138.5 715 l 5,21,-1
 641.5 715 l 5,22,-1
 641.5 641 l 5,23,24
 612.5 634 612.5 634 590.5 617.5 c 132,-1,25
 568.5 601 568.5 601 555.5 572.5 c 132,-1,26
 542.5 544 542.5 544 542.5 500 c 6,27,-1
 542.5 395 l 5,28,-1
 638.5 395 l 5,29,-1
 638.5 329 l 5,30,-1
 542.5 329 l 5,31,-1
 542.5 181 l 6,32,33
 542.5 121 542.5 121 517.5 79 c 132,-1,34
 492.5 37 492.5 37 446.5 14.5 c 132,-1,35
 400.5 -8 400.5 -8 339.5 -8 c 4,0,1
EndSplineSet
EndChar

StartChar: K
Encoding: 75 75 52
Width: 780
Flags: W
LayerCount: 2
Fore
SplineSet
370 737 m 4,0,1
 390 737 390 737 405.5 723.5 c 132,-1,2
 421 710 421 710 421 681 c 4,3,4
 421 653 421 653 405.5 639 c 132,-1,5
 390 625 390 625 370 625 c 4,6,7
 348 625 348 625 333 639 c 132,-1,8
 318 653 318 653 318 681 c 4,9,10
 318 710 318 710 333 723.5 c 132,-1,11
 348 737 348 737 370 737 c 4,0,1
257 363 m 2,12,13
 257 347 257 347 255.5 321 c 128,-1,14
 254 295 254 295 253 276 c 1,15,-1
 257 276 l 1,16,17
 263 284 263 284 275 299 c 128,-1,18
 287 314 287 314 299.5 329.5 c 128,-1,19
 312 345 312 345 321 355 c 2,20,-1
 492 536 l 1,21,-1
 595 536 l 1,22,-1
 378 307 l 1,23,-1
 610 0 l 1,24,-1
 504 0 l 1,25,-1
 318 250 l 1,26,-1
 257 197 l 1,27,-1
 257 0 l 1,28,-1
 170 0 l 1,29,-1
 170 536 l 1,30,-1
 257 536 l 1,31,-1
 257 363 l 2,12,13
EndSplineSet
EndChar

StartChar: L
Encoding: 76 76 53
Width: 780
Flags: W
LayerCount: 2
Fore
SplineSet
440.5 723 m 0,0,1
 495.5 723 495.5 723 539.5 711 c 128,-1,2
 583.5 699 583.5 699 617.5 682 c 1,3,-1
 586.5 612 l 1,4,5
 556.5 626 556.5 626 520 638 c 128,-1,6
 483.5 650 483.5 650 442.5 650 c 0,7,8
 385.5 650 385.5 650 355.5 620.5 c 128,-1,9
 325.5 591 325.5 591 325.5 525 c 2,10,-1
 325.5 386 l 1,11,-1
 529.5 386 l 1,12,-1
 529.5 320 l 1,13,-1
 325.5 320 l 1,14,-1
 325.5 216 l 2,15,16
 325.5 176 325.5 176 316 149.5 c 128,-1,17
 306.5 123 306.5 123 291 107 c 128,-1,18
 275.5 91 275.5 91 257.5 80 c 1,19,-1
 641.5 80 l 1,20,-1
 641.5 0 l 1,21,-1
 138.5 0 l 1,22,-1
 138.5 74 l 1,23,24
 167.5 81 167.5 81 189.5 97.5 c 128,-1,25
 211.5 114 211.5 114 224.5 142.5 c 128,-1,26
 237.5 171 237.5 171 237.5 215 c 2,27,-1
 237.5 320 l 1,28,-1
 141.5 320 l 1,29,-1
 141.5 386 l 1,30,-1
 237.5 386 l 1,31,-1
 237.5 534 l 2,32,33
 237.5 594 237.5 594 262.5 636 c 128,-1,34
 287.5 678 287.5 678 333.5 700.5 c 128,-1,35
 379.5 723 379.5 723 440.5 723 c 0,0,1
EndSplineSet
EndChar

StartChar: M
Encoding: 77 77 54
Width: 780
Flags: W
LayerCount: 2
Fore
SplineSet
593.5 546 m 0,0,1
 684.5 546 684.5 546 729.5 499.5 c 128,-1,2
 774.5 453 774.5 453 774.5 349 c 2,3,-1
 774.5 0 l 1,4,-1
 687.5 0 l 1,5,-1
 687.5 345 l 2,6,7
 687.5 408 687.5 408 661 440 c 128,-1,8
 634.5 472 634.5 472 578.5 472 c 0,9,10
 500.5 472 500.5 472 467 427 c 128,-1,11
 433.5 382 433.5 382 433.5 296 c 2,12,-1
 433.5 0 l 1,13,-1
 346.5 0 l 1,14,-1
 346.5 345 l 2,15,16
 346.5 387 346.5 387 334.5 415.5 c 128,-1,17
 322.5 444 322.5 444 298.5 458 c 128,-1,18
 274.5 472 274.5 472 236.5 472 c 0,19,20
 182.5 472 182.5 472 151.5 449.5 c 128,-1,21
 120.5 427 120.5 427 107 384 c 128,-1,22
 93.5 341 93.5 341 93.5 278 c 2,23,-1
 93.5 0 l 1,24,-1
 5.5 0 l 1,25,-1
 5.5 536 l 1,26,-1
 76.5 536 l 1,27,-1
 89.5 463 l 1,28,-1
 94.5 463 l 1,29,30
 111.5 491 111.5 491 136 509.5 c 128,-1,31
 160.5 528 160.5 528 190.5 537 c 128,-1,32
 220.5 546 220.5 546 252.5 546 c 0,33,34
 314.5 546 314.5 546 356 524 c 128,-1,35
 397.5 502 397.5 502 416.5 456 c 1,36,-1
 421.5 456 l 1,37,38
 448.5 502 448.5 502 495 524 c 128,-1,39
 541.5 546 541.5 546 593.5 546 c 0,0,1
400.5 737 m 0,40,41
 420.5 737 420.5 737 436 723.5 c 128,-1,42
 451.5 710 451.5 710 451.5 681 c 0,43,44
 451.5 653 451.5 653 436 639 c 128,-1,45
 420.5 625 420.5 625 400.5 625 c 0,46,47
 378.5 625 378.5 625 363.5 639 c 128,-1,48
 348.5 653 348.5 653 348.5 681 c 0,49,50
 348.5 710 348.5 710 363.5 723.5 c 128,-1,51
 378.5 737 378.5 737 400.5 737 c 0,40,41
EndSplineSet
EndChar

StartChar: N
Encoding: 78 78 55
Width: 780
Flags: W
LayerCount: 2
Fore
SplineSet
364 737 m 4,0,1
 384 737 384 737 399.5 723.5 c 132,-1,2
 415 710 415 710 415 681 c 4,3,4
 415 653 415 653 399.5 639 c 132,-1,5
 384 625 384 625 364 625 c 4,6,7
 342 625 342 625 327 639 c 132,-1,8
 312 653 312 653 312 681 c 4,9,10
 312 710 312 710 327 723.5 c 132,-1,11
 342 737 342 737 364 737 c 4,0,1
422 546 m 0,12,13
 518 546 518 546 567 499.5 c 128,-1,14
 616 453 616 453 616 349 c 2,15,-1
 616 0 l 1,16,-1
 529 0 l 1,17,-1
 529 343 l 2,18,19
 529 408 529 408 500 440 c 128,-1,20
 471 472 471 472 409 472 c 0,21,22
 320 472 320 472 286 422 c 128,-1,23
 252 372 252 372 252 278 c 2,24,-1
 252 0 l 1,25,-1
 164 0 l 1,26,-1
 164 536 l 1,27,-1
 235 536 l 1,28,-1
 248 463 l 1,29,-1
 253 463 l 1,30,31
 271 491 271 491 297.5 509.5 c 128,-1,32
 324 528 324 528 356 537 c 128,-1,33
 388 546 388 546 422 546 c 0,12,13
EndSplineSet
EndChar

StartChar: O
Encoding: 79 79 56
Width: 780
Flags: W
AnchorPoint: "Anchor-4" 390 268 basechar 0
AnchorPoint: "Anchor-3" 670 536 basechar 0
AnchorPoint: "Anchor-2" 390 536 basechar 0
AnchorPoint: "Anchor-1" 390 0 basechar 0
AnchorPoint: "Anchor-0" 391 10 basechar 0
LayerCount: 2
Fore
SplineSet
399.5 633 m 260,0,1
 373.5 633 373.5 633 355 649 c 132,-1,2
 336.5 665 336.5 665 336.5 696 c 4,3,4
 336.5 729 336.5 729 355 744.5 c 132,-1,5
 373.5 760 373.5 760 399.5 760 c 260,6,7
 425.5 760 425.5 760 444 744.5 c 132,-1,8
 462.5 729 462.5 729 462.5 696 c 4,9,10
 462.5 665 462.5 665 444 649 c 132,-1,11
 425.5 633 425.5 633 399.5 633 c 260,0,1
184 233 m 1,12,-1
 184 311 l 1,13,-1
 602 311 l 1,14,-1
 602 233 l 1,15,-1
 184 233 l 1,12,-1
391 -10 m 0,16,17
 339 -10 339 -10 294 7 c 128,-1,18
 249 24 249 24 215.5 59 c 128,-1,19
 182 94 182 94 163.5 146.5 c 128,-1,20
 145 199 145 199 145 270 c 0,21,22
 145 363 145 363 176.5 424 c 128,-1,23
 208 485 208 485 263 515.5 c 128,-1,24
 318 546 318 546 388 546 c 256,25,26
 458 546 458 546 514 515.5 c 128,-1,27
 570 485 570 485 602.5 423.5 c 128,-1,28
 635 362 635 362 635 267 c 0,29,30
 635 197 635 197 616.5 145 c 128,-1,31
 598 93 598 93 565.5 58.5 c 128,-1,32
 533 24 533 24 488.5 7 c 128,-1,33
 444 -10 444 -10 391 -10 c 0,16,17
390 63 m 256,34,35
 442 63 442 63 476 88 c 128,-1,36
 510 113 510 113 527 159.5 c 128,-1,37
 544 206 544 206 544 269 c 0,38,39
 544 333 544 333 527 378.5 c 128,-1,40
 510 424 510 424 475.5 448.5 c 128,-1,41
 441 473 441 473 389 473 c 0,42,43
 311 473 311 473 272.5 418.5 c 128,-1,44
 234 364 234 364 234 269 c 0,45,46
 234 206 234 206 251.5 159.5 c 128,-1,47
 269 113 269 113 303.5 88 c 128,-1,48
 338 63 338 63 390 63 c 256,34,35
EndSplineSet
EndChar

StartChar: P
Encoding: 80 80 57
Width: 780
Flags: W
LayerCount: 2
Fore
SplineSet
271 744 m 4,0,1
 291 744 291 744 306.5 730.5 c 132,-1,2
 322 717 322 717 322 688 c 4,3,4
 322 660 322 660 306.5 646 c 132,-1,5
 291 632 291 632 271 632 c 4,6,7
 249 632 249 632 234 646 c 132,-1,8
 219 660 219 660 219 688 c 4,9,10
 219 717 219 717 234 730.5 c 132,-1,11
 249 744 249 744 271 744 c 4,0,1
409 546 m 0,12,13
 469 546 469 546 516 521 c 128,-1,14
 563 496 563 496 590 446.5 c 128,-1,15
 617 397 617 397 617 323 c 0,16,17
 617 252 617 252 590 193 c 128,-1,18
 563 134 563 134 514 90.5 c 128,-1,19
 465 47 465 47 398 21 c 128,-1,20
 331 -5 331 -5 251 -10 c 1,21,-1
 251 -240 l 1,22,-1
 163 -240 l 1,23,-1
 163 536 l 1,24,-1
 235 536 l 1,25,-1
 247 463 l 1,26,-1
 251 463 l 1,27,28
 266 486 266 486 287 505 c 128,-1,29
 308 524 308 524 338 535 c 128,-1,30
 368 546 368 546 409 546 c 0,12,13
391 472 m 0,31,32
 341 472 341 472 310 451.5 c 128,-1,33
 279 431 279 431 265 390 c 128,-1,34
 251 349 251 349 251 286 c 2,35,-1
 251 62 l 1,36,37
 316 70 316 70 366.5 91.5 c 128,-1,38
 417 113 417 113 453 146.5 c 128,-1,39
 489 180 489 180 507.5 224 c 128,-1,40
 526 268 526 268 526 321 c 0,41,42
 526 367 526 367 510 400.5 c 128,-1,43
 494 434 494 434 464 453 c 128,-1,44
 434 472 434 472 391 472 c 0,31,32
EndSplineSet
EndChar

StartChar: Q
Encoding: 81 81 58
Width: 780
Flags: W
LayerCount: 2
Fore
SplineSet
641 -5 m 1,0,1
 621 -5 621 -5 602 2 c 128,-1,2
 583 9 583 9 569 26 c 1,3,-1
 569 291 l 5,4,5
 541 266 541 266 504 250.5 c 132,-1,6
 467 235 467 235 417 235 c 4,7,8
 375 235 375 235 326 258 c 132,-1,9
 277 281 277 281 235 318 c 132,-1,10
 193 355 193 355 165 401 c 132,-1,11
 137 447 137 447 137 493 c 4,12,13
 137 541 137 541 154.5 578 c 132,-1,14
 172 615 172 615 202 640.5 c 132,-1,15
 232 666 232 666 272.5 679 c 132,-1,16
 313 692 313 692 359 692 c 4,17,18
 393 692 393 692 423 684 c 4,19,20
 472 671 472 671 479 662.5 c 4,21,22
 514 622 514 622 527.5 631.5 c 4,23,24
 531 634 531 634 569 718 c 5,25,-1
 567 717 l 5,26,-1
 643 717 l 6,27,-1
 641 -5 l 1,0,1
360 292 m 4,28,29
 398 292 398 292 434 304.5 c 132,-1,30
 470 317 470 317 500 340 c 5,31,-1
 267 580 l 5,32,33
 240 556 240 556 225 521.5 c 132,-1,34
 210 487 210 487 210 442 c 4,35,36
 210 406 210 406 221.5 378 c 132,-1,37
 233 350 233 350 253 331 c 132,-1,38
 273 312 273 312 300.5 302 c 132,-1,39
 328 292 328 292 360 292 c 4,28,29
569 571 m 5,40,41
 534 598 534 598 496.5 613.5 c 132,-1,42
 459 629 459 629 410 629 c 4,43,44
 338 629 338 629 287 596 c 5,45,-1
 518 356 l 5,46,47
 534 371 534 371 547 389 c 132,-1,48
 560 407 560 407 569 427 c 5,49,-1
 569 571 l 5,40,41
EndSplineSet
EndChar

StartChar: R
Encoding: 82 82 59
Width: 780
Flags: W
AnchorPoint: "Anchor-5" 274.5 0 basechar 0
LayerCount: 2
Fore
SplineSet
407.5 744 m 4,0,1
 427.5 744 427.5 744 443 730.5 c 132,-1,2
 458.5 717 458.5 717 458.5 688 c 4,3,4
 458.5 660 458.5 660 443 646 c 132,-1,5
 427.5 632 427.5 632 407.5 632 c 4,6,7
 385.5 632 385.5 632 370.5 646 c 132,-1,8
 355.5 660 355.5 660 355.5 688 c 4,9,10
 355.5 717 355.5 717 370.5 730.5 c 132,-1,11
 385.5 744 385.5 744 407.5 744 c 4,0,1
483.5 546 m 0,12,13
 498.5 546 498.5 546 516 544.5 c 128,-1,14
 533.5 543 533.5 543 546.5 540 c 1,15,-1
 535.5 459 l 1,16,17
 522.5 462 522.5 462 507 464 c 128,-1,18
 491.5 466 491.5 466 477.5 466 c 0,19,20
 446.5 466 446.5 466 418.5 453 c 128,-1,21
 390.5 440 390.5 440 368.5 416.5 c 128,-1,22
 346.5 393 346.5 393 334 360 c 128,-1,23
 321.5 327 321.5 327 321.5 286 c 2,24,-1
 321.5 0 l 1,25,-1
 233.5 0 l 1,26,-1
 233.5 536 l 1,27,-1
 305.5 536 l 1,28,-1
 315.5 438 l 1,29,-1
 319.5 438 l 1,30,31
 336.5 468 336.5 468 360.5 492.5 c 128,-1,32
 384.5 517 384.5 517 415.5 531.5 c 128,-1,33
 446.5 546 446.5 546 483.5 546 c 0,12,13
EndSplineSet
EndChar

StartChar: S
Encoding: 83 83 60
Width: 780
Flags: W
AnchorPoint: "Anchor-5" 387.5 0 basechar 0
LayerCount: 2
Fore
SplineSet
406.5 744 m 4,0,1
 426.5 744 426.5 744 442 730.5 c 132,-1,2
 457.5 717 457.5 717 457.5 688 c 4,3,4
 457.5 660 457.5 660 442 646 c 132,-1,5
 426.5 632 426.5 632 406.5 632 c 4,6,7
 384.5 632 384.5 632 369.5 646 c 132,-1,8
 354.5 660 354.5 660 354.5 688 c 4,9,10
 354.5 717 354.5 717 369.5 730.5 c 132,-1,11
 384.5 744 384.5 744 406.5 744 c 4,0,1
581.5 148 m 0,12,13
 581.5 96 581.5 96 555.5 61 c 128,-1,14
 529.5 26 529.5 26 481.5 8 c 128,-1,15
 433.5 -10 433.5 -10 367.5 -10 c 0,16,17
 311.5 -10 311.5 -10 271 -1 c 128,-1,18
 230.5 8 230.5 8 199.5 24 c 1,19,-1
 199.5 104 l 1,20,21
 231.5 88 231.5 88 277 74.5 c 128,-1,22
 322.5 61 322.5 61 369.5 61 c 0,23,24
 436.5 61 436.5 61 466.5 82.5 c 128,-1,25
 496.5 104 496.5 104 496.5 140 c 0,26,27
 496.5 160 496.5 160 485.5 176 c 128,-1,28
 474.5 192 474.5 192 446 208 c 128,-1,29
 417.5 224 417.5 224 364.5 244 c 0,30,31
 312.5 264 312.5 264 275.5 284 c 128,-1,32
 238.5 304 238.5 304 218.5 332 c 128,-1,33
 198.5 360 198.5 360 198.5 404 c 0,34,35
 198.5 472 198.5 472 254 509 c 128,-1,36
 309.5 546 309.5 546 399.5 546 c 0,37,38
 448.5 546 448.5 546 491 536.5 c 128,-1,39
 533.5 527 533.5 527 570.5 510 c 1,40,-1
 540.5 440 l 1,41,42
 506.5 454 506.5 454 469.5 464 c 128,-1,43
 432.5 474 432.5 474 393.5 474 c 0,44,45
 339.5 474 339.5 474 311 456.5 c 128,-1,46
 282.5 439 282.5 439 282.5 409 c 0,47,48
 282.5 387 282.5 387 295.5 371.5 c 128,-1,49
 308.5 356 308.5 356 339 341.5 c 128,-1,50
 369.5 327 369.5 327 420.5 307 c 0,51,52
 471.5 288 471.5 288 507.5 268 c 128,-1,53
 543.5 248 543.5 248 562.5 219.5 c 128,-1,54
 581.5 191 581.5 191 581.5 148 c 0,12,13
EndSplineSet
EndChar

StartChar: T
Encoding: 84 84 61
Width: 780
Flags: W
LayerCount: 2
Fore
SplineSet
579 551 m 1,0,-1
 579 0 l 1,1,-1
 498 0 l 1,2,-1
 498 328 l 1,3,-1
 389 328 l 2,4,5
 328 328 328 328 297.5 322 c 128,-1,6
 267 316 267 316 248 299 c 0,7,8
 236 289 236 289 230 274 c 128,-1,9
 224 259 224 259 224 237 c 0,10,11
 224 204 224 204 240.5 173.5 c 128,-1,12
 257 143 257 143 289.5 110.5 c 128,-1,13
 322 78 322 78 369 40 c 1,14,-1
 315 -12 l 1,15,16
 269 28 269 28 229.5 68 c 128,-1,17
 190 108 190 108 166.5 151 c 128,-1,18
 143 194 143 194 143 242 c 0,19,20
 143 277 143 277 156.5 305 c 128,-1,21
 170 333 170 333 191 351 c 0,22,23
 210 368 210 368 234 378.5 c 128,-1,24
 258 389 258 389 291.5 394 c 128,-1,25
 325 399 325 399 370 399 c 2,26,-1
 498 399 l 1,27,-1
 498 551 l 1,28,-1
 98 551 l 1,29,-1
 98 622 l 1,30,-1
 682 622 l 1,31,-1
 682 551 l 1,32,-1
 579 551 l 1,0,-1
EndSplineSet
EndChar

StartChar: U
Encoding: 85 85 62
Width: 780
Flags: W
LayerCount: 2
Fore
SplineSet
613 536 m 1,0,-1
 613 0 l 1,1,-1
 541 0 l 1,2,-1
 528 71 l 1,3,-1
 524 71 l 1,4,5
 507 43 507 43 480 25 c 128,-1,6
 453 7 453 7 421 -1.5 c 128,-1,7
 389 -10 389 -10 354 -10 c 0,8,9
 290 -10 290 -10 246.5 10.5 c 128,-1,10
 203 31 203 31 181 74 c 128,-1,11
 159 117 159 117 159 185 c 2,12,-1
 159 536 l 1,13,-1
 248 536 l 1,14,-1
 248 191 l 2,15,16
 248 127 248 127 277 95 c 128,-1,17
 306 63 306 63 367 63 c 0,18,19
 427 63 427 63 461.5 85.5 c 128,-1,20
 496 108 496 108 510.5 151.5 c 128,-1,21
 525 195 525 195 525 257 c 2,22,-1
 525 536 l 1,23,-1
 613 536 l 1,0,-1
528 -116 m 0,24,25
 528 -138 528 -138 540 -149.5 c 128,-1,26
 552 -161 552 -161 573 -161 c 0,27,28
 590 -161 590 -161 601.5 -158.5 c 128,-1,29
 613 -156 613 -156 621 -155 c 1,30,-1
 621 -211 l 1,31,32
 607 -215 607 -215 593 -217.5 c 128,-1,33
 579 -220 579 -220 559 -220 c 0,34,35
 506 -220 506 -220 481 -195 c 128,-1,36
 456 -170 456 -170 456 -126 c 0,37,38
 456 -97 456 -97 470.5 -70 c 128,-1,39
 485 -43 485 -43 506.5 -21 c 128,-1,40
 528 1 528 1 548 15 c 1,41,-1
 596 0 l 1,42,43
 562 -32 562 -32 545 -58.5 c 128,-1,44
 528 -85 528 -85 528 -116 c 0,24,25
EndSplineSet
EndChar

StartChar: V
Encoding: 86 86 63
Width: 780
Flags: W
AnchorPoint: "Anchor-3" 670.5 536 basechar 0
AnchorPoint: "Anchor-2" 390.5 536 basechar 0
AnchorPoint: "Anchor-1" 390.5 0 basechar 0
LayerCount: 2
Fore
SplineSet
390.5 633 m 260,0,1
 364.5 633 364.5 633 346 649 c 132,-1,2
 327.5 665 327.5 665 327.5 696 c 4,3,4
 327.5 729 327.5 729 346 744.5 c 132,-1,5
 364.5 760 364.5 760 390.5 760 c 260,6,7
 416.5 760 416.5 760 435 744.5 c 132,-1,8
 453.5 729 453.5 729 453.5 696 c 4,9,10
 453.5 665 453.5 665 435 649 c 132,-1,11
 416.5 633 416.5 633 390.5 633 c 260,0,1
333.5 0 m 1,12,-1
 135.5 536 l 1,13,-1
 227.5 536 l 1,14,-1
 339.5 218 l 2,15,16
 350.5 186 350.5 186 363 151 c 128,-1,17
 375.5 116 375.5 116 388.5 76 c 1,18,-1
 391.5 76 l 1,19,20
 404.5 116 404.5 116 418 151.5 c 128,-1,21
 431.5 187 431.5 187 441.5 218 c 2,22,-1
 550.5 536 l 1,23,-1
 644.5 536 l 1,24,-1
 444.5 0 l 1,25,-1
 333.5 0 l 1,12,-1
EndSplineSet
EndChar

StartChar: W
Encoding: 87 87 64
Width: 780
Flags: W
LayerCount: 2
Fore
SplineSet
248 -10 m 0,0,1
 186 -10 186 -10 143.5 24 c 128,-1,2
 101 58 101 58 79 119 c 128,-1,3
 57 180 57 180 57 260 c 0,4,5
 57 322 57 322 68.5 467 c 128,-1,6
 80 612 80 612 99 652 c 1,7,-1
 23 652 l 1,8,-1
 23 725 l 1,9,-1
 757 725 l 1,10,-1
 757 652 l 1,11,-1
 685 652 l 1,12,13
 705 612 705 612 716 467 c 128,-1,14
 727 322 727 322 727 260 c 0,15,16
 727 180 727 180 705 119 c 128,-1,17
 683 58 683 58 640.5 24 c 128,-1,18
 598 -10 598 -10 536 -10 c 0,19,20
 481 -10 481 -10 446 15.5 c 128,-1,21
 411 41 411 41 394 100 c 1,22,-1
 389 100 l 1,23,24
 379 61 379 61 360 36.5 c 128,-1,25
 341 12 341 12 313 1 c 128,-1,26
 285 -10 285 -10 248 -10 c 0,0,1
254 63 m 0,27,28
 287 63 287 63 308.5 80 c 128,-1,29
 330 97 330 97 340 126.5 c 128,-1,30
 350 156 350 156 350 193 c 2,31,-1
 350 344 l 1,32,-1
 434 344 l 1,33,-1
 434 193 l 2,34,35
 434 152 434 152 445.5 122.5 c 128,-1,36
 457 93 457 93 478 78 c 128,-1,37
 499 63 499 63 529 63 c 0,38,39
 563 63 563 63 587.5 85 c 128,-1,40
 612 107 612 107 625.5 151 c 128,-1,41
 639 195 639 195 639 259 c 0,42,43
 639 322 639 322 628 467 c 128,-1,44
 617 612 617 612 597 652 c 1,45,-1
 188 652 l 1,46,47
 169 612 169 612 157 467 c 128,-1,48
 145 322 145 322 145 259 c 0,49,50
 145 162 145 162 175 112.5 c 128,-1,51
 205 63 205 63 254 63 c 0,27,28
EndSplineSet
EndChar

StartChar: X
Encoding: 88 88 65
Width: 780
Flags: W
AnchorPoint: "Anchor-3" 670.5 536 basechar 0
AnchorPoint: "Anchor-2" 390.5 536 basechar 0
AnchorPoint: "Anchor-1" 390.5 0 basechar 0
LayerCount: 2
Fore
SplineSet
399.5 633 m 260,0,1
 373.5 633 373.5 633 355 649 c 132,-1,2
 336.5 665 336.5 665 336.5 696 c 4,3,4
 336.5 729 336.5 729 355 744.5 c 132,-1,5
 373.5 760 373.5 760 399.5 760 c 260,6,7
 425.5 760 425.5 760 444 744.5 c 132,-1,8
 462.5 729 462.5 729 462.5 696 c 4,9,10
 462.5 665 462.5 665 444 649 c 132,-1,11
 425.5 633 425.5 633 399.5 633 c 260,0,1
135.5 0 m 1,12,-1
 338.5 274 l 1,13,-1
 145.5 536 l 1,14,-1
 246.5 536 l 1,15,-1
 390.5 335 l 1,16,-1
 534.5 536 l 1,17,-1
 635.5 536 l 1,18,-1
 441.5 274 l 1,19,-1
 644.5 0 l 1,20,-1
 543.5 0 l 1,21,-1
 390.5 213 l 1,22,-1
 236.5 0 l 1,23,-1
 135.5 0 l 1,12,-1
EndSplineSet
EndChar

StartChar: Y
Encoding: 89 89 66
Width: 780
Flags: W
LayerCount: 2
Fore
SplineSet
393.5 744 m 4,0,1
 413.5 744 413.5 744 429 730.5 c 132,-1,2
 444.5 717 444.5 717 444.5 688 c 4,3,4
 444.5 660 444.5 660 429 646 c 132,-1,5
 413.5 632 413.5 632 393.5 632 c 4,6,7
 371.5 632 371.5 632 356.5 646 c 132,-1,8
 341.5 660 341.5 660 341.5 688 c 4,9,10
 341.5 717 341.5 717 356.5 730.5 c 132,-1,11
 371.5 744 371.5 744 393.5 744 c 4,0,1
135.5 536 m 1,12,-1
 229.5 536 l 1,13,-1
 345.5 231 l 2,14,15
 355.5 204 355.5 204 364 179 c 128,-1,16
 372.5 154 372.5 154 379.5 130.5 c 128,-1,17
 386.5 107 386.5 107 390.5 85 c 1,18,-1
 394.5 85 l 1,19,20
 400.5 110 400.5 110 413.5 150.5 c 128,-1,21
 426.5 191 426.5 191 440.5 232 c 2,22,-1
 549.5 536 l 1,23,-1
 644.5 536 l 1,24,-1
 413.5 -74 l 2,25,26
 394.5 -124 394.5 -124 369 -161.5 c 128,-1,27
 343.5 -199 343.5 -199 307 -219.5 c 128,-1,28
 270.5 -240 270.5 -240 218.5 -240 c 0,29,30
 194.5 -240 194.5 -240 176.5 -237.5 c 128,-1,31
 158.5 -235 158.5 -235 145.5 -232 c 1,32,-1
 145.5 -162 l 1,33,34
 156.5 -164 156.5 -164 172 -166 c 128,-1,35
 187.5 -168 187.5 -168 204.5 -168 c 0,36,37
 235.5 -168 235.5 -168 258 -156.5 c 128,-1,38
 280.5 -145 280.5 -145 296.5 -123.5 c 128,-1,39
 312.5 -102 312.5 -102 323.5 -73 c 2,40,-1
 351.5 -2 l 1,41,-1
 135.5 536 l 1,12,-1
EndSplineSet
EndChar

StartChar: Z
Encoding: 90 90 67
Width: 780
Flags: W
LayerCount: 2
Fore
SplineSet
179 0 m 1,0,-1
 179 56 l 1,1,-1
 482 499 l 1,2,-1
 190 499 l 1,3,-1
 190 572 l 1,4,-1
 593 572 l 1,5,-1
 593 515 l 1,6,-1
 290 73 l 1,7,-1
 601 73 l 1,8,-1
 601 0 l 1,9,-1
 179 0 l 1,0,-1
395 773 m 0,10,11
 415 773 415 773 430.5 759.5 c 128,-1,12
 446 746 446 746 446 717 c 0,13,14
 446 689 446 689 430.5 675 c 128,-1,15
 415 661 415 661 395 661 c 0,16,17
 373 661 373 661 358 675 c 128,-1,18
 343 689 343 689 343 717 c 0,19,20
 343 746 343 746 358 759.5 c 128,-1,21
 373 773 373 773 395 773 c 0,10,11
EndSplineSet
EndChar

StartChar: a
Encoding: 97 97 68
Width: 780
Flags: W
LayerCount: 2
Fore
SplineSet
337 -10 m 0,0,1
 237 -10 237 -10 177 59.5 c 128,-1,2
 117 129 117 129 117 267 c 256,3,4
 117 405 117 405 177.5 475.5 c 128,-1,5
 238 546 238 546 338 546 c 0,6,7
 400 546 400 546 439.5 523 c 128,-1,8
 479 500 479 500 504 467 c 1,9,-1
 508 467 l 1,10,-1
 522 536 l 1,11,-1
 592 536 l 1,12,-1
 592 118 l 2,13,14
 592 87 592 87 604 74.5 c 128,-1,15
 616 62 616 62 633 62 c 0,16,17
 641 62 641 62 650 64 c 128,-1,18
 659 66 659 66 663 67 c 1,19,-1
 663 3 l 1,20,21
 658 0 658 0 649 -3 c 128,-1,22
 640 -6 640 -6 629 -8 c 128,-1,23
 618 -10 618 -10 607 -10 c 0,24,25
 569 -10 569 -10 544 8 c 128,-1,26
 519 26 519 26 508 72 c 1,27,-1
 504 72 l 1,28,29
 480 38 480 38 440 14 c 128,-1,30
 400 -10 400 -10 337 -10 c 0,0,1
351 63 m 0,31,32
 408 63 408 63 441.5 83.5 c 128,-1,33
 475 104 475 104 490 146 c 128,-1,34
 505 188 505 188 505 250 c 2,35,-1
 505 266 l 2,36,37
 505 366 505 366 472 419.5 c 128,-1,38
 439 473 439 473 350 473 c 0,39,40
 279 473 279 473 243.5 416.5 c 128,-1,41
 208 360 208 360 208 265 c 0,42,43
 208 169 208 169 243.5 116 c 128,-1,44
 279 63 279 63 351 63 c 0,31,32
EndSplineSet
EndChar

StartChar: b
Encoding: 98 98 69
Width: 780
Flags: W
LayerCount: 2
Fore
SplineSet
682.5 551 m 1,0,-1
 579.5 551 l 1,1,-1
 579.5 0 l 1,2,-1
 498.5 0 l 1,3,-1
 498.5 201 l 1,4,-1
 513.5 175 l 1,5,6
 495.5 162 495.5 162 471 148.5 c 128,-1,7
 446.5 135 446.5 135 414 126.5 c 128,-1,8
 381.5 118 381.5 118 338.5 118 c 0,9,10
 282.5 118 282.5 118 238 139 c 128,-1,11
 193.5 160 193.5 160 168.5 197.5 c 128,-1,12
 143.5 235 143.5 235 143.5 286 c 0,13,14
 143.5 343 143.5 343 171 383 c 128,-1,15
 198.5 423 198.5 423 248 443.5 c 128,-1,16
 297.5 464 297.5 464 362.5 464 c 0,17,18
 376.5 464 376.5 464 396.5 462.5 c 128,-1,19
 416.5 461 416.5 461 436 459 c 128,-1,20
 455.5 457 455.5 457 466.5 454 c 1,21,-1
 460.5 385 l 1,22,23
 440.5 389 440.5 389 415.5 392 c 128,-1,24
 390.5 395 390.5 395 365.5 395 c 0,25,26
 299.5 395 299.5 395 262 367.5 c 128,-1,27
 224.5 340 224.5 340 224.5 287 c 0,28,29
 224.5 235 224.5 235 258 209.5 c 128,-1,30
 291.5 184 291.5 184 339.5 184 c 0,31,32
 380.5 184 380.5 184 413 197 c 128,-1,33
 445.5 210 445.5 210 470 230 c 128,-1,34
 494.5 250 494.5 250 511.5 271 c 1,35,-1
 498.5 220 l 1,36,-1
 498.5 551 l 1,37,-1
 97.5 551 l 1,38,-1
 97.5 622 l 1,39,-1
 682.5 622 l 1,40,-1
 682.5 551 l 1,0,-1
302.5 424 m 1,41,-1
 474.5 209 l 1,42,-1
 428.5 167 l 1,43,-1
 240.5 401 l 1,44,-1
 302.5 424 l 1,41,-1
EndSplineSet
EndChar

StartChar: c
Encoding: 99 99 70
Width: 780
Flags: W
AnchorPoint: "Anchor-1" 474.5 536 basechar 0
AnchorPoint: "Anchor-0" 474.5 0 basechar 0
LayerCount: 2
Fore
SplineSet
530.5 -10 m 0,0,1
 412.5 -10 412.5 -10 347.5 57 c 128,-1,2
 282.5 124 282.5 124 282.5 245 c 0,3,4
 282.5 325 282.5 325 311.5 380.5 c 128,-1,5
 340.5 436 340.5 436 394.5 465 c 1,6,-1
 92.5 465 l 5,7,-1
 92.5 537 l 5,8,-1
 687.5 537 l 1,9,-1
 687.5 465 l 1,10,-1
 574.5 465 l 2,11,12
 480.5 465 480.5 465 427 411.5 c 128,-1,13
 373.5 358 373.5 358 373.5 252 c 0,14,15
 373.5 165 373.5 165 416.5 114.5 c 128,-1,16
 459.5 64 459.5 64 539.5 64 c 0,17,18
 576.5 64 576.5 64 610.5 73.5 c 128,-1,19
 644.5 83 644.5 83 676.5 99 c 1,20,-1
 676.5 21 l 1,21,22
 647.5 5 647.5 5 612.5 -2.5 c 128,-1,23
 577.5 -10 577.5 -10 530.5 -10 c 0,0,1
EndSplineSet
EndChar

StartChar: d
Encoding: 100 100 71
Width: 780
Flags: W
AnchorPoint: "Anchor-2" 410 0 basechar 0
AnchorPoint: "Anchor-1" 424 0 basechar 0
AnchorPoint: "Anchor-0" 495 622 basechar 0
LayerCount: 2
Fore
SplineSet
452 222 m 0,0,1
 423 222 423 222 394 215 c 128,-1,2
 365 208 365 208 342 197 c 1,3,4
 311 216 311 216 285.5 239 c 128,-1,5
 260 262 260 262 245.5 290 c 128,-1,6
 231 318 231 318 231 352 c 0,7,8
 231 380 231 380 241 400 c 128,-1,9
 251 420 251 420 268 433 c 0,10,11
 283 445 283 445 301.5 452 c 128,-1,12
 320 459 320 459 344.5 462 c 128,-1,13
 369 465 369 465 402 465 c 2,14,-1
 495 465 l 1,15,-1
 495 551 l 1,16,-1
 94 551 l 1,17,-1
 94 622 l 1,18,-1
 686 622 l 1,19,-1
 686 551 l 1,20,-1
 576 551 l 1,21,-1
 576 394 l 1,22,-1
 392 394 l 2,23,24
 361 394 361 394 348 391 c 128,-1,25
 335 388 335 388 326 381 c 0,26,27
 319 375 319 375 315 366.5 c 128,-1,28
 311 358 311 358 311 347 c 0,29,30
 311 323 311 323 325 306.5 c 128,-1,31
 339 290 339 290 355 277 c 1,32,33
 378 285 378 285 404 289.5 c 128,-1,34
 430 294 430 294 456 294 c 0,35,36
 530 294 530 294 579 256.5 c 128,-1,37
 628 219 628 219 628 154 c 0,38,39
 628 109 628 109 606 74.5 c 128,-1,40
 584 40 584 40 540.5 20 c 128,-1,41
 497 0 497 0 431 0 c 0,42,43
 366 0 366 0 309.5 20 c 128,-1,44
 253 40 253 40 206 76 c 128,-1,45
 159 112 159 112 119 158 c 1,46,-1
 180 207 l 1,47,48
 237 139 237 139 296.5 106.5 c 128,-1,49
 356 74 356 74 431 74 c 0,50,51
 490 74 490 74 518.5 94.5 c 128,-1,52
 547 115 547 115 547 152 c 0,53,54
 547 187 547 187 522.5 204.5 c 128,-1,55
 498 222 498 222 452 222 c 0,0,1
EndSplineSet
EndChar

StartChar: e
Encoding: 101 101 72
Width: 780
Flags: W
LayerCount: 2
Fore
SplineSet
398 546 m 0,0,1
 467 546 467 546 516.5 516 c 128,-1,2
 566 486 566 486 592.5 431.5 c 128,-1,3
 619 377 619 377 619 304 c 2,4,-1
 619 251 l 1,5,-1
 252 251 l 1,6,7
 254 160 254 160 298.5 112.5 c 128,-1,8
 343 65 343 65 423 65 c 0,9,10
 474 65 474 65 513.5 74.5 c 128,-1,11
 553 84 553 84 595 102 c 1,12,-1
 595 25 l 1,13,14
 554 7 554 7 514 -1.5 c 128,-1,15
 474 -10 474 -10 419 -10 c 0,16,17
 343 -10 343 -10 284.5 21 c 128,-1,18
 226 52 226 52 193.5 113.5 c 128,-1,19
 161 175 161 175 161 264 c 0,20,21
 161 352 161 352 190.5 415 c 128,-1,22
 220 478 220 478 273.5 512 c 128,-1,23
 327 546 327 546 398 546 c 0,0,1
397 474 m 0,24,25
 334 474 334 474 297.5 433.5 c 128,-1,26
 261 393 261 393 254 321 c 1,27,-1
 527 321 l 1,28,29
 527 367 527 367 513 401 c 128,-1,30
 499 435 499 435 470.5 454.5 c 128,-1,31
 442 474 442 474 397 474 c 0,24,25
EndSplineSet
EndChar

StartChar: f
Encoding: 102 102 73
Width: 780
Flags: W
AnchorPoint: "Anchor-2" 438.5 0 basechar 0
AnchorPoint: "Anchor-1" 398.5 0 basechar 0
AnchorPoint: "Anchor-0" 398.5 622 basechar 0
LayerCount: 2
Fore
SplineSet
479.5 551 m 1,0,-1
 479.5 313 l 1,1,-1
 461.5 330 l 1,2,3
 489.5 363 489.5 363 522.5 381 c 128,-1,4
 555.5 399 555.5 399 597.5 399 c 0,5,6
 662.5 399 662.5 399 703.5 357.5 c 128,-1,7
 744.5 316 744.5 316 744.5 239 c 0,8,9
 744.5 193 744.5 193 729.5 141 c 128,-1,10
 714.5 89 714.5 89 679.5 39 c 1,11,-1
 607.5 80 l 1,12,13
 632.5 112 632.5 112 648.5 154 c 128,-1,14
 664.5 196 664.5 196 664.5 237 c 0,15,16
 664.5 284 664.5 284 644.5 307 c 128,-1,17
 624.5 330 624.5 330 589.5 330 c 0,18,19
 569.5 330 569.5 330 547.5 318.5 c 128,-1,20
 525.5 307 525.5 307 503.5 284.5 c 128,-1,21
 481.5 262 481.5 262 459.5 230 c 1,22,-1
 479.5 293 l 1,23,-1
 479.5 0 l 1,24,-1
 398.5 0 l 1,25,-1
 398.5 229 l 1,26,-1
 414.5 206 l 1,27,28
 389.5 184 389.5 184 354 165 c 128,-1,29
 318.5 146 318.5 146 267.5 146 c 0,30,31
 227.5 146 227.5 146 195.5 160.5 c 128,-1,32
 163.5 175 163.5 175 144.5 197 c 0,33,34
 128.5 216 128.5 216 118 238 c 128,-1,35
 107.5 260 107.5 260 103 288 c 128,-1,36
 98.5 316 98.5 316 98.5 354 c 2,37,-1
 98.5 551 l 1,38,-1
 35.5 551 l 5,39,-1
 35.5 622 l 5,40,-1
 722.5 622 l 1,41,-1
 722.5 551 l 1,42,-1
 479.5 551 l 1,0,-1
179.5 551 m 1,43,-1
 179.5 360 l 2,44,45
 179.5 305 179.5 305 185.5 281 c 128,-1,46
 191.5 257 191.5 257 207.5 240 c 0,47,48
 218.5 228 218.5 228 233.5 222.5 c 128,-1,49
 248.5 217 248.5 217 267.5 217 c 0,50,51
 300.5 217 300.5 217 326.5 227.5 c 128,-1,52
 352.5 238 352.5 238 375 256.5 c 128,-1,53
 397.5 275 397.5 275 416.5 297 c 1,54,-1
 398.5 243 l 1,55,-1
 398.5 551 l 1,56,-1
 179.5 551 l 1,43,-1
EndSplineSet
EndChar

StartChar: g
Encoding: 103 103 74
Width: 780
Flags: W
LayerCount: 2
Fore
SplineSet
372.5 546 m 0,0,1
 425.5 546 425.5 546 468 526 c 128,-1,2
 510.5 506 510.5 506 540.5 465 c 1,3,-1
 545.5 465 l 1,4,-1
 557.5 536 l 1,5,-1
 627.5 536 l 1,6,-1
 627.5 -9 l 2,7,8
 627.5 -85 627.5 -85 601.5 -136.5 c 128,-1,9
 575.5 -188 575.5 -188 522.5 -214 c 128,-1,10
 469.5 -240 469.5 -240 387.5 -240 c 0,11,12
 329.5 -240 329.5 -240 281 -231.5 c 128,-1,13
 232.5 -223 232.5 -223 194.5 -206 c 1,14,-1
 194.5 -125 l 1,15,16
 232.5 -145 232.5 -145 283.5 -156 c 128,-1,17
 334.5 -167 334.5 -167 392.5 -167 c 0,18,19
 461.5 -167 461.5 -167 501 -126.5 c 128,-1,20
 540.5 -86 540.5 -86 540.5 -16 c 2,21,-1
 540.5 5 l 2,22,23
 540.5 17 540.5 17 541.5 39.5 c 128,-1,24
 542.5 62 542.5 62 543.5 71 c 1,25,-1
 539.5 71 l 1,26,27
 511.5 30 511.5 30 470 10 c 128,-1,28
 428.5 -10 428.5 -10 373.5 -10 c 0,29,30
 269.5 -10 269.5 -10 211 63 c 128,-1,31
 152.5 136 152.5 136 152.5 267 c 0,32,33
 152.5 395 152.5 395 211 470.5 c 128,-1,34
 269.5 546 269.5 546 372.5 546 c 0,0,1
384.5 472 m 0,35,36
 339.5 472 339.5 472 308 448 c 128,-1,37
 276.5 424 276.5 424 260 378 c 128,-1,38
 243.5 332 243.5 332 243.5 266 c 0,39,40
 243.5 167 243.5 167 280 114.5 c 128,-1,41
 316.5 62 316.5 62 386.5 62 c 0,42,43
 427.5 62 427.5 62 456.5 72.5 c 128,-1,44
 485.5 83 485.5 83 504.5 105.5 c 128,-1,45
 523.5 128 523.5 128 532.5 163 c 128,-1,46
 541.5 198 541.5 198 541.5 246 c 2,47,-1
 541.5 267 l 2,48,49
 541.5 340 541.5 340 525 385 c 128,-1,50
 508.5 430 508.5 430 473.5 451 c 128,-1,51
 438.5 472 438.5 472 384.5 472 c 0,35,36
EndSplineSet
EndChar

StartChar: h
Encoding: 104 104 75
Width: 780
Flags: W
LayerCount: 2
Fore
SplineSet
252 537 m 6,0,1
 252 518 252 518 250.5 498 c 132,-1,2
 249 478 249 478 247 462 c 5,3,-1
 253 462 l 5,4,5
 270 490 270 490 296 508 c 132,-1,6
 322 526 322 526 354 535.5 c 132,-1,7
 386 545 386 545 420 545 c 4,8,9
 485 545 485 545 528.5 524.5 c 132,-1,10
 572 504 572 504 594 461 c 132,-1,11
 616 418 616 418 616 349 c 6,12,-1
 616 0 l 5,13,-1
 529 0 l 5,14,-1
 529 343 l 6,15,16
 529 408 529 408 500 440 c 132,-1,17
 471 472 471 472 409 472 c 4,18,19
 349 472 349 472 315 449.5 c 132,-1,20
 281 427 281 427 266.5 383.5 c 132,-1,21
 252 340 252 340 252 277 c 6,22,-1
 252 0 l 5,23,-1
 164 0 l 5,24,-1
 164 760 l 5,25,-1
 252 760 l 5,26,-1
 252 537 l 6,0,1
EndSplineSet
EndChar

StartChar: i
Encoding: 105 105 76
Width: 780
Flags: W
LayerCount: 2
Fore
SplineSet
433.5 536 m 1,0,-1
 433.5 0 l 1,1,-1
 345.5 0 l 1,2,-1
 345.5 536 l 1,3,-1
 433.5 536 l 1,0,-1
390.5 737 m 0,4,5
 410.5 737 410.5 737 426 723.5 c 128,-1,6
 441.5 710 441.5 710 441.5 681 c 0,7,8
 441.5 653 441.5 653 426 639 c 128,-1,9
 410.5 625 410.5 625 390.5 625 c 0,10,11
 368.5 625 368.5 625 353.5 639 c 128,-1,12
 338.5 653 338.5 653 338.5 681 c 0,13,14
 338.5 710 338.5 710 353.5 723.5 c 128,-1,15
 368.5 737 368.5 737 390.5 737 c 0,4,5
EndSplineSet
Substitution2: "Single Substitution lookup 127 subtable" dotlessi
Substitution2: "Single Substitution lookup 126 subtable" dotlessi
EndChar

StartChar: j
Encoding: 106 106 77
Width: 780
Flags: W
AnchorPoint: "Anchor-1" 390 536 basechar 0
AnchorPoint: "Anchor-0" 390 0 basechar 0
LayerCount: 2
Fore
SplineSet
579 536 m 1,0,-1
 579 470 l 1,1,-1
 468 313 l 1,2,-1
 569 313 l 1,3,-1
 569 243 l 1,4,-1
 418 243 l 1,5,-1
 295 68 l 1,6,-1
 586 68 l 1,7,-1
 586 0 l 1,8,-1
 194 0 l 1,9,-1
 194 58 l 1,10,-1
 324 243 l 1,11,-1
 212 243 l 1,12,-1
 212 313 l 1,13,-1
 373 313 l 1,14,-1
 482 468 l 1,15,-1
 211 468 l 1,16,-1
 211 536 l 1,17,-1
 579 536 l 1,0,-1
EndSplineSet
Substitution2: "Single Substitution lookup 127 subtable" uni0237
Substitution2: "Single Substitution lookup 126 subtable" uni0237
EndChar

StartChar: k
Encoding: 107 107 78
Width: 780
Flags: W
LayerCount: 2
Fore
SplineSet
257 363 m 2,0,1
 257 347 257 347 255.5 321 c 128,-1,2
 254 295 254 295 253 276 c 1,3,-1
 257 276 l 1,4,5
 263 284 263 284 275 299 c 128,-1,6
 287 314 287 314 299.5 329.5 c 128,-1,7
 312 345 312 345 321 355 c 2,8,-1
 492 536 l 1,9,-1
 595 536 l 1,10,-1
 378 307 l 1,11,-1
 610 0 l 1,12,-1
 504 0 l 1,13,-1
 318 250 l 1,14,-1
 257 197 l 1,15,-1
 257 0 l 1,16,-1
 170 0 l 1,17,-1
 170 760 l 1,18,-1
 257 760 l 1,19,-1
 257 363 l 2,0,1
EndSplineSet
EndChar

StartChar: l
Encoding: 108 108 79
Width: 780
Flags: W
LayerCount: 2
Fore
SplineSet
43.5 551 m 1,0,-1
 43.5 622 l 1,1,-1
 736.5 622 l 1,2,-1
 736.5 551 l 1,3,-1
 632.5 551 l 1,4,-1
 632.5 0 l 1,5,-1
 551.5 0 l 1,6,-1
 551.5 377 l 1,7,-1
 595.5 341 l 1,8,9
 578.5 351 578.5 351 564 353.5 c 128,-1,10
 549.5 356 549.5 356 537.5 356 c 0,11,12
 513.5 356 513.5 356 488.5 344 c 128,-1,13
 463.5 332 463.5 332 440.5 300.5 c 128,-1,14
 417.5 269 417.5 269 399.5 208 c 1,15,-1
 322.5 232 l 1,16,17
 347.5 327 347.5 327 405 376.5 c 128,-1,18
 462.5 426 462.5 426 542.5 426 c 0,19,20
 559.5 426 559.5 426 576.5 423 c 128,-1,21
 593.5 420 593.5 420 605.5 416 c 1,22,-1
 608.5 394 l 1,23,-1
 551.5 413 l 1,24,-1
 551.5 551 l 1,25,-1
 43.5 551 l 1,0,-1
380.5 292 m 1,26,27
 349.5 318 349.5 318 320 335.5 c 128,-1,28
 290.5 353 290.5 353 252.5 353 c 0,29,30
 212.5 353 212.5 353 191 330 c 128,-1,31
 169.5 307 169.5 307 169.5 271 c 0,32,33
 169.5 233 169.5 233 191 198.5 c 128,-1,34
 212.5 164 212.5 164 253.5 126.5 c 128,-1,35
 294.5 89 294.5 89 352.5 40 c 1,36,-1
 298.5 -12 l 1,37,38
 240.5 38 240.5 38 192.5 83.5 c 128,-1,39
 144.5 129 144.5 129 116.5 175.5 c 128,-1,40
 88.5 222 88.5 222 88.5 275 c 0,41,42
 88.5 315 88.5 315 103 343.5 c 128,-1,43
 117.5 372 117.5 372 141 390.5 c 128,-1,44
 164.5 409 164.5 409 192.5 417.5 c 128,-1,45
 220.5 426 220.5 426 247.5 426 c 0,46,47
 280.5 426 280.5 426 308.5 418 c 128,-1,48
 336.5 410 336.5 410 362.5 394.5 c 128,-1,49
 388.5 379 388.5 379 412.5 357 c 1,50,-1
 380.5 292 l 1,26,27
EndSplineSet
EndChar

StartChar: m
Encoding: 109 109 80
Width: 780
Flags: W
LayerCount: 2
Fore
SplineSet
593 551 m 1,0,-1
 593 0 l 1,1,-1
 512 0 l 1,2,-1
 512 250 l 1,3,-1
 291 250 l 1,4,-1
 291 213 l 2,5,6
 291 180 291 180 276.5 165.5 c 128,-1,7
 262 151 262 151 243 151 c 256,8,9
 224 151 224 151 203 163.5 c 128,-1,10
 182 176 182 176 164 195.5 c 128,-1,11
 146 215 146 215 134.5 237 c 128,-1,12
 123 259 123 259 123 278 c 0,13,14
 123 296 123 296 136.5 308.5 c 128,-1,15
 150 321 150 321 184 321 c 2,16,-1
 210 321 l 1,17,-1
 210 551 l 1,18,-1
 84 551 l 1,19,-1
 84 622 l 1,20,-1
 696 622 l 1,21,-1
 696 551 l 1,22,-1
 593 551 l 1,0,-1
512 551 m 1,23,-1
 291 551 l 1,24,-1
 291 321 l 1,25,-1
 512 321 l 1,26,-1
 512 551 l 1,23,-1
EndSplineSet
EndChar

StartChar: n
Encoding: 110 110 81
Width: 780
Flags: W
LayerCount: 2
Fore
SplineSet
105.5 622 m 1,0,-1
 674.5 622 l 1,1,-1
 674.5 551 l 1,2,-1
 571.5 551 l 1,3,-1
 571.5 0 l 1,4,-1
 490.5 0 l 1,5,-1
 490.5 298 l 1,6,-1
 309.5 298 l 1,7,-1
 309.5 244 l 2,8,9
 309.5 216 309.5 216 295.5 202 c 128,-1,10
 281.5 188 281.5 188 258.5 188 c 0,11,12
 240.5 188 240.5 188 220 200 c 128,-1,13
 199.5 212 199.5 212 182 232 c 128,-1,14
 164.5 252 164.5 252 153.5 274.5 c 128,-1,15
 142.5 297 142.5 297 142.5 318 c 0,16,17
 142.5 341 142.5 341 156 355 c 128,-1,18
 169.5 369 169.5 369 203.5 369 c 2,19,-1
 490.5 369 l 1,20,-1
 490.5 551 l 1,21,-1
 105.5 551 l 1,22,-1
 105.5 622 l 1,0,-1
EndSplineSet
EndChar

StartChar: o
Encoding: 111 111 82
Width: 780
Flags: W
LayerCount: 2
Fore
SplineSet
638 269 m 0,0,1
 638 202 638 202 620.5 150.5 c 128,-1,2
 603 99 603 99 570.5 63 c 128,-1,3
 538 27 538 27 491.5 8.5 c 128,-1,4
 445 -10 445 -10 388 -10 c 0,5,6
 335 -10 335 -10 290 8.5 c 128,-1,7
 245 27 245 27 212 63 c 128,-1,8
 179 99 179 99 160.5 150.5 c 128,-1,9
 142 202 142 202 142 269 c 0,10,11
 142 358 142 358 172 419.5 c 128,-1,12
 202 481 202 481 258 513.5 c 128,-1,13
 314 546 314 546 391 546 c 0,14,15
 464 546 464 546 519.5 513.5 c 128,-1,16
 575 481 575 481 606.5 419.5 c 128,-1,17
 638 358 638 358 638 269 c 0,0,1
233 269 m 0,18,19
 233 206 233 206 249.5 159.5 c 128,-1,20
 266 113 266 113 301 88 c 128,-1,21
 336 63 336 63 390 63 c 256,22,23
 444 63 444 63 479 88 c 128,-1,24
 514 113 514 113 530.5 159.5 c 128,-1,25
 547 206 547 206 547 269 c 0,26,27
 547 333 547 333 530 378 c 128,-1,28
 513 423 513 423 478.5 447.5 c 128,-1,29
 444 472 444 472 389 472 c 0,30,31
 307 472 307 472 270 418 c 128,-1,32
 233 364 233 364 233 269 c 0,18,19
EndSplineSet
EndChar

StartChar: p
Encoding: 112 112 83
Width: 780
Flags: W
LayerCount: 2
Fore
SplineSet
577.5 551 m 1,0,-1
 577.5 0 l 1,1,-1
 496.5 0 l 1,2,-1
 496.5 227 l 1,3,-1
 515.5 203 l 1,4,5
 494.5 189 494.5 189 470.5 175.5 c 128,-1,6
 446.5 162 446.5 162 418 154 c 128,-1,7
 389.5 146 389.5 146 352.5 146 c 0,8,9
 312.5 146 312.5 146 280 159.5 c 128,-1,10
 247.5 173 247.5 173 226.5 194 c 0,11,12
 209.5 212 209.5 212 198.5 233.5 c 128,-1,13
 187.5 255 187.5 255 182.5 285 c 128,-1,14
 177.5 315 177.5 315 177.5 358 c 2,15,-1
 177.5 551 l 1,16,-1
 98.5 551 l 1,17,-1
 98.5 622 l 1,18,-1
 681.5 622 l 1,19,-1
 681.5 551 l 1,20,-1
 577.5 551 l 1,0,-1
496.5 551 m 1,21,-1
 258.5 551 l 1,22,-1
 258.5 369 l 2,23,24
 258.5 328 258.5 328 261.5 304 c 128,-1,25
 264.5 280 264.5 280 271 265.5 c 128,-1,26
 277.5 251 277.5 251 288.5 240 c 0,27,28
 300.5 228 300.5 228 318.5 222.5 c 128,-1,29
 336.5 217 336.5 217 361.5 217 c 0,30,31
 392.5 217 392.5 217 421 229 c 128,-1,32
 449.5 241 449.5 241 473 259.5 c 128,-1,33
 496.5 278 496.5 278 512.5 298 c 1,34,-1
 496.5 246 l 1,35,-1
 496.5 551 l 1,21,-1
EndSplineSet
EndChar

StartChar: q
Encoding: 113 113 84
Width: 780
Flags: W
AnchorPoint: "Anchor-1" 352 765 basechar 0
AnchorPoint: "Anchor-0" 352 0 basechar 0
LayerCount: 2
Fore
SplineSet
291 765 m 0,0,1
 310 765 310 765 328 761 c 128,-1,2
 346 757 346 757 356 752 c 1,3,-1
 356 679 l 1,4,5
 349 682 349 682 335 685.5 c 128,-1,6
 321 689 321 689 304 689 c 0,7,8
 282 689 282 689 269.5 676 c 128,-1,9
 257 663 257 663 257 631 c 2,10,-1
 257 363 l 2,11,12
 257 347 257 347 256 321 c 128,-1,13
 255 295 255 295 253 276 c 1,14,-1
 257 276 l 1,15,16
 263 285 263 285 275 299.5 c 128,-1,17
 287 314 287 314 299.5 329.5 c 128,-1,18
 312 345 312 345 321 355 c 2,19,-1
 492 536 l 1,20,-1
 595 536 l 1,21,-1
 378 307 l 1,22,-1
 610 0 l 1,23,-1
 504 0 l 1,24,-1
 318 250 l 1,25,-1
 257 197 l 1,26,-1
 257 0 l 1,27,-1
 170 0 l 1,28,-1
 170 625 l 2,29,30
 170 765 170 765 291 765 c 0,0,1
EndSplineSet
EndChar

StartChar: r
Encoding: 114 114 85
Width: 780
Flags: W
AnchorPoint: "Anchor-2" 383 0 basechar 0
AnchorPoint: "Anchor-1" 394 0 basechar 0
LayerCount: 2
Fore
SplineSet
462 551 m 1,0,-1
 490 566 l 1,1,2
 501 550 501 550 507.5 523 c 128,-1,3
 514 496 514 496 514 458 c 0,4,5
 514 402 514 402 491 363.5 c 128,-1,6
 468 325 468 325 428 298 c 128,-1,7
 388 271 388 271 337 251 c 1,8,-1
 341 259 l 1,9,10
 371 224 371 224 408.5 186.5 c 128,-1,11
 446 149 446 149 488 112.5 c 128,-1,12
 530 76 530 76 573 42 c 1,13,-1
 519 -12 l 1,14,15
 460 37 460 37 408 87 c 128,-1,16
 356 137 356 137 316 181 c 128,-1,17
 276 225 276 225 253 256 c 0,18,19
 231 287 231 287 224.5 305 c 128,-1,20
 218 323 218 323 218 340 c 0,21,22
 218 359 218 359 233 376 c 128,-1,23
 248 393 248 393 282 393 c 0,24,25
 320 393 320 393 344 368 c 128,-1,26
 368 343 368 343 387 300 c 1,27,-1
 325 335 l 1,28,29
 382 354 382 354 408 387.5 c 128,-1,30
 434 421 434 421 434 468 c 0,31,32
 434 497 434 497 426.5 525.5 c 128,-1,33
 419 554 419 554 408 565 c 1,34,-1
 453 551 l 1,35,-1
 178 551 l 1,36,-1
 178 622 l 1,37,-1
 602 622 l 1,38,-1
 602 551 l 1,39,-1
 462 551 l 1,0,-1
EndSplineSet
EndChar

StartChar: s
Encoding: 115 115 86
Width: 780
Flags: W
LayerCount: 2
Fore
SplineSet
289.5 551 m 1,0,-1
 317.5 566 l 1,1,2
 328.5 550 328.5 550 335.5 523 c 128,-1,3
 342.5 496 342.5 496 342.5 458 c 0,4,5
 342.5 414 342.5 414 332 381.5 c 128,-1,6
 321.5 349 321.5 349 302.5 328 c 1,7,-1
 301.5 319 l 1,8,9
 283.5 296 283.5 296 259 279 c 128,-1,10
 234.5 262 234.5 262 203.5 250 c 1,11,-1
 207.5 259 l 1,12,13
 248.5 206 248.5 206 305 149 c 128,-1,14
 361.5 92 361.5 92 424.5 42 c 1,15,-1
 370.5 -12 l 1,16,17
 314.5 37 314.5 37 265 87 c 128,-1,18
 215.5 137 215.5 137 177.5 181 c 128,-1,19
 139.5 225 139.5 225 117.5 256 c 256,20,21
 95.5 287 95.5 287 90 305 c 128,-1,22
 84.5 323 84.5 323 84.5 340 c 0,23,24
 84.5 359 84.5 359 99.5 376 c 128,-1,25
 114.5 393 114.5 393 148.5 393 c 0,26,27
 173.5 393 173.5 393 192 381.5 c 128,-1,28
 210.5 370 210.5 370 225.5 349.5 c 128,-1,29
 240.5 329 240.5 329 253.5 300 c 1,30,-1
 192.5 331 l 1,31,32
 220.5 339 220.5 339 235 359 c 128,-1,33
 249.5 379 249.5 379 255.5 405.5 c 128,-1,34
 261.5 432 261.5 432 261.5 458 c 0,35,36
 261.5 496 261.5 496 254.5 523.5 c 128,-1,37
 247.5 551 247.5 551 238.5 564 c 1,38,-1
 281.5 551 l 1,39,-1
 44.5 551 l 1,40,-1
 44.5 622 l 1,41,-1
 461.5 622 l 1,42,-1
 461.5 551 l 1,43,-1
 289.5 551 l 1,0,-1
631.5 551 m 1,44,-1
 631.5 0 l 1,45,-1
 550.5 0 l 1,46,-1
 550.5 551 l 1,47,-1
 440.5 551 l 1,48,-1
 440.5 622 l 1,49,-1
 735.5 622 l 1,50,-1
 735.5 551 l 1,51,-1
 631.5 551 l 1,44,-1
413.5 322 m 0,52,53
 447.5 322 447.5 322 475.5 325 c 128,-1,54
 503.5 328 503.5 328 531.5 334.5 c 128,-1,55
 559.5 341 559.5 341 591.5 353 c 1,56,-1
 591.5 280 l 1,57,58
 548.5 263 548.5 263 513 257 c 128,-1,59
 477.5 251 477.5 251 424.5 251 c 0,60,61
 391.5 251 391.5 251 355 255.5 c 128,-1,62
 318.5 260 318.5 260 286.5 268.5 c 128,-1,63
 254.5 277 254.5 277 234.5 287 c 1,64,-1
 254.5 347 l 1,65,66
 274.5 340 274.5 340 300.5 334 c 128,-1,67
 326.5 328 326.5 328 355.5 325 c 128,-1,68
 384.5 322 384.5 322 413.5 322 c 0,52,53
EndSplineSet
EndChar

StartChar: t
Encoding: 116 116 87
Width: 780
Flags: W
AnchorPoint: "Anchor-2" 407.5 0 basechar 0
AnchorPoint: "Anchor-1" 420.5 0 basechar 0
AnchorPoint: "Anchor-0" 420.5 622 basechar 0
LayerCount: 2
Fore
SplineSet
649.5 551 m 1,0,-1
 501.5 551 l 1,1,-1
 501.5 349 l 1,2,-1
 446.5 349 l 2,3,4
 398.5 349 398.5 349 366.5 341 c 128,-1,5
 334.5 333 334.5 333 311.5 318 c 0,6,7
 285.5 300 285.5 300 271 274 c 128,-1,8
 256.5 248 256.5 248 256.5 215 c 0,9,10
 256.5 167 256.5 167 278.5 135.5 c 128,-1,11
 300.5 104 300.5 104 336 89 c 128,-1,12
 371.5 74 371.5 74 413.5 74 c 0,13,14
 467.5 74 467.5 74 505.5 86.5 c 128,-1,15
 543.5 99 543.5 99 585.5 121 c 1,16,-1
 612.5 47 l 1,17,18
 568.5 27 568.5 27 519 13.5 c 128,-1,19
 469.5 0 469.5 0 416.5 0 c 0,20,21
 347.5 0 347.5 0 293 26 c 128,-1,22
 238.5 52 238.5 52 207.5 101 c 128,-1,23
 176.5 150 176.5 150 176.5 220 c 0,24,25
 176.5 285 176.5 285 210.5 329.5 c 128,-1,26
 244.5 374 244.5 374 300 397 c 128,-1,27
 355.5 420 355.5 420 418.5 420 c 2,28,-1
 423.5 420 l 1,29,-1
 420.5 416 l 1,30,-1
 420.5 551 l 1,31,-1
 130.5 551 l 1,32,-1
 130.5 622 l 1,33,-1
 649.5 622 l 1,34,-1
 649.5 551 l 1,0,-1
EndSplineSet
EndChar

StartChar: u
Encoding: 117 117 88
Width: 780
Flags: W
LayerCount: 2
Fore
SplineSet
617 536 m 1,0,-1
 617 0 l 1,1,-1
 545 0 l 1,2,-1
 532 71 l 1,3,-1
 528 71 l 1,4,5
 511 43 511 43 484 25 c 128,-1,6
 457 7 457 7 425 -1.5 c 128,-1,7
 393 -10 393 -10 358 -10 c 0,8,9
 294 -10 294 -10 250.5 10.5 c 128,-1,10
 207 31 207 31 185 74 c 128,-1,11
 163 117 163 117 163 185 c 2,12,-1
 163 536 l 1,13,-1
 252 536 l 1,14,-1
 252 191 l 2,15,16
 252 127 252 127 281 95 c 128,-1,17
 310 63 310 63 371 63 c 0,18,19
 431 63 431 63 465.5 85.5 c 128,-1,20
 500 108 500 108 514.5 151.5 c 128,-1,21
 529 195 529 195 529 257 c 2,22,-1
 529 536 l 1,23,-1
 617 536 l 1,0,-1
EndSplineSet
EndChar

StartChar: v
Encoding: 118 118 89
Width: 780
Flags: W
LayerCount: 2
Fore
SplineSet
339 0 m 1,0,-1
 136 536 l 1,1,-1
 230 536 l 1,2,-1
 344 220 l 2,3,4
 352 198 352 198 361 171 c 128,-1,5
 370 144 370 144 377 119.5 c 128,-1,6
 384 95 384 95 387 78 c 1,7,-1
 391 78 l 1,8,9
 395 95 395 95 402.5 120 c 128,-1,10
 410 145 410 145 419.5 172 c 128,-1,11
 429 199 429 199 436 220 c 2,12,-1
 550 536 l 1,13,-1
 644 536 l 1,14,-1
 440 0 l 1,15,-1
 339 0 l 1,0,-1
EndSplineSet
EndChar

StartChar: w
Encoding: 119 119 90
Width: 780
Flags: W
AnchorPoint: "Anchor-1" 380.5 536 basechar 0
AnchorPoint: "Anchor-0" 379.5 0 basechar 0
LayerCount: 2
Fore
SplineSet
319.5 766 m 5,0,1
 330.5 744 330.5 744 347 716.5 c 132,-1,2
 363.5 689 363.5 689 382 663 c 132,-1,3
 400.5 637 400.5 637 415.5 618 c 5,4,-1
 415.5 606 l 5,5,-1
 356.5 606 l 5,6,7
 339.5 620 339.5 620 318.5 639.5 c 132,-1,8
 297.5 659 297.5 659 277 680.5 c 132,-1,9
 256.5 702 256.5 702 240 722 c 132,-1,10
 223.5 742 223.5 742 214.5 756 c 5,11,-1
 214.5 766 l 5,12,-1
 319.5 766 l 5,0,1
617.5 541 m 0,13,14
 629.5 541 629.5 541 639.5 539 c 128,-1,15
 649.5 537 649.5 537 658.5 535 c 1,16,-1
 658.5 467 l 1,17,18
 645.5 472 645.5 472 624.5 472 c 0,19,20
 602.5 472 602.5 472 588.5 452 c 128,-1,21
 574.5 432 574.5 432 560.5 390 c 2,22,-1
 437.5 0 l 1,23,-1
 320.5 0 l 1,24,-1
 121.5 536 l 1,25,-1
 213.5 536 l 1,26,-1
 340.5 181 l 2,27,28
 355.5 139 355.5 139 365.5 107.5 c 128,-1,29
 375.5 76 375.5 76 377.5 62 c 1,30,-1
 381.5 62 l 1,31,32
 385.5 83 385.5 83 393.5 119 c 128,-1,33
 401.5 155 401.5 155 412.5 189 c 2,34,-1
 482.5 407 l 2,35,36
 499.5 459 499.5 459 516 488 c 128,-1,37
 532.5 517 532.5 517 556 529 c 128,-1,38
 579.5 541 579.5 541 617.5 541 c 0,13,14
EndSplineSet
EndChar

StartChar: x
Encoding: 120 120 91
Width: 780
Flags: W
LayerCount: 2
Fore
SplineSet
337.5 274 m 1,0,-1
 152.5 536 l 1,1,-1
 252.5 536 l 1,2,-1
 390.5 334 l 1,3,-1
 527.5 536 l 1,4,-1
 626.5 536 l 1,5,-1
 441.5 274 l 1,6,-1
 636.5 0 l 1,7,-1
 536.5 0 l 1,8,-1
 390.5 214 l 1,9,-1
 242.5 0 l 1,10,-1
 143.5 0 l 1,11,-1
 337.5 274 l 1,0,-1
EndSplineSet
EndChar

StartChar: y
Encoding: 121 121 92
Width: 780
Flags: W
LayerCount: 2
Fore
SplineSet
687.5 622 m 1,0,-1
 687.5 551 l 1,1,-1
 583.5 551 l 1,2,-1
 583.5 0 l 1,3,-1
 502.5 0 l 1,4,-1
 502.5 216 l 1,5,-1
 518.5 191 l 1,6,7
 500.5 177 500.5 177 475 163 c 128,-1,8
 449.5 149 449.5 149 417 140.5 c 128,-1,9
 384.5 132 384.5 132 345.5 132 c 0,10,11
 285.5 132 285.5 132 240.5 159.5 c 128,-1,12
 195.5 187 195.5 187 168 237 c 128,-1,13
 140.5 287 140.5 287 130.5 353 c 1,14,15
 192.5 366 192.5 366 222.5 389.5 c 128,-1,16
 252.5 413 252.5 413 252.5 457 c 0,17,18
 252.5 492 252.5 492 236 520 c 128,-1,19
 219.5 548 219.5 548 202.5 566 c 1,20,-1
 251.5 551 l 1,21,-1
 92.5 551 l 1,22,-1
 92.5 622 l 1,23,-1
 687.5 622 l 1,0,-1
267.5 551 m 1,24,-1
 290.5 572 l 1,25,26
 310.5 544 310.5 544 321.5 510.5 c 128,-1,27
 332.5 477 332.5 477 332.5 445 c 0,28,29
 332.5 393 332.5 393 305 356 c 128,-1,30
 277.5 319 277.5 319 221.5 301 c 1,31,32
 241.5 252 241.5 252 272 227.5 c 128,-1,33
 302.5 203 302.5 203 351.5 203 c 0,34,35
 408.5 203 408.5 203 449.5 230.5 c 128,-1,36
 490.5 258 490.5 258 517.5 292 c 1,37,-1
 502.5 239 l 1,38,-1
 502.5 551 l 1,39,-1
 267.5 551 l 1,24,-1
EndSplineSet
EndChar

StartChar: z
Encoding: 122 122 93
Width: 780
Flags: W
LayerCount: 2
Fore
SplineSet
586 0 m 1,0,-1
 194 0 l 1,1,-1
 194 58 l 1,2,-1
 482 468 l 1,3,-1
 211 468 l 1,4,-1
 211 536 l 1,5,-1
 579 536 l 1,6,-1
 579 470 l 1,7,-1
 295 68 l 1,8,-1
 586 68 l 1,9,-1
 586 0 l 1,0,-1
EndSplineSet
EndChar

StartChar: at
Encoding: 64 64 94
Width: 780
Flags: W
LayerCount: 2
Fore
SplineSet
781.5 357 m 0,0,1
 781.5 311 781.5 311 771 267 c 128,-1,2
 760.5 223 760.5 223 738.5 187.5 c 128,-1,3
 716.5 152 716.5 152 684.5 130.5 c 128,-1,4
 652.5 109 652.5 109 608.5 109 c 0,5,6
 562.5 109 562.5 109 536 135.5 c 128,-1,7
 509.5 162 509.5 162 503.5 196 c 1,8,-1
 498.5 196 l 1,9,10
 480.5 159 480.5 159 445.5 134 c 128,-1,11
 410.5 109 410.5 109 357.5 109 c 0,12,13
 281.5 109 281.5 109 240 160 c 128,-1,14
 198.5 211 198.5 211 198.5 295 c 0,15,16
 198.5 361 198.5 361 224.5 411.5 c 128,-1,17
 250.5 462 250.5 462 298 491 c 128,-1,18
 345.5 520 345.5 520 410.5 520 c 0,19,20
 454.5 520 454.5 520 497 512.5 c 128,-1,21
 539.5 505 539.5 505 563.5 496 c 1,22,-1
 553.5 293 l 2,23,24
 552.5 275 552.5 275 552.5 267.5 c 128,-1,25
 552.5 260 552.5 260 552.5 257 c 0,26,27
 552.5 205 552.5 205 571 188 c 128,-1,28
 589.5 171 589.5 171 614.5 171 c 0,29,30
 645.5 171 645.5 171 667 196.5 c 128,-1,31
 688.5 222 688.5 222 700 264.5 c 128,-1,32
 711.5 307 711.5 307 711.5 358 c 0,33,34
 711.5 451 711.5 451 674 515.5 c 128,-1,35
 636.5 580 636.5 580 571 614 c 128,-1,36
 505.5 648 505.5 648 422.5 648 c 0,37,38
 337.5 648 337.5 648 271.5 621 c 128,-1,39
 205.5 594 205.5 594 161 545 c 128,-1,40
 116.5 496 116.5 496 93.5 429.5 c 128,-1,41
 70.5 363 70.5 363 70.5 283 c 0,42,43
 70.5 185 70.5 185 105.5 116.5 c 128,-1,44
 140.5 48 140.5 48 208 12.5 c 128,-1,45
 275.5 -23 275.5 -23 373.5 -23 c 0,46,47
 434.5 -23 434.5 -23 490 -9.5 c 128,-1,48
 545.5 4 545.5 4 588.5 20 c 1,49,-1
 588.5 -48 l 1,50,51
 545.5 -66 545.5 -66 492 -77.5 c 128,-1,52
 438.5 -89 438.5 -89 373.5 -89 c 0,53,54
 255.5 -89 255.5 -89 171.5 -45 c 128,-1,55
 87.5 -1 87.5 -1 43 81.5 c 128,-1,56
 -1.5 164 -1.5 164 -1.5 280 c 0,57,58
 -1.5 373 -1.5 373 27.5 452.5 c 128,-1,59
 56.5 532 56.5 532 111.5 590.5 c 128,-1,60
 166.5 649 166.5 649 245 681.5 c 128,-1,61
 323.5 714 323.5 714 422.5 714 c 0,62,63
 500.5 714 500.5 714 566 689.5 c 128,-1,64
 631.5 665 631.5 665 680 618.5 c 128,-1,65
 728.5 572 728.5 572 755 506 c 128,-1,66
 781.5 440 781.5 440 781.5 357 c 0,0,1
276.5 293 m 0,67,68
 276.5 229 276.5 229 302 200 c 128,-1,69
 327.5 171 327.5 171 370.5 171 c 0,70,71
 426.5 171 426.5 171 451 213 c 128,-1,72
 475.5 255 475.5 255 479.5 322 c 2,73,-1
 485.5 447 l 1,74,75
 472.5 451 472.5 451 452.5 454 c 128,-1,76
 432.5 457 432.5 457 411.5 457 c 0,77,78
 362.5 457 362.5 457 332.5 433 c 128,-1,79
 302.5 409 302.5 409 289.5 371.5 c 128,-1,80
 276.5 334 276.5 334 276.5 293 c 0,67,68
EndSplineSet
EndChar

StartChar: ampersand
Encoding: 38 38 95
Width: 780
Flags: W
LayerCount: 2
Fore
SplineSet
302.5 725 m 0,0,1
 356.5 725 356.5 725 395 706.5 c 128,-1,2
 433.5 688 433.5 688 454.5 654 c 128,-1,3
 475.5 620 475.5 620 475.5 571 c 0,4,5
 475.5 508 475.5 508 435 464 c 128,-1,6
 394.5 420 394.5 420 332.5 384 c 1,7,-1
 525.5 198 l 1,8,9
 551.5 229 551.5 229 568 269.5 c 128,-1,10
 584.5 310 584.5 310 595.5 357 c 1,11,-1
 684.5 357 l 1,12,13
 668.5 293 668.5 293 644.5 238 c 128,-1,14
 620.5 183 620.5 183 582.5 142 c 1,15,-1
 728.5 0 l 1,16,-1
 609.5 0 l 1,17,-1
 522.5 84 l 1,18,19
 491.5 56 491.5 56 455.5 35 c 128,-1,20
 419.5 14 419.5 14 376 2 c 128,-1,21
 332.5 -10 332.5 -10 276.5 -10 c 0,22,23
 207.5 -10 207.5 -10 157 12.5 c 128,-1,24
 106.5 35 106.5 35 79 79 c 128,-1,25
 51.5 123 51.5 123 51.5 186 c 0,26,27
 51.5 237 51.5 237 70 274 c 128,-1,28
 88.5 311 88.5 311 123.5 340 c 128,-1,29
 158.5 369 158.5 369 205.5 396 c 1,30,31
 184.5 420 184.5 420 164.5 446 c 128,-1,32
 144.5 472 144.5 472 131.5 502.5 c 128,-1,33
 118.5 533 118.5 533 118.5 569 c 0,34,35
 118.5 618 118.5 618 140.5 653 c 128,-1,36
 162.5 688 162.5 688 204 706.5 c 128,-1,37
 245.5 725 245.5 725 302.5 725 c 0,0,1
258.5 341 m 1,38,39
 222.5 320 222.5 320 197 298.5 c 128,-1,40
 171.5 277 171.5 277 157.5 251 c 128,-1,41
 143.5 225 143.5 225 143.5 189 c 0,42,43
 143.5 134 143.5 134 180.5 101 c 128,-1,44
 217.5 68 217.5 68 279.5 68 c 0,45,46
 343.5 68 343.5 68 389.5 89 c 128,-1,47
 435.5 110 435.5 110 466.5 139 c 1,48,-1
 258.5 341 l 1,38,39
299.5 653 m 0,49,50
 257.5 653 257.5 653 231 631 c 128,-1,51
 204.5 609 204.5 609 204.5 570 c 0,52,53
 204.5 534 204.5 534 223.5 503.5 c 128,-1,54
 242.5 473 242.5 473 278.5 436 c 1,55,56
 337.5 470 337.5 470 363 500.5 c 128,-1,57
 388.5 531 388.5 531 388.5 571 c 0,58,59
 388.5 607 388.5 607 364.5 630 c 128,-1,60
 340.5 653 340.5 653 299.5 653 c 0,49,50
EndSplineSet
EndChar

StartChar: dollar
Encoding: 36 36 96
Width: 780
Flags: W
LayerCount: 2
Fore
SplineSet
354 49 m 1,0,1
 299 50 299 50 247 58.5 c 128,-1,2
 195 67 195 67 163 82 c 1,3,-1
 163 167 l 1,4,5
 197 151 197 151 250 139 c 128,-1,6
 303 127 303 127 354 126 c 1,7,-1
 354 328 l 1,8,9
 288 346 288 346 246 369.5 c 128,-1,10
 204 393 204 393 183.5 427 c 128,-1,11
 163 461 163 461 163 508 c 0,12,13
 163 557 163 557 186.5 592 c 128,-1,14
 210 627 210 627 253 647.5 c 128,-1,15
 296 668 296 668 354 671 c 1,16,-1
 354 759 l 1,17,-1
 418 759 l 1,18,-1
 418 672 l 1,19,20
 471 671 471 671 514.5 660.5 c 128,-1,21
 558 650 558 650 594 635 c 1,22,-1
 567 561 l 1,23,24
 535 574 535 574 496.5 583.5 c 128,-1,25
 458 593 458 593 418 596 c 1,26,-1
 418 395 l 1,27,28
 484 376 484 376 528 354.5 c 128,-1,29
 572 333 572 333 594.5 301.5 c 128,-1,30
 617 270 617 270 617 220 c 0,31,32
 617 150 617 150 565 106.5 c 128,-1,33
 513 63 513 63 418 53 c 1,34,-1
 418 -58 l 1,35,-1
 354 -58 l 1,36,-1
 354 49 l 1,0,1
418 131 m 1,37,38
 477 137 477 137 504 158.5 c 128,-1,39
 531 180 531 180 531 214 c 0,40,41
 531 239 531 239 521 255.5 c 128,-1,42
 511 272 511 272 486.5 284 c 128,-1,43
 462 296 462 296 418 307 c 1,44,-1
 418 131 l 1,37,38
354 594 m 1,45,46
 318 592 318 592 295 581.5 c 128,-1,47
 272 571 272 571 260.5 554 c 128,-1,48
 249 537 249 537 249 515 c 0,49,50
 249 489 249 489 258.5 470.5 c 128,-1,51
 268 452 268 452 291 439.5 c 128,-1,52
 314 427 314 427 354 417 c 1,53,-1
 354 594 l 1,45,46
EndSplineSet
EndChar

StartChar: grave
Encoding: 96 96 97
Width: 780
Flags: W
LayerCount: 2
Fore
SplineSet
394.5 766 m 1,0,1
 405.5 744 405.5 744 422 716.5 c 128,-1,2
 438.5 689 438.5 689 457 663 c 128,-1,3
 475.5 637 475.5 637 490.5 618 c 1,4,-1
 490.5 606 l 1,5,-1
 431.5 606 l 1,6,7
 414.5 620 414.5 620 393.5 639.5 c 128,-1,8
 372.5 659 372.5 659 352 680.5 c 128,-1,9
 331.5 702 331.5 702 315 722 c 128,-1,10
 298.5 742 298.5 742 289.5 756 c 1,11,-1
 289.5 766 l 1,12,-1
 394.5 766 l 1,0,1
EndSplineSet
EndChar

StartChar: uni0080
Encoding: 128 128 98
Width: 780
Flags: W
LayerCount: 2
Fore
SplineSet
184.5 85 m 0,0,1
 184.5 103 184.5 103 200 118 c 128,-1,2
 215.5 133 215.5 133 243.5 144.5 c 128,-1,3
 271.5 156 271.5 156 309 162.5 c 128,-1,4
 346.5 169 346.5 169 389.5 169 c 0,5,6
 433.5 169 433.5 169 471 162.5 c 128,-1,7
 508.5 156 508.5 156 536 144.5 c 128,-1,8
 563.5 133 563.5 133 579.5 118 c 128,-1,9
 595.5 103 595.5 103 595.5 85 c 0,10,11
 595.5 68 595.5 68 579.5 53 c 128,-1,12
 563.5 38 563.5 38 536 27 c 128,-1,13
 508.5 16 508.5 16 471 9.5 c 128,-1,14
 433.5 3 433.5 3 389.5 3 c 0,15,16
 346.5 3 346.5 3 309 9.5 c 128,-1,17
 271.5 16 271.5 16 243.5 27 c 128,-1,18
 215.5 38 215.5 38 200 53 c 128,-1,19
 184.5 68 184.5 68 184.5 85 c 0,0,1
264.5 85 m 256,20,21
 264.5 74 264.5 74 274 64.5 c 128,-1,22
 283.5 55 283.5 55 300.5 48.5 c 128,-1,23
 317.5 42 317.5 42 340.5 38 c 128,-1,24
 363.5 34 363.5 34 389.5 34 c 0,25,26
 416.5 34 416.5 34 439 38 c 128,-1,27
 461.5 42 461.5 42 478.5 48.5 c 128,-1,28
 495.5 55 495.5 55 505 64.5 c 128,-1,29
 514.5 74 514.5 74 514.5 85 c 256,30,31
 514.5 96 514.5 96 505 105.5 c 128,-1,32
 495.5 115 495.5 115 478.5 122 c 128,-1,33
 461.5 129 461.5 129 439 133 c 128,-1,34
 416.5 137 416.5 137 389.5 137 c 0,35,36
 363.5 137 363.5 137 340.5 133 c 128,-1,37
 317.5 129 317.5 129 300.5 122 c 128,-1,38
 283.5 115 283.5 115 274 105.5 c 128,-1,39
 264.5 96 264.5 96 264.5 85 c 256,20,21
184.5 272 m 0,40,41
 184.5 290 184.5 290 200 305 c 128,-1,42
 215.5 320 215.5 320 243.5 331.5 c 128,-1,43
 271.5 343 271.5 343 309 349 c 128,-1,44
 346.5 355 346.5 355 389.5 355 c 0,45,46
 433.5 355 433.5 355 471 349 c 128,-1,47
 508.5 343 508.5 343 536 331.5 c 128,-1,48
 563.5 320 563.5 320 579.5 305 c 128,-1,49
 595.5 290 595.5 290 595.5 272 c 0,50,51
 595.5 255 595.5 255 579.5 240 c 128,-1,52
 563.5 225 563.5 225 536 214 c 128,-1,53
 508.5 203 508.5 203 471 196 c 128,-1,54
 433.5 189 433.5 189 389.5 189 c 0,55,56
 346.5 189 346.5 189 309 196 c 128,-1,57
 271.5 203 271.5 203 243.5 214 c 128,-1,58
 215.5 225 215.5 225 200 240 c 128,-1,59
 184.5 255 184.5 255 184.5 272 c 0,40,41
264.5 272 m 256,60,61
 264.5 261 264.5 261 274 251.5 c 128,-1,62
 283.5 242 283.5 242 300.5 235 c 128,-1,63
 317.5 228 317.5 228 340.5 224 c 128,-1,64
 363.5 220 363.5 220 389.5 220 c 0,65,66
 416.5 220 416.5 220 439 224 c 128,-1,67
 461.5 228 461.5 228 478.5 235 c 128,-1,68
 495.5 242 495.5 242 505 251.5 c 128,-1,69
 514.5 261 514.5 261 514.5 272 c 256,70,71
 514.5 283 514.5 283 505 292.5 c 128,-1,72
 495.5 302 495.5 302 478.5 309 c 128,-1,73
 461.5 316 461.5 316 439 320 c 128,-1,74
 416.5 324 416.5 324 389.5 324 c 0,75,76
 363.5 324 363.5 324 340.5 320 c 128,-1,77
 317.5 316 317.5 316 300.5 309 c 128,-1,78
 283.5 302 283.5 302 274 292.5 c 128,-1,79
 264.5 283 264.5 283 264.5 272 c 256,60,61
184.5 461 m 256,80,81
 184.5 478 184.5 478 200 493.5 c 128,-1,82
 215.5 509 215.5 509 243.5 520 c 128,-1,83
 271.5 531 271.5 531 309 537.5 c 128,-1,84
 346.5 544 346.5 544 389.5 544 c 0,85,86
 433.5 544 433.5 544 471 537.5 c 128,-1,87
 508.5 531 508.5 531 536 520 c 128,-1,88
 563.5 509 563.5 509 579.5 493.5 c 128,-1,89
 595.5 478 595.5 478 595.5 461 c 256,90,91
 595.5 444 595.5 444 579.5 429 c 128,-1,92
 563.5 414 563.5 414 536 402.5 c 128,-1,93
 508.5 391 508.5 391 471 384.5 c 128,-1,94
 433.5 378 433.5 378 389.5 378 c 0,95,96
 346.5 378 346.5 378 309 384.5 c 128,-1,97
 271.5 391 271.5 391 243.5 402.5 c 128,-1,98
 215.5 414 215.5 414 200 429 c 128,-1,99
 184.5 444 184.5 444 184.5 461 c 256,80,81
264.5 461 m 256,100,101
 264.5 450 264.5 450 274 440.5 c 128,-1,102
 283.5 431 283.5 431 300.5 424 c 128,-1,103
 317.5 417 317.5 417 340.5 413 c 128,-1,104
 363.5 409 363.5 409 389.5 409 c 0,105,106
 416.5 409 416.5 409 439 413 c 128,-1,107
 461.5 417 461.5 417 478.5 424 c 128,-1,108
 495.5 431 495.5 431 505 440.5 c 128,-1,109
 514.5 450 514.5 450 514.5 461 c 256,110,111
 514.5 472 514.5 472 505 481.5 c 128,-1,112
 495.5 491 495.5 491 478.5 498 c 128,-1,113
 461.5 505 461.5 505 439 509 c 128,-1,114
 416.5 513 416.5 513 389.5 513 c 0,115,116
 363.5 513 363.5 513 340.5 509 c 128,-1,117
 317.5 505 317.5 505 300.5 498 c 128,-1,118
 283.5 491 283.5 491 274 481.5 c 128,-1,119
 264.5 472 264.5 472 264.5 461 c 256,100,101
184.5 648 m 256,120,121
 184.5 665 184.5 665 200 680.5 c 128,-1,122
 215.5 696 215.5 696 243.5 707 c 128,-1,123
 271.5 718 271.5 718 309 724.5 c 128,-1,124
 346.5 731 346.5 731 389.5 731 c 0,125,126
 433.5 731 433.5 731 471 724.5 c 128,-1,127
 508.5 718 508.5 718 536 707 c 128,-1,128
 563.5 696 563.5 696 579.5 680.5 c 128,-1,129
 595.5 665 595.5 665 595.5 648 c 256,130,131
 595.5 631 595.5 631 579.5 616 c 128,-1,132
 563.5 601 563.5 601 536 589.5 c 128,-1,133
 508.5 578 508.5 578 471 571.5 c 128,-1,134
 433.5 565 433.5 565 389.5 565 c 0,135,136
 346.5 565 346.5 565 309 571.5 c 128,-1,137
 271.5 578 271.5 578 243.5 589.5 c 128,-1,138
 215.5 601 215.5 601 200 616 c 128,-1,139
 184.5 631 184.5 631 184.5 648 c 256,120,121
264.5 648 m 0,140,141
 264.5 637 264.5 637 274 627.5 c 128,-1,142
 283.5 618 283.5 618 300.5 611 c 128,-1,143
 317.5 604 317.5 604 340.5 600 c 128,-1,144
 363.5 596 363.5 596 389.5 596 c 0,145,146
 416.5 596 416.5 596 439 600 c 128,-1,147
 461.5 604 461.5 604 478.5 611 c 128,-1,148
 495.5 618 495.5 618 505 627.5 c 128,-1,149
 514.5 637 514.5 637 514.5 648 c 0,150,151
 514.5 658 514.5 658 505 668 c 128,-1,152
 495.5 678 495.5 678 478.5 685 c 128,-1,153
 461.5 692 461.5 692 439 696 c 128,-1,154
 416.5 700 416.5 700 389.5 700 c 0,155,156
 363.5 700 363.5 700 340.5 696 c 128,-1,157
 317.5 692 317.5 692 300.5 685 c 128,-1,158
 283.5 678 283.5 678 274 668 c 128,-1,159
 264.5 658 264.5 658 264.5 648 c 0,140,141
EndSplineSet
EndChar

StartChar: uni0081
Encoding: 129 129 99
Width: 780
Flags: W
LayerCount: 2
Fore
SplineSet
184.5 85 m 0,0,1
 184.5 103 184.5 103 200 118 c 128,-1,2
 215.5 133 215.5 133 243.5 144.5 c 128,-1,3
 271.5 156 271.5 156 309 162.5 c 128,-1,4
 346.5 169 346.5 169 389.5 169 c 0,5,6
 433.5 169 433.5 169 471 162.5 c 128,-1,7
 508.5 156 508.5 156 536 144.5 c 128,-1,8
 563.5 133 563.5 133 579.5 118 c 128,-1,9
 595.5 103 595.5 103 595.5 85 c 0,10,11
 595.5 68 595.5 68 579.5 53 c 128,-1,12
 563.5 38 563.5 38 536 27 c 128,-1,13
 508.5 16 508.5 16 471 9.5 c 128,-1,14
 433.5 3 433.5 3 389.5 3 c 0,15,16
 346.5 3 346.5 3 309 9.5 c 128,-1,17
 271.5 16 271.5 16 243.5 27 c 128,-1,18
 215.5 38 215.5 38 200 53 c 128,-1,19
 184.5 68 184.5 68 184.5 85 c 0,0,1
184.5 272 m 0,20,21
 184.5 290 184.5 290 200 305 c 128,-1,22
 215.5 320 215.5 320 243.5 331.5 c 128,-1,23
 271.5 343 271.5 343 309 349 c 128,-1,24
 346.5 355 346.5 355 389.5 355 c 0,25,26
 433.5 355 433.5 355 471 349 c 128,-1,27
 508.5 343 508.5 343 536 331.5 c 128,-1,28
 563.5 320 563.5 320 579.5 305 c 128,-1,29
 595.5 290 595.5 290 595.5 272 c 0,30,31
 595.5 255 595.5 255 579.5 240 c 128,-1,32
 563.5 225 563.5 225 536 214 c 128,-1,33
 508.5 203 508.5 203 471 196 c 128,-1,34
 433.5 189 433.5 189 389.5 189 c 0,35,36
 346.5 189 346.5 189 309 196 c 128,-1,37
 271.5 203 271.5 203 243.5 214 c 128,-1,38
 215.5 225 215.5 225 200 240 c 128,-1,39
 184.5 255 184.5 255 184.5 272 c 0,20,21
264.5 272 m 256,40,41
 264.5 261 264.5 261 274 251.5 c 128,-1,42
 283.5 242 283.5 242 300.5 235 c 128,-1,43
 317.5 228 317.5 228 340.5 224 c 128,-1,44
 363.5 220 363.5 220 389.5 220 c 0,45,46
 416.5 220 416.5 220 439 224 c 128,-1,47
 461.5 228 461.5 228 478.5 235 c 128,-1,48
 495.5 242 495.5 242 505 251.5 c 128,-1,49
 514.5 261 514.5 261 514.5 272 c 256,50,51
 514.5 283 514.5 283 505 292.5 c 128,-1,52
 495.5 302 495.5 302 478.5 309 c 128,-1,53
 461.5 316 461.5 316 439 320 c 128,-1,54
 416.5 324 416.5 324 389.5 324 c 0,55,56
 363.5 324 363.5 324 340.5 320 c 128,-1,57
 317.5 316 317.5 316 300.5 309 c 128,-1,58
 283.5 302 283.5 302 274 292.5 c 128,-1,59
 264.5 283 264.5 283 264.5 272 c 256,40,41
184.5 461 m 256,60,61
 184.5 478 184.5 478 200 493.5 c 128,-1,62
 215.5 509 215.5 509 243.5 520 c 128,-1,63
 271.5 531 271.5 531 309 537.5 c 128,-1,64
 346.5 544 346.5 544 389.5 544 c 0,65,66
 433.5 544 433.5 544 471 537.5 c 128,-1,67
 508.5 531 508.5 531 536 520 c 128,-1,68
 563.5 509 563.5 509 579.5 493.5 c 128,-1,69
 595.5 478 595.5 478 595.5 461 c 256,70,71
 595.5 444 595.5 444 579.5 429 c 128,-1,72
 563.5 414 563.5 414 536 402.5 c 128,-1,73
 508.5 391 508.5 391 471 384.5 c 128,-1,74
 433.5 378 433.5 378 389.5 378 c 0,75,76
 346.5 378 346.5 378 309 384.5 c 128,-1,77
 271.5 391 271.5 391 243.5 402.5 c 128,-1,78
 215.5 414 215.5 414 200 429 c 128,-1,79
 184.5 444 184.5 444 184.5 461 c 256,60,61
264.5 461 m 256,80,81
 264.5 450 264.5 450 274 440.5 c 128,-1,82
 283.5 431 283.5 431 300.5 424 c 128,-1,83
 317.5 417 317.5 417 340.5 413 c 128,-1,84
 363.5 409 363.5 409 389.5 409 c 0,85,86
 416.5 409 416.5 409 439 413 c 128,-1,87
 461.5 417 461.5 417 478.5 424 c 128,-1,88
 495.5 431 495.5 431 505 440.5 c 128,-1,89
 514.5 450 514.5 450 514.5 461 c 256,90,91
 514.5 472 514.5 472 505 481.5 c 128,-1,92
 495.5 491 495.5 491 478.5 498 c 128,-1,93
 461.5 505 461.5 505 439 509 c 128,-1,94
 416.5 513 416.5 513 389.5 513 c 0,95,96
 363.5 513 363.5 513 340.5 509 c 128,-1,97
 317.5 505 317.5 505 300.5 498 c 128,-1,98
 283.5 491 283.5 491 274 481.5 c 128,-1,99
 264.5 472 264.5 472 264.5 461 c 256,80,81
184.5 648 m 256,100,101
 184.5 665 184.5 665 200 680.5 c 128,-1,102
 215.5 696 215.5 696 243.5 707 c 128,-1,103
 271.5 718 271.5 718 309 724.5 c 128,-1,104
 346.5 731 346.5 731 389.5 731 c 0,105,106
 433.5 731 433.5 731 471 724.5 c 128,-1,107
 508.5 718 508.5 718 536 707 c 128,-1,108
 563.5 696 563.5 696 579.5 680.5 c 128,-1,109
 595.5 665 595.5 665 595.5 648 c 256,110,111
 595.5 631 595.5 631 579.5 616 c 128,-1,112
 563.5 601 563.5 601 536 589.5 c 128,-1,113
 508.5 578 508.5 578 471 571.5 c 128,-1,114
 433.5 565 433.5 565 389.5 565 c 0,115,116
 346.5 565 346.5 565 309 571.5 c 128,-1,117
 271.5 578 271.5 578 243.5 589.5 c 128,-1,118
 215.5 601 215.5 601 200 616 c 128,-1,119
 184.5 631 184.5 631 184.5 648 c 256,100,101
264.5 648 m 0,120,121
 264.5 637 264.5 637 274 627.5 c 128,-1,122
 283.5 618 283.5 618 300.5 611 c 128,-1,123
 317.5 604 317.5 604 340.5 600 c 128,-1,124
 363.5 596 363.5 596 389.5 596 c 0,125,126
 416.5 596 416.5 596 439 600 c 128,-1,127
 461.5 604 461.5 604 478.5 611 c 128,-1,128
 495.5 618 495.5 618 505 627.5 c 128,-1,129
 514.5 637 514.5 637 514.5 648 c 0,130,131
 514.5 658 514.5 658 505 668 c 128,-1,132
 495.5 678 495.5 678 478.5 685 c 128,-1,133
 461.5 692 461.5 692 439 696 c 128,-1,134
 416.5 700 416.5 700 389.5 700 c 0,135,136
 363.5 700 363.5 700 340.5 696 c 128,-1,137
 317.5 692 317.5 692 300.5 685 c 128,-1,138
 283.5 678 283.5 678 274 668 c 128,-1,139
 264.5 658 264.5 658 264.5 648 c 0,120,121
EndSplineSet
EndChar

StartChar: uni0082
Encoding: 130 130 100
Width: 780
Flags: W
LayerCount: 2
Fore
SplineSet
184.5 85 m 0,0,1
 184.5 103 184.5 103 200 118 c 128,-1,2
 215.5 133 215.5 133 243.5 144.5 c 128,-1,3
 271.5 156 271.5 156 309 162.5 c 128,-1,4
 346.5 169 346.5 169 389.5 169 c 0,5,6
 433.5 169 433.5 169 471 162.5 c 128,-1,7
 508.5 156 508.5 156 536 144.5 c 128,-1,8
 563.5 133 563.5 133 579.5 118 c 128,-1,9
 595.5 103 595.5 103 595.5 85 c 0,10,11
 595.5 68 595.5 68 579.5 53 c 128,-1,12
 563.5 38 563.5 38 536 27 c 128,-1,13
 508.5 16 508.5 16 471 9.5 c 128,-1,14
 433.5 3 433.5 3 389.5 3 c 0,15,16
 346.5 3 346.5 3 309 9.5 c 128,-1,17
 271.5 16 271.5 16 243.5 27 c 128,-1,18
 215.5 38 215.5 38 200 53 c 128,-1,19
 184.5 68 184.5 68 184.5 85 c 0,0,1
264.5 85 m 256,20,21
 264.5 74 264.5 74 274 64.5 c 128,-1,22
 283.5 55 283.5 55 300.5 48.5 c 128,-1,23
 317.5 42 317.5 42 340.5 38 c 128,-1,24
 363.5 34 363.5 34 389.5 34 c 0,25,26
 416.5 34 416.5 34 439 38 c 128,-1,27
 461.5 42 461.5 42 478.5 48.5 c 128,-1,28
 495.5 55 495.5 55 505 64.5 c 128,-1,29
 514.5 74 514.5 74 514.5 85 c 256,30,31
 514.5 96 514.5 96 505 105.5 c 128,-1,32
 495.5 115 495.5 115 478.5 122 c 128,-1,33
 461.5 129 461.5 129 439 133 c 128,-1,34
 416.5 137 416.5 137 389.5 137 c 0,35,36
 363.5 137 363.5 137 340.5 133 c 128,-1,37
 317.5 129 317.5 129 300.5 122 c 128,-1,38
 283.5 115 283.5 115 274 105.5 c 128,-1,39
 264.5 96 264.5 96 264.5 85 c 256,20,21
184.5 272 m 0,40,41
 184.5 290 184.5 290 200 305 c 128,-1,42
 215.5 320 215.5 320 243.5 331.5 c 128,-1,43
 271.5 343 271.5 343 309 349 c 128,-1,44
 346.5 355 346.5 355 389.5 355 c 0,45,46
 433.5 355 433.5 355 471 349 c 128,-1,47
 508.5 343 508.5 343 536 331.5 c 128,-1,48
 563.5 320 563.5 320 579.5 305 c 128,-1,49
 595.5 290 595.5 290 595.5 272 c 0,50,51
 595.5 255 595.5 255 579.5 240 c 128,-1,52
 563.5 225 563.5 225 536 214 c 128,-1,53
 508.5 203 508.5 203 471 196 c 128,-1,54
 433.5 189 433.5 189 389.5 189 c 0,55,56
 346.5 189 346.5 189 309 196 c 128,-1,57
 271.5 203 271.5 203 243.5 214 c 128,-1,58
 215.5 225 215.5 225 200 240 c 128,-1,59
 184.5 255 184.5 255 184.5 272 c 0,40,41
184.5 461 m 256,60,61
 184.5 478 184.5 478 200 493.5 c 128,-1,62
 215.5 509 215.5 509 243.5 520 c 128,-1,63
 271.5 531 271.5 531 309 537.5 c 128,-1,64
 346.5 544 346.5 544 389.5 544 c 0,65,66
 433.5 544 433.5 544 471 537.5 c 128,-1,67
 508.5 531 508.5 531 536 520 c 128,-1,68
 563.5 509 563.5 509 579.5 493.5 c 128,-1,69
 595.5 478 595.5 478 595.5 461 c 256,70,71
 595.5 444 595.5 444 579.5 429 c 128,-1,72
 563.5 414 563.5 414 536 402.5 c 128,-1,73
 508.5 391 508.5 391 471 384.5 c 128,-1,74
 433.5 378 433.5 378 389.5 378 c 0,75,76
 346.5 378 346.5 378 309 384.5 c 128,-1,77
 271.5 391 271.5 391 243.5 402.5 c 128,-1,78
 215.5 414 215.5 414 200 429 c 128,-1,79
 184.5 444 184.5 444 184.5 461 c 256,60,61
264.5 461 m 256,80,81
 264.5 450 264.5 450 274 440.5 c 128,-1,82
 283.5 431 283.5 431 300.5 424 c 128,-1,83
 317.5 417 317.5 417 340.5 413 c 128,-1,84
 363.5 409 363.5 409 389.5 409 c 0,85,86
 416.5 409 416.5 409 439 413 c 128,-1,87
 461.5 417 461.5 417 478.5 424 c 128,-1,88
 495.5 431 495.5 431 505 440.5 c 128,-1,89
 514.5 450 514.5 450 514.5 461 c 256,90,91
 514.5 472 514.5 472 505 481.5 c 128,-1,92
 495.5 491 495.5 491 478.5 498 c 128,-1,93
 461.5 505 461.5 505 439 509 c 128,-1,94
 416.5 513 416.5 513 389.5 513 c 0,95,96
 363.5 513 363.5 513 340.5 509 c 128,-1,97
 317.5 505 317.5 505 300.5 498 c 128,-1,98
 283.5 491 283.5 491 274 481.5 c 128,-1,99
 264.5 472 264.5 472 264.5 461 c 256,80,81
184.5 648 m 256,100,101
 184.5 665 184.5 665 200 680.5 c 128,-1,102
 215.5 696 215.5 696 243.5 707 c 128,-1,103
 271.5 718 271.5 718 309 724.5 c 128,-1,104
 346.5 731 346.5 731 389.5 731 c 0,105,106
 433.5 731 433.5 731 471 724.5 c 128,-1,107
 508.5 718 508.5 718 536 707 c 128,-1,108
 563.5 696 563.5 696 579.5 680.5 c 128,-1,109
 595.5 665 595.5 665 595.5 648 c 256,110,111
 595.5 631 595.5 631 579.5 616 c 128,-1,112
 563.5 601 563.5 601 536 589.5 c 128,-1,113
 508.5 578 508.5 578 471 571.5 c 128,-1,114
 433.5 565 433.5 565 389.5 565 c 0,115,116
 346.5 565 346.5 565 309 571.5 c 128,-1,117
 271.5 578 271.5 578 243.5 589.5 c 128,-1,118
 215.5 601 215.5 601 200 616 c 128,-1,119
 184.5 631 184.5 631 184.5 648 c 256,100,101
264.5 648 m 0,120,121
 264.5 637 264.5 637 274 627.5 c 128,-1,122
 283.5 618 283.5 618 300.5 611 c 128,-1,123
 317.5 604 317.5 604 340.5 600 c 128,-1,124
 363.5 596 363.5 596 389.5 596 c 0,125,126
 416.5 596 416.5 596 439 600 c 128,-1,127
 461.5 604 461.5 604 478.5 611 c 128,-1,128
 495.5 618 495.5 618 505 627.5 c 128,-1,129
 514.5 637 514.5 637 514.5 648 c 0,130,131
 514.5 658 514.5 658 505 668 c 128,-1,132
 495.5 678 495.5 678 478.5 685 c 128,-1,133
 461.5 692 461.5 692 439 696 c 128,-1,134
 416.5 700 416.5 700 389.5 700 c 0,135,136
 363.5 700 363.5 700 340.5 696 c 128,-1,137
 317.5 692 317.5 692 300.5 685 c 128,-1,138
 283.5 678 283.5 678 274 668 c 128,-1,139
 264.5 658 264.5 658 264.5 648 c 0,120,121
EndSplineSet
EndChar

StartChar: uni0083
Encoding: 131 131 101
Width: 780
Flags: W
LayerCount: 2
Fore
SplineSet
184.5 85 m 0,0,1
 184.5 103 184.5 103 200 118 c 128,-1,2
 215.5 133 215.5 133 243.5 144.5 c 128,-1,3
 271.5 156 271.5 156 309 162.5 c 128,-1,4
 346.5 169 346.5 169 389.5 169 c 0,5,6
 433.5 169 433.5 169 471 162.5 c 128,-1,7
 508.5 156 508.5 156 536 144.5 c 128,-1,8
 563.5 133 563.5 133 579.5 118 c 128,-1,9
 595.5 103 595.5 103 595.5 85 c 0,10,11
 595.5 68 595.5 68 579.5 53 c 128,-1,12
 563.5 38 563.5 38 536 27 c 128,-1,13
 508.5 16 508.5 16 471 9.5 c 128,-1,14
 433.5 3 433.5 3 389.5 3 c 0,15,16
 346.5 3 346.5 3 309 9.5 c 128,-1,17
 271.5 16 271.5 16 243.5 27 c 128,-1,18
 215.5 38 215.5 38 200 53 c 128,-1,19
 184.5 68 184.5 68 184.5 85 c 0,0,1
184.5 272 m 0,20,21
 184.5 290 184.5 290 200 305 c 128,-1,22
 215.5 320 215.5 320 243.5 331.5 c 128,-1,23
 271.5 343 271.5 343 309 349 c 128,-1,24
 346.5 355 346.5 355 389.5 355 c 0,25,26
 433.5 355 433.5 355 471 349 c 128,-1,27
 508.5 343 508.5 343 536 331.5 c 128,-1,28
 563.5 320 563.5 320 579.5 305 c 128,-1,29
 595.5 290 595.5 290 595.5 272 c 0,30,31
 595.5 255 595.5 255 579.5 240 c 128,-1,32
 563.5 225 563.5 225 536 214 c 128,-1,33
 508.5 203 508.5 203 471 196 c 128,-1,34
 433.5 189 433.5 189 389.5 189 c 0,35,36
 346.5 189 346.5 189 309 196 c 128,-1,37
 271.5 203 271.5 203 243.5 214 c 128,-1,38
 215.5 225 215.5 225 200 240 c 128,-1,39
 184.5 255 184.5 255 184.5 272 c 0,20,21
184.5 461 m 256,40,41
 184.5 478 184.5 478 200 493.5 c 128,-1,42
 215.5 509 215.5 509 243.5 520 c 128,-1,43
 271.5 531 271.5 531 309 537.5 c 128,-1,44
 346.5 544 346.5 544 389.5 544 c 0,45,46
 433.5 544 433.5 544 471 537.5 c 128,-1,47
 508.5 531 508.5 531 536 520 c 128,-1,48
 563.5 509 563.5 509 579.5 493.5 c 128,-1,49
 595.5 478 595.5 478 595.5 461 c 256,50,51
 595.5 444 595.5 444 579.5 429 c 128,-1,52
 563.5 414 563.5 414 536 402.5 c 128,-1,53
 508.5 391 508.5 391 471 384.5 c 128,-1,54
 433.5 378 433.5 378 389.5 378 c 0,55,56
 346.5 378 346.5 378 309 384.5 c 128,-1,57
 271.5 391 271.5 391 243.5 402.5 c 128,-1,58
 215.5 414 215.5 414 200 429 c 128,-1,59
 184.5 444 184.5 444 184.5 461 c 256,40,41
264.5 461 m 256,60,61
 264.5 450 264.5 450 274 440.5 c 128,-1,62
 283.5 431 283.5 431 300.5 424 c 128,-1,63
 317.5 417 317.5 417 340.5 413 c 128,-1,64
 363.5 409 363.5 409 389.5 409 c 0,65,66
 416.5 409 416.5 409 439 413 c 128,-1,67
 461.5 417 461.5 417 478.5 424 c 128,-1,68
 495.5 431 495.5 431 505 440.5 c 128,-1,69
 514.5 450 514.5 450 514.5 461 c 256,70,71
 514.5 472 514.5 472 505 481.5 c 128,-1,72
 495.5 491 495.5 491 478.5 498 c 128,-1,73
 461.5 505 461.5 505 439 509 c 128,-1,74
 416.5 513 416.5 513 389.5 513 c 0,75,76
 363.5 513 363.5 513 340.5 509 c 128,-1,77
 317.5 505 317.5 505 300.5 498 c 128,-1,78
 283.5 491 283.5 491 274 481.5 c 128,-1,79
 264.5 472 264.5 472 264.5 461 c 256,60,61
184.5 648 m 256,80,81
 184.5 665 184.5 665 200 680.5 c 128,-1,82
 215.5 696 215.5 696 243.5 707 c 128,-1,83
 271.5 718 271.5 718 309 724.5 c 128,-1,84
 346.5 731 346.5 731 389.5 731 c 0,85,86
 433.5 731 433.5 731 471 724.5 c 128,-1,87
 508.5 718 508.5 718 536 707 c 128,-1,88
 563.5 696 563.5 696 579.5 680.5 c 128,-1,89
 595.5 665 595.5 665 595.5 648 c 256,90,91
 595.5 631 595.5 631 579.5 616 c 128,-1,92
 563.5 601 563.5 601 536 589.5 c 128,-1,93
 508.5 578 508.5 578 471 571.5 c 128,-1,94
 433.5 565 433.5 565 389.5 565 c 0,95,96
 346.5 565 346.5 565 309 571.5 c 128,-1,97
 271.5 578 271.5 578 243.5 589.5 c 128,-1,98
 215.5 601 215.5 601 200 616 c 128,-1,99
 184.5 631 184.5 631 184.5 648 c 256,80,81
264.5 648 m 0,100,101
 264.5 637 264.5 637 274 627.5 c 128,-1,102
 283.5 618 283.5 618 300.5 611 c 128,-1,103
 317.5 604 317.5 604 340.5 600 c 128,-1,104
 363.5 596 363.5 596 389.5 596 c 0,105,106
 416.5 596 416.5 596 439 600 c 128,-1,107
 461.5 604 461.5 604 478.5 611 c 128,-1,108
 495.5 618 495.5 618 505 627.5 c 128,-1,109
 514.5 637 514.5 637 514.5 648 c 0,110,111
 514.5 658 514.5 658 505 668 c 128,-1,112
 495.5 678 495.5 678 478.5 685 c 128,-1,113
 461.5 692 461.5 692 439 696 c 128,-1,114
 416.5 700 416.5 700 389.5 700 c 0,115,116
 363.5 700 363.5 700 340.5 696 c 128,-1,117
 317.5 692 317.5 692 300.5 685 c 128,-1,118
 283.5 678 283.5 678 274 668 c 128,-1,119
 264.5 658 264.5 658 264.5 648 c 0,100,101
EndSplineSet
EndChar

StartChar: uni0084
Encoding: 132 132 102
Width: 780
Flags: W
LayerCount: 2
Fore
SplineSet
184.5 85 m 0,0,1
 184.5 103 184.5 103 200 118 c 128,-1,2
 215.5 133 215.5 133 243.5 144.5 c 128,-1,3
 271.5 156 271.5 156 309 162.5 c 128,-1,4
 346.5 169 346.5 169 389.5 169 c 0,5,6
 433.5 169 433.5 169 471 162.5 c 128,-1,7
 508.5 156 508.5 156 536 144.5 c 128,-1,8
 563.5 133 563.5 133 579.5 118 c 128,-1,9
 595.5 103 595.5 103 595.5 85 c 0,10,11
 595.5 68 595.5 68 579.5 53 c 128,-1,12
 563.5 38 563.5 38 536 27 c 128,-1,13
 508.5 16 508.5 16 471 9.5 c 128,-1,14
 433.5 3 433.5 3 389.5 3 c 0,15,16
 346.5 3 346.5 3 309 9.5 c 128,-1,17
 271.5 16 271.5 16 243.5 27 c 128,-1,18
 215.5 38 215.5 38 200 53 c 128,-1,19
 184.5 68 184.5 68 184.5 85 c 0,0,1
264.5 85 m 256,20,21
 264.5 74 264.5 74 274 64.5 c 128,-1,22
 283.5 55 283.5 55 300.5 48.5 c 128,-1,23
 317.5 42 317.5 42 340.5 38 c 128,-1,24
 363.5 34 363.5 34 389.5 34 c 0,25,26
 416.5 34 416.5 34 439 38 c 128,-1,27
 461.5 42 461.5 42 478.5 48.5 c 128,-1,28
 495.5 55 495.5 55 505 64.5 c 128,-1,29
 514.5 74 514.5 74 514.5 85 c 256,30,31
 514.5 96 514.5 96 505 105.5 c 128,-1,32
 495.5 115 495.5 115 478.5 122 c 128,-1,33
 461.5 129 461.5 129 439 133 c 128,-1,34
 416.5 137 416.5 137 389.5 137 c 0,35,36
 363.5 137 363.5 137 340.5 133 c 128,-1,37
 317.5 129 317.5 129 300.5 122 c 128,-1,38
 283.5 115 283.5 115 274 105.5 c 128,-1,39
 264.5 96 264.5 96 264.5 85 c 256,20,21
184.5 272 m 0,40,41
 184.5 290 184.5 290 200 305 c 128,-1,42
 215.5 320 215.5 320 243.5 331.5 c 128,-1,43
 271.5 343 271.5 343 309 349 c 128,-1,44
 346.5 355 346.5 355 389.5 355 c 0,45,46
 433.5 355 433.5 355 471 349 c 128,-1,47
 508.5 343 508.5 343 536 331.5 c 128,-1,48
 563.5 320 563.5 320 579.5 305 c 128,-1,49
 595.5 290 595.5 290 595.5 272 c 0,50,51
 595.5 255 595.5 255 579.5 240 c 128,-1,52
 563.5 225 563.5 225 536 214 c 128,-1,53
 508.5 203 508.5 203 471 196 c 128,-1,54
 433.5 189 433.5 189 389.5 189 c 0,55,56
 346.5 189 346.5 189 309 196 c 128,-1,57
 271.5 203 271.5 203 243.5 214 c 128,-1,58
 215.5 225 215.5 225 200 240 c 128,-1,59
 184.5 255 184.5 255 184.5 272 c 0,40,41
264.5 272 m 256,60,61
 264.5 261 264.5 261 274 251.5 c 128,-1,62
 283.5 242 283.5 242 300.5 235 c 128,-1,63
 317.5 228 317.5 228 340.5 224 c 128,-1,64
 363.5 220 363.5 220 389.5 220 c 0,65,66
 416.5 220 416.5 220 439 224 c 128,-1,67
 461.5 228 461.5 228 478.5 235 c 128,-1,68
 495.5 242 495.5 242 505 251.5 c 128,-1,69
 514.5 261 514.5 261 514.5 272 c 256,70,71
 514.5 283 514.5 283 505 292.5 c 128,-1,72
 495.5 302 495.5 302 478.5 309 c 128,-1,73
 461.5 316 461.5 316 439 320 c 128,-1,74
 416.5 324 416.5 324 389.5 324 c 0,75,76
 363.5 324 363.5 324 340.5 320 c 128,-1,77
 317.5 316 317.5 316 300.5 309 c 128,-1,78
 283.5 302 283.5 302 274 292.5 c 128,-1,79
 264.5 283 264.5 283 264.5 272 c 256,60,61
184.5 461 m 256,80,81
 184.5 478 184.5 478 200 493.5 c 128,-1,82
 215.5 509 215.5 509 243.5 520 c 128,-1,83
 271.5 531 271.5 531 309 537.5 c 128,-1,84
 346.5 544 346.5 544 389.5 544 c 0,85,86
 433.5 544 433.5 544 471 537.5 c 128,-1,87
 508.5 531 508.5 531 536 520 c 128,-1,88
 563.5 509 563.5 509 579.5 493.5 c 128,-1,89
 595.5 478 595.5 478 595.5 461 c 256,90,91
 595.5 444 595.5 444 579.5 429 c 128,-1,92
 563.5 414 563.5 414 536 402.5 c 128,-1,93
 508.5 391 508.5 391 471 384.5 c 128,-1,94
 433.5 378 433.5 378 389.5 378 c 0,95,96
 346.5 378 346.5 378 309 384.5 c 128,-1,97
 271.5 391 271.5 391 243.5 402.5 c 128,-1,98
 215.5 414 215.5 414 200 429 c 128,-1,99
 184.5 444 184.5 444 184.5 461 c 256,80,81
184.5 648 m 256,100,101
 184.5 665 184.5 665 200 680.5 c 128,-1,102
 215.5 696 215.5 696 243.5 707 c 128,-1,103
 271.5 718 271.5 718 309 724.5 c 128,-1,104
 346.5 731 346.5 731 389.5 731 c 0,105,106
 433.5 731 433.5 731 471 724.5 c 128,-1,107
 508.5 718 508.5 718 536 707 c 128,-1,108
 563.5 696 563.5 696 579.5 680.5 c 128,-1,109
 595.5 665 595.5 665 595.5 648 c 256,110,111
 595.5 631 595.5 631 579.5 616 c 128,-1,112
 563.5 601 563.5 601 536 589.5 c 128,-1,113
 508.5 578 508.5 578 471 571.5 c 128,-1,114
 433.5 565 433.5 565 389.5 565 c 0,115,116
 346.5 565 346.5 565 309 571.5 c 128,-1,117
 271.5 578 271.5 578 243.5 589.5 c 128,-1,118
 215.5 601 215.5 601 200 616 c 128,-1,119
 184.5 631 184.5 631 184.5 648 c 256,100,101
264.5 648 m 0,120,121
 264.5 637 264.5 637 274 627.5 c 128,-1,122
 283.5 618 283.5 618 300.5 611 c 128,-1,123
 317.5 604 317.5 604 340.5 600 c 128,-1,124
 363.5 596 363.5 596 389.5 596 c 0,125,126
 416.5 596 416.5 596 439 600 c 128,-1,127
 461.5 604 461.5 604 478.5 611 c 128,-1,128
 495.5 618 495.5 618 505 627.5 c 128,-1,129
 514.5 637 514.5 637 514.5 648 c 0,130,131
 514.5 658 514.5 658 505 668 c 128,-1,132
 495.5 678 495.5 678 478.5 685 c 128,-1,133
 461.5 692 461.5 692 439 696 c 128,-1,134
 416.5 700 416.5 700 389.5 700 c 0,135,136
 363.5 700 363.5 700 340.5 696 c 128,-1,137
 317.5 692 317.5 692 300.5 685 c 128,-1,138
 283.5 678 283.5 678 274 668 c 128,-1,139
 264.5 658 264.5 658 264.5 648 c 0,120,121
EndSplineSet
EndChar

StartChar: uni0085
Encoding: 133 133 103
Width: 780
Flags: W
LayerCount: 2
Fore
SplineSet
184.5 85 m 0,0,1
 184.5 103 184.5 103 200 118 c 128,-1,2
 215.5 133 215.5 133 243.5 144.5 c 128,-1,3
 271.5 156 271.5 156 309 162.5 c 128,-1,4
 346.5 169 346.5 169 389.5 169 c 0,5,6
 433.5 169 433.5 169 471 162.5 c 128,-1,7
 508.5 156 508.5 156 536 144.5 c 128,-1,8
 563.5 133 563.5 133 579.5 118 c 128,-1,9
 595.5 103 595.5 103 595.5 85 c 0,10,11
 595.5 68 595.5 68 579.5 53 c 128,-1,12
 563.5 38 563.5 38 536 27 c 128,-1,13
 508.5 16 508.5 16 471 9.5 c 128,-1,14
 433.5 3 433.5 3 389.5 3 c 0,15,16
 346.5 3 346.5 3 309 9.5 c 128,-1,17
 271.5 16 271.5 16 243.5 27 c 128,-1,18
 215.5 38 215.5 38 200 53 c 128,-1,19
 184.5 68 184.5 68 184.5 85 c 0,0,1
184.5 272 m 0,20,21
 184.5 290 184.5 290 200 305 c 128,-1,22
 215.5 320 215.5 320 243.5 331.5 c 128,-1,23
 271.5 343 271.5 343 309 349 c 128,-1,24
 346.5 355 346.5 355 389.5 355 c 0,25,26
 433.5 355 433.5 355 471 349 c 128,-1,27
 508.5 343 508.5 343 536 331.5 c 128,-1,28
 563.5 320 563.5 320 579.5 305 c 128,-1,29
 595.5 290 595.5 290 595.5 272 c 0,30,31
 595.5 255 595.5 255 579.5 240 c 128,-1,32
 563.5 225 563.5 225 536 214 c 128,-1,33
 508.5 203 508.5 203 471 196 c 128,-1,34
 433.5 189 433.5 189 389.5 189 c 0,35,36
 346.5 189 346.5 189 309 196 c 128,-1,37
 271.5 203 271.5 203 243.5 214 c 128,-1,38
 215.5 225 215.5 225 200 240 c 128,-1,39
 184.5 255 184.5 255 184.5 272 c 0,20,21
264.5 272 m 256,40,41
 264.5 261 264.5 261 274 251.5 c 128,-1,42
 283.5 242 283.5 242 300.5 235 c 128,-1,43
 317.5 228 317.5 228 340.5 224 c 128,-1,44
 363.5 220 363.5 220 389.5 220 c 0,45,46
 416.5 220 416.5 220 439 224 c 128,-1,47
 461.5 228 461.5 228 478.5 235 c 128,-1,48
 495.5 242 495.5 242 505 251.5 c 128,-1,49
 514.5 261 514.5 261 514.5 272 c 256,50,51
 514.5 283 514.5 283 505 292.5 c 128,-1,52
 495.5 302 495.5 302 478.5 309 c 128,-1,53
 461.5 316 461.5 316 439 320 c 128,-1,54
 416.5 324 416.5 324 389.5 324 c 0,55,56
 363.5 324 363.5 324 340.5 320 c 128,-1,57
 317.5 316 317.5 316 300.5 309 c 128,-1,58
 283.5 302 283.5 302 274 292.5 c 128,-1,59
 264.5 283 264.5 283 264.5 272 c 256,40,41
184.5 461 m 256,60,61
 184.5 478 184.5 478 200 493.5 c 128,-1,62
 215.5 509 215.5 509 243.5 520 c 128,-1,63
 271.5 531 271.5 531 309 537.5 c 128,-1,64
 346.5 544 346.5 544 389.5 544 c 0,65,66
 433.5 544 433.5 544 471 537.5 c 128,-1,67
 508.5 531 508.5 531 536 520 c 128,-1,68
 563.5 509 563.5 509 579.5 493.5 c 128,-1,69
 595.5 478 595.5 478 595.5 461 c 256,70,71
 595.5 444 595.5 444 579.5 429 c 128,-1,72
 563.5 414 563.5 414 536 402.5 c 128,-1,73
 508.5 391 508.5 391 471 384.5 c 128,-1,74
 433.5 378 433.5 378 389.5 378 c 0,75,76
 346.5 378 346.5 378 309 384.5 c 128,-1,77
 271.5 391 271.5 391 243.5 402.5 c 128,-1,78
 215.5 414 215.5 414 200 429 c 128,-1,79
 184.5 444 184.5 444 184.5 461 c 256,60,61
184.5 648 m 256,80,81
 184.5 665 184.5 665 200 680.5 c 128,-1,82
 215.5 696 215.5 696 243.5 707 c 128,-1,83
 271.5 718 271.5 718 309 724.5 c 128,-1,84
 346.5 731 346.5 731 389.5 731 c 0,85,86
 433.5 731 433.5 731 471 724.5 c 128,-1,87
 508.5 718 508.5 718 536 707 c 128,-1,88
 563.5 696 563.5 696 579.5 680.5 c 128,-1,89
 595.5 665 595.5 665 595.5 648 c 256,90,91
 595.5 631 595.5 631 579.5 616 c 128,-1,92
 563.5 601 563.5 601 536 589.5 c 128,-1,93
 508.5 578 508.5 578 471 571.5 c 128,-1,94
 433.5 565 433.5 565 389.5 565 c 0,95,96
 346.5 565 346.5 565 309 571.5 c 128,-1,97
 271.5 578 271.5 578 243.5 589.5 c 128,-1,98
 215.5 601 215.5 601 200 616 c 128,-1,99
 184.5 631 184.5 631 184.5 648 c 256,80,81
264.5 648 m 0,100,101
 264.5 637 264.5 637 274 627.5 c 128,-1,102
 283.5 618 283.5 618 300.5 611 c 128,-1,103
 317.5 604 317.5 604 340.5 600 c 128,-1,104
 363.5 596 363.5 596 389.5 596 c 0,105,106
 416.5 596 416.5 596 439 600 c 128,-1,107
 461.5 604 461.5 604 478.5 611 c 128,-1,108
 495.5 618 495.5 618 505 627.5 c 128,-1,109
 514.5 637 514.5 637 514.5 648 c 0,110,111
 514.5 658 514.5 658 505 668 c 128,-1,112
 495.5 678 495.5 678 478.5 685 c 128,-1,113
 461.5 692 461.5 692 439 696 c 128,-1,114
 416.5 700 416.5 700 389.5 700 c 0,115,116
 363.5 700 363.5 700 340.5 696 c 128,-1,117
 317.5 692 317.5 692 300.5 685 c 128,-1,118
 283.5 678 283.5 678 274 668 c 128,-1,119
 264.5 658 264.5 658 264.5 648 c 0,100,101
EndSplineSet
EndChar

StartChar: uni0086
Encoding: 134 134 104
Width: 780
Flags: W
LayerCount: 2
Fore
SplineSet
184.5 85 m 0,0,1
 184.5 103 184.5 103 200 118 c 128,-1,2
 215.5 133 215.5 133 243.5 144.5 c 128,-1,3
 271.5 156 271.5 156 309 162.5 c 128,-1,4
 346.5 169 346.5 169 389.5 169 c 0,5,6
 433.5 169 433.5 169 471 162.5 c 128,-1,7
 508.5 156 508.5 156 536 144.5 c 128,-1,8
 563.5 133 563.5 133 579.5 118 c 128,-1,9
 595.5 103 595.5 103 595.5 85 c 0,10,11
 595.5 68 595.5 68 579.5 53 c 128,-1,12
 563.5 38 563.5 38 536 27 c 128,-1,13
 508.5 16 508.5 16 471 9.5 c 128,-1,14
 433.5 3 433.5 3 389.5 3 c 0,15,16
 346.5 3 346.5 3 309 9.5 c 128,-1,17
 271.5 16 271.5 16 243.5 27 c 128,-1,18
 215.5 38 215.5 38 200 53 c 128,-1,19
 184.5 68 184.5 68 184.5 85 c 0,0,1
264.5 85 m 256,20,21
 264.5 74 264.5 74 274 64.5 c 128,-1,22
 283.5 55 283.5 55 300.5 48.5 c 128,-1,23
 317.5 42 317.5 42 340.5 38 c 128,-1,24
 363.5 34 363.5 34 389.5 34 c 0,25,26
 416.5 34 416.5 34 439 38 c 128,-1,27
 461.5 42 461.5 42 478.5 48.5 c 128,-1,28
 495.5 55 495.5 55 505 64.5 c 128,-1,29
 514.5 74 514.5 74 514.5 85 c 256,30,31
 514.5 96 514.5 96 505 105.5 c 128,-1,32
 495.5 115 495.5 115 478.5 122 c 128,-1,33
 461.5 129 461.5 129 439 133 c 128,-1,34
 416.5 137 416.5 137 389.5 137 c 0,35,36
 363.5 137 363.5 137 340.5 133 c 128,-1,37
 317.5 129 317.5 129 300.5 122 c 128,-1,38
 283.5 115 283.5 115 274 105.5 c 128,-1,39
 264.5 96 264.5 96 264.5 85 c 256,20,21
184.5 272 m 0,40,41
 184.5 290 184.5 290 200 305 c 128,-1,42
 215.5 320 215.5 320 243.5 331.5 c 128,-1,43
 271.5 343 271.5 343 309 349 c 128,-1,44
 346.5 355 346.5 355 389.5 355 c 0,45,46
 433.5 355 433.5 355 471 349 c 128,-1,47
 508.5 343 508.5 343 536 331.5 c 128,-1,48
 563.5 320 563.5 320 579.5 305 c 128,-1,49
 595.5 290 595.5 290 595.5 272 c 0,50,51
 595.5 255 595.5 255 579.5 240 c 128,-1,52
 563.5 225 563.5 225 536 214 c 128,-1,53
 508.5 203 508.5 203 471 196 c 128,-1,54
 433.5 189 433.5 189 389.5 189 c 0,55,56
 346.5 189 346.5 189 309 196 c 128,-1,57
 271.5 203 271.5 203 243.5 214 c 128,-1,58
 215.5 225 215.5 225 200 240 c 128,-1,59
 184.5 255 184.5 255 184.5 272 c 0,40,41
184.5 461 m 256,60,61
 184.5 478 184.5 478 200 493.5 c 128,-1,62
 215.5 509 215.5 509 243.5 520 c 128,-1,63
 271.5 531 271.5 531 309 537.5 c 128,-1,64
 346.5 544 346.5 544 389.5 544 c 0,65,66
 433.5 544 433.5 544 471 537.5 c 128,-1,67
 508.5 531 508.5 531 536 520 c 128,-1,68
 563.5 509 563.5 509 579.5 493.5 c 128,-1,69
 595.5 478 595.5 478 595.5 461 c 256,70,71
 595.5 444 595.5 444 579.5 429 c 128,-1,72
 563.5 414 563.5 414 536 402.5 c 128,-1,73
 508.5 391 508.5 391 471 384.5 c 128,-1,74
 433.5 378 433.5 378 389.5 378 c 0,75,76
 346.5 378 346.5 378 309 384.5 c 128,-1,77
 271.5 391 271.5 391 243.5 402.5 c 128,-1,78
 215.5 414 215.5 414 200 429 c 128,-1,79
 184.5 444 184.5 444 184.5 461 c 256,60,61
184.5 648 m 256,80,81
 184.5 665 184.5 665 200 680.5 c 128,-1,82
 215.5 696 215.5 696 243.5 707 c 128,-1,83
 271.5 718 271.5 718 309 724.5 c 128,-1,84
 346.5 731 346.5 731 389.5 731 c 0,85,86
 433.5 731 433.5 731 471 724.5 c 128,-1,87
 508.5 718 508.5 718 536 707 c 128,-1,88
 563.5 696 563.5 696 579.5 680.5 c 128,-1,89
 595.5 665 595.5 665 595.5 648 c 256,90,91
 595.5 631 595.5 631 579.5 616 c 128,-1,92
 563.5 601 563.5 601 536 589.5 c 128,-1,93
 508.5 578 508.5 578 471 571.5 c 128,-1,94
 433.5 565 433.5 565 389.5 565 c 0,95,96
 346.5 565 346.5 565 309 571.5 c 128,-1,97
 271.5 578 271.5 578 243.5 589.5 c 128,-1,98
 215.5 601 215.5 601 200 616 c 128,-1,99
 184.5 631 184.5 631 184.5 648 c 256,80,81
264.5 648 m 0,100,101
 264.5 637 264.5 637 274 627.5 c 128,-1,102
 283.5 618 283.5 618 300.5 611 c 128,-1,103
 317.5 604 317.5 604 340.5 600 c 128,-1,104
 363.5 596 363.5 596 389.5 596 c 0,105,106
 416.5 596 416.5 596 439 600 c 128,-1,107
 461.5 604 461.5 604 478.5 611 c 128,-1,108
 495.5 618 495.5 618 505 627.5 c 128,-1,109
 514.5 637 514.5 637 514.5 648 c 0,110,111
 514.5 658 514.5 658 505 668 c 128,-1,112
 495.5 678 495.5 678 478.5 685 c 128,-1,113
 461.5 692 461.5 692 439 696 c 128,-1,114
 416.5 700 416.5 700 389.5 700 c 0,115,116
 363.5 700 363.5 700 340.5 696 c 128,-1,117
 317.5 692 317.5 692 300.5 685 c 128,-1,118
 283.5 678 283.5 678 274 668 c 128,-1,119
 264.5 658 264.5 658 264.5 648 c 0,100,101
EndSplineSet
EndChar

StartChar: uni0087
Encoding: 135 135 105
Width: 780
Flags: W
LayerCount: 2
Fore
SplineSet
184.5 85 m 0,0,1
 184.5 103 184.5 103 200 118 c 128,-1,2
 215.5 133 215.5 133 243.5 144.5 c 128,-1,3
 271.5 156 271.5 156 309 162.5 c 128,-1,4
 346.5 169 346.5 169 389.5 169 c 0,5,6
 433.5 169 433.5 169 471 162.5 c 128,-1,7
 508.5 156 508.5 156 536 144.5 c 128,-1,8
 563.5 133 563.5 133 579.5 118 c 128,-1,9
 595.5 103 595.5 103 595.5 85 c 0,10,11
 595.5 68 595.5 68 579.5 53 c 128,-1,12
 563.5 38 563.5 38 536 27 c 128,-1,13
 508.5 16 508.5 16 471 9.5 c 128,-1,14
 433.5 3 433.5 3 389.5 3 c 0,15,16
 346.5 3 346.5 3 309 9.5 c 128,-1,17
 271.5 16 271.5 16 243.5 27 c 128,-1,18
 215.5 38 215.5 38 200 53 c 128,-1,19
 184.5 68 184.5 68 184.5 85 c 0,0,1
184.5 272 m 0,20,21
 184.5 290 184.5 290 200 305 c 128,-1,22
 215.5 320 215.5 320 243.5 331.5 c 128,-1,23
 271.5 343 271.5 343 309 349 c 128,-1,24
 346.5 355 346.5 355 389.5 355 c 0,25,26
 433.5 355 433.5 355 471 349 c 128,-1,27
 508.5 343 508.5 343 536 331.5 c 128,-1,28
 563.5 320 563.5 320 579.5 305 c 128,-1,29
 595.5 290 595.5 290 595.5 272 c 0,30,31
 595.5 255 595.5 255 579.5 240 c 128,-1,32
 563.5 225 563.5 225 536 214 c 128,-1,33
 508.5 203 508.5 203 471 196 c 128,-1,34
 433.5 189 433.5 189 389.5 189 c 0,35,36
 346.5 189 346.5 189 309 196 c 128,-1,37
 271.5 203 271.5 203 243.5 214 c 128,-1,38
 215.5 225 215.5 225 200 240 c 128,-1,39
 184.5 255 184.5 255 184.5 272 c 0,20,21
184.5 461 m 256,40,41
 184.5 478 184.5 478 200 493.5 c 128,-1,42
 215.5 509 215.5 509 243.5 520 c 128,-1,43
 271.5 531 271.5 531 309 537.5 c 128,-1,44
 346.5 544 346.5 544 389.5 544 c 0,45,46
 433.5 544 433.5 544 471 537.5 c 128,-1,47
 508.5 531 508.5 531 536 520 c 128,-1,48
 563.5 509 563.5 509 579.5 493.5 c 128,-1,49
 595.5 478 595.5 478 595.5 461 c 256,50,51
 595.5 444 595.5 444 579.5 429 c 128,-1,52
 563.5 414 563.5 414 536 402.5 c 128,-1,53
 508.5 391 508.5 391 471 384.5 c 128,-1,54
 433.5 378 433.5 378 389.5 378 c 0,55,56
 346.5 378 346.5 378 309 384.5 c 128,-1,57
 271.5 391 271.5 391 243.5 402.5 c 128,-1,58
 215.5 414 215.5 414 200 429 c 128,-1,59
 184.5 444 184.5 444 184.5 461 c 256,40,41
184.5 648 m 256,60,61
 184.5 665 184.5 665 200 680.5 c 128,-1,62
 215.5 696 215.5 696 243.5 707 c 128,-1,63
 271.5 718 271.5 718 309 724.5 c 128,-1,64
 346.5 731 346.5 731 389.5 731 c 0,65,66
 433.5 731 433.5 731 471 724.5 c 128,-1,67
 508.5 718 508.5 718 536 707 c 128,-1,68
 563.5 696 563.5 696 579.5 680.5 c 128,-1,69
 595.5 665 595.5 665 595.5 648 c 256,70,71
 595.5 631 595.5 631 579.5 616 c 128,-1,72
 563.5 601 563.5 601 536 589.5 c 128,-1,73
 508.5 578 508.5 578 471 571.5 c 128,-1,74
 433.5 565 433.5 565 389.5 565 c 0,75,76
 346.5 565 346.5 565 309 571.5 c 128,-1,77
 271.5 578 271.5 578 243.5 589.5 c 128,-1,78
 215.5 601 215.5 601 200 616 c 128,-1,79
 184.5 631 184.5 631 184.5 648 c 256,60,61
264.5 648 m 0,80,81
 264.5 637 264.5 637 274 627.5 c 128,-1,82
 283.5 618 283.5 618 300.5 611 c 128,-1,83
 317.5 604 317.5 604 340.5 600 c 128,-1,84
 363.5 596 363.5 596 389.5 596 c 0,85,86
 416.5 596 416.5 596 439 600 c 128,-1,87
 461.5 604 461.5 604 478.5 611 c 128,-1,88
 495.5 618 495.5 618 505 627.5 c 128,-1,89
 514.5 637 514.5 637 514.5 648 c 0,90,91
 514.5 658 514.5 658 505 668 c 128,-1,92
 495.5 678 495.5 678 478.5 685 c 128,-1,93
 461.5 692 461.5 692 439 696 c 128,-1,94
 416.5 700 416.5 700 389.5 700 c 0,95,96
 363.5 700 363.5 700 340.5 696 c 128,-1,97
 317.5 692 317.5 692 300.5 685 c 128,-1,98
 283.5 678 283.5 678 274 668 c 128,-1,99
 264.5 658 264.5 658 264.5 648 c 0,80,81
EndSplineSet
EndChar

StartChar: uni0088
Encoding: 136 136 106
Width: 780
Flags: W
LayerCount: 2
Fore
SplineSet
184.5 85 m 0,0,1
 184.5 103 184.5 103 200 118 c 128,-1,2
 215.5 133 215.5 133 243.5 144.5 c 128,-1,3
 271.5 156 271.5 156 309 162.5 c 128,-1,4
 346.5 169 346.5 169 389.5 169 c 0,5,6
 433.5 169 433.5 169 471 162.5 c 128,-1,7
 508.5 156 508.5 156 536 144.5 c 128,-1,8
 563.5 133 563.5 133 579.5 118 c 128,-1,9
 595.5 103 595.5 103 595.5 85 c 0,10,11
 595.5 68 595.5 68 579.5 53 c 128,-1,12
 563.5 38 563.5 38 536 27 c 128,-1,13
 508.5 16 508.5 16 471 9.5 c 128,-1,14
 433.5 3 433.5 3 389.5 3 c 0,15,16
 346.5 3 346.5 3 309 9.5 c 128,-1,17
 271.5 16 271.5 16 243.5 27 c 128,-1,18
 215.5 38 215.5 38 200 53 c 128,-1,19
 184.5 68 184.5 68 184.5 85 c 0,0,1
264.5 85 m 256,20,21
 264.5 74 264.5 74 274 64.5 c 128,-1,22
 283.5 55 283.5 55 300.5 48.5 c 128,-1,23
 317.5 42 317.5 42 340.5 38 c 128,-1,24
 363.5 34 363.5 34 389.5 34 c 0,25,26
 416.5 34 416.5 34 439 38 c 128,-1,27
 461.5 42 461.5 42 478.5 48.5 c 128,-1,28
 495.5 55 495.5 55 505 64.5 c 128,-1,29
 514.5 74 514.5 74 514.5 85 c 256,30,31
 514.5 96 514.5 96 505 105.5 c 128,-1,32
 495.5 115 495.5 115 478.5 122 c 128,-1,33
 461.5 129 461.5 129 439 133 c 128,-1,34
 416.5 137 416.5 137 389.5 137 c 0,35,36
 363.5 137 363.5 137 340.5 133 c 128,-1,37
 317.5 129 317.5 129 300.5 122 c 128,-1,38
 283.5 115 283.5 115 274 105.5 c 128,-1,39
 264.5 96 264.5 96 264.5 85 c 256,20,21
184.5 272 m 0,40,41
 184.5 290 184.5 290 200 305 c 128,-1,42
 215.5 320 215.5 320 243.5 331.5 c 128,-1,43
 271.5 343 271.5 343 309 349 c 128,-1,44
 346.5 355 346.5 355 389.5 355 c 0,45,46
 433.5 355 433.5 355 471 349 c 128,-1,47
 508.5 343 508.5 343 536 331.5 c 128,-1,48
 563.5 320 563.5 320 579.5 305 c 128,-1,49
 595.5 290 595.5 290 595.5 272 c 0,50,51
 595.5 255 595.5 255 579.5 240 c 128,-1,52
 563.5 225 563.5 225 536 214 c 128,-1,53
 508.5 203 508.5 203 471 196 c 128,-1,54
 433.5 189 433.5 189 389.5 189 c 0,55,56
 346.5 189 346.5 189 309 196 c 128,-1,57
 271.5 203 271.5 203 243.5 214 c 128,-1,58
 215.5 225 215.5 225 200 240 c 128,-1,59
 184.5 255 184.5 255 184.5 272 c 0,40,41
264.5 272 m 256,60,61
 264.5 261 264.5 261 274 251.5 c 128,-1,62
 283.5 242 283.5 242 300.5 235 c 128,-1,63
 317.5 228 317.5 228 340.5 224 c 128,-1,64
 363.5 220 363.5 220 389.5 220 c 0,65,66
 416.5 220 416.5 220 439 224 c 128,-1,67
 461.5 228 461.5 228 478.5 235 c 128,-1,68
 495.5 242 495.5 242 505 251.5 c 128,-1,69
 514.5 261 514.5 261 514.5 272 c 256,70,71
 514.5 283 514.5 283 505 292.5 c 128,-1,72
 495.5 302 495.5 302 478.5 309 c 128,-1,73
 461.5 316 461.5 316 439 320 c 128,-1,74
 416.5 324 416.5 324 389.5 324 c 0,75,76
 363.5 324 363.5 324 340.5 320 c 128,-1,77
 317.5 316 317.5 316 300.5 309 c 128,-1,78
 283.5 302 283.5 302 274 292.5 c 128,-1,79
 264.5 283 264.5 283 264.5 272 c 256,60,61
184.5 461 m 256,80,81
 184.5 478 184.5 478 200 493.5 c 128,-1,82
 215.5 509 215.5 509 243.5 520 c 128,-1,83
 271.5 531 271.5 531 309 537.5 c 128,-1,84
 346.5 544 346.5 544 389.5 544 c 0,85,86
 433.5 544 433.5 544 471 537.5 c 128,-1,87
 508.5 531 508.5 531 536 520 c 128,-1,88
 563.5 509 563.5 509 579.5 493.5 c 128,-1,89
 595.5 478 595.5 478 595.5 461 c 256,90,91
 595.5 444 595.5 444 579.5 429 c 128,-1,92
 563.5 414 563.5 414 536 402.5 c 128,-1,93
 508.5 391 508.5 391 471 384.5 c 128,-1,94
 433.5 378 433.5 378 389.5 378 c 0,95,96
 346.5 378 346.5 378 309 384.5 c 128,-1,97
 271.5 391 271.5 391 243.5 402.5 c 128,-1,98
 215.5 414 215.5 414 200 429 c 128,-1,99
 184.5 444 184.5 444 184.5 461 c 256,80,81
264.5 461 m 256,100,101
 264.5 450 264.5 450 274 440.5 c 128,-1,102
 283.5 431 283.5 431 300.5 424 c 128,-1,103
 317.5 417 317.5 417 340.5 413 c 128,-1,104
 363.5 409 363.5 409 389.5 409 c 0,105,106
 416.5 409 416.5 409 439 413 c 128,-1,107
 461.5 417 461.5 417 478.5 424 c 128,-1,108
 495.5 431 495.5 431 505 440.5 c 128,-1,109
 514.5 450 514.5 450 514.5 461 c 256,110,111
 514.5 472 514.5 472 505 481.5 c 128,-1,112
 495.5 491 495.5 491 478.5 498 c 128,-1,113
 461.5 505 461.5 505 439 509 c 128,-1,114
 416.5 513 416.5 513 389.5 513 c 0,115,116
 363.5 513 363.5 513 340.5 509 c 128,-1,117
 317.5 505 317.5 505 300.5 498 c 128,-1,118
 283.5 491 283.5 491 274 481.5 c 128,-1,119
 264.5 472 264.5 472 264.5 461 c 256,100,101
184.5 648 m 256,120,121
 184.5 665 184.5 665 200 680.5 c 128,-1,122
 215.5 696 215.5 696 243.5 707 c 128,-1,123
 271.5 718 271.5 718 309 724.5 c 128,-1,124
 346.5 731 346.5 731 389.5 731 c 0,125,126
 433.5 731 433.5 731 471 724.5 c 128,-1,127
 508.5 718 508.5 718 536 707 c 128,-1,128
 563.5 696 563.5 696 579.5 680.5 c 128,-1,129
 595.5 665 595.5 665 595.5 648 c 256,130,131
 595.5 631 595.5 631 579.5 616 c 128,-1,132
 563.5 601 563.5 601 536 589.5 c 128,-1,133
 508.5 578 508.5 578 471 571.5 c 128,-1,134
 433.5 565 433.5 565 389.5 565 c 0,135,136
 346.5 565 346.5 565 309 571.5 c 128,-1,137
 271.5 578 271.5 578 243.5 589.5 c 128,-1,138
 215.5 601 215.5 601 200 616 c 128,-1,139
 184.5 631 184.5 631 184.5 648 c 256,120,121
EndSplineSet
EndChar

StartChar: uni0089
Encoding: 137 137 107
Width: 780
Flags: W
LayerCount: 2
Fore
SplineSet
184.5 85 m 0,0,1
 184.5 103 184.5 103 200 118 c 128,-1,2
 215.5 133 215.5 133 243.5 144.5 c 128,-1,3
 271.5 156 271.5 156 309 162.5 c 128,-1,4
 346.5 169 346.5 169 389.5 169 c 0,5,6
 433.5 169 433.5 169 471 162.5 c 128,-1,7
 508.5 156 508.5 156 536 144.5 c 128,-1,8
 563.5 133 563.5 133 579.5 118 c 128,-1,9
 595.5 103 595.5 103 595.5 85 c 0,10,11
 595.5 68 595.5 68 579.5 53 c 128,-1,12
 563.5 38 563.5 38 536 27 c 128,-1,13
 508.5 16 508.5 16 471 9.5 c 128,-1,14
 433.5 3 433.5 3 389.5 3 c 0,15,16
 346.5 3 346.5 3 309 9.5 c 128,-1,17
 271.5 16 271.5 16 243.5 27 c 128,-1,18
 215.5 38 215.5 38 200 53 c 128,-1,19
 184.5 68 184.5 68 184.5 85 c 0,0,1
184.5 272 m 0,20,21
 184.5 290 184.5 290 200 305 c 128,-1,22
 215.5 320 215.5 320 243.5 331.5 c 128,-1,23
 271.5 343 271.5 343 309 349 c 128,-1,24
 346.5 355 346.5 355 389.5 355 c 0,25,26
 433.5 355 433.5 355 471 349 c 128,-1,27
 508.5 343 508.5 343 536 331.5 c 128,-1,28
 563.5 320 563.5 320 579.5 305 c 128,-1,29
 595.5 290 595.5 290 595.5 272 c 0,30,31
 595.5 255 595.5 255 579.5 240 c 128,-1,32
 563.5 225 563.5 225 536 214 c 128,-1,33
 508.5 203 508.5 203 471 196 c 128,-1,34
 433.5 189 433.5 189 389.5 189 c 0,35,36
 346.5 189 346.5 189 309 196 c 128,-1,37
 271.5 203 271.5 203 243.5 214 c 128,-1,38
 215.5 225 215.5 225 200 240 c 128,-1,39
 184.5 255 184.5 255 184.5 272 c 0,20,21
264.5 272 m 256,40,41
 264.5 261 264.5 261 274 251.5 c 128,-1,42
 283.5 242 283.5 242 300.5 235 c 128,-1,43
 317.5 228 317.5 228 340.5 224 c 128,-1,44
 363.5 220 363.5 220 389.5 220 c 0,45,46
 416.5 220 416.5 220 439 224 c 128,-1,47
 461.5 228 461.5 228 478.5 235 c 128,-1,48
 495.5 242 495.5 242 505 251.5 c 128,-1,49
 514.5 261 514.5 261 514.5 272 c 256,50,51
 514.5 283 514.5 283 505 292.5 c 128,-1,52
 495.5 302 495.5 302 478.5 309 c 128,-1,53
 461.5 316 461.5 316 439 320 c 128,-1,54
 416.5 324 416.5 324 389.5 324 c 0,55,56
 363.5 324 363.5 324 340.5 320 c 128,-1,57
 317.5 316 317.5 316 300.5 309 c 128,-1,58
 283.5 302 283.5 302 274 292.5 c 128,-1,59
 264.5 283 264.5 283 264.5 272 c 256,40,41
184.5 461 m 256,60,61
 184.5 478 184.5 478 200 493.5 c 128,-1,62
 215.5 509 215.5 509 243.5 520 c 128,-1,63
 271.5 531 271.5 531 309 537.5 c 128,-1,64
 346.5 544 346.5 544 389.5 544 c 0,65,66
 433.5 544 433.5 544 471 537.5 c 128,-1,67
 508.5 531 508.5 531 536 520 c 128,-1,68
 563.5 509 563.5 509 579.5 493.5 c 128,-1,69
 595.5 478 595.5 478 595.5 461 c 256,70,71
 595.5 444 595.5 444 579.5 429 c 128,-1,72
 563.5 414 563.5 414 536 402.5 c 128,-1,73
 508.5 391 508.5 391 471 384.5 c 128,-1,74
 433.5 378 433.5 378 389.5 378 c 0,75,76
 346.5 378 346.5 378 309 384.5 c 128,-1,77
 271.5 391 271.5 391 243.5 402.5 c 128,-1,78
 215.5 414 215.5 414 200 429 c 128,-1,79
 184.5 444 184.5 444 184.5 461 c 256,60,61
264.5 461 m 256,80,81
 264.5 450 264.5 450 274 440.5 c 128,-1,82
 283.5 431 283.5 431 300.5 424 c 128,-1,83
 317.5 417 317.5 417 340.5 413 c 128,-1,84
 363.5 409 363.5 409 389.5 409 c 0,85,86
 416.5 409 416.5 409 439 413 c 128,-1,87
 461.5 417 461.5 417 478.5 424 c 128,-1,88
 495.5 431 495.5 431 505 440.5 c 128,-1,89
 514.5 450 514.5 450 514.5 461 c 256,90,91
 514.5 472 514.5 472 505 481.5 c 128,-1,92
 495.5 491 495.5 491 478.5 498 c 128,-1,93
 461.5 505 461.5 505 439 509 c 128,-1,94
 416.5 513 416.5 513 389.5 513 c 0,95,96
 363.5 513 363.5 513 340.5 509 c 128,-1,97
 317.5 505 317.5 505 300.5 498 c 128,-1,98
 283.5 491 283.5 491 274 481.5 c 128,-1,99
 264.5 472 264.5 472 264.5 461 c 256,80,81
184.5 648 m 256,100,101
 184.5 665 184.5 665 200 680.5 c 128,-1,102
 215.5 696 215.5 696 243.5 707 c 128,-1,103
 271.5 718 271.5 718 309 724.5 c 128,-1,104
 346.5 731 346.5 731 389.5 731 c 0,105,106
 433.5 731 433.5 731 471 724.5 c 128,-1,107
 508.5 718 508.5 718 536 707 c 128,-1,108
 563.5 696 563.5 696 579.5 680.5 c 128,-1,109
 595.5 665 595.5 665 595.5 648 c 256,110,111
 595.5 631 595.5 631 579.5 616 c 128,-1,112
 563.5 601 563.5 601 536 589.5 c 128,-1,113
 508.5 578 508.5 578 471 571.5 c 128,-1,114
 433.5 565 433.5 565 389.5 565 c 0,115,116
 346.5 565 346.5 565 309 571.5 c 128,-1,117
 271.5 578 271.5 578 243.5 589.5 c 128,-1,118
 215.5 601 215.5 601 200 616 c 128,-1,119
 184.5 631 184.5 631 184.5 648 c 256,100,101
EndSplineSet
EndChar

StartChar: uni008A
Encoding: 138 138 108
Width: 780
Flags: W
LayerCount: 2
Fore
SplineSet
184.5 85 m 0,0,1
 184.5 103 184.5 103 200 118 c 128,-1,2
 215.5 133 215.5 133 243.5 144.5 c 128,-1,3
 271.5 156 271.5 156 309 162.5 c 128,-1,4
 346.5 169 346.5 169 389.5 169 c 0,5,6
 433.5 169 433.5 169 471 162.5 c 128,-1,7
 508.5 156 508.5 156 536 144.5 c 128,-1,8
 563.5 133 563.5 133 579.5 118 c 128,-1,9
 595.5 103 595.5 103 595.5 85 c 0,10,11
 595.5 68 595.5 68 579.5 53 c 128,-1,12
 563.5 38 563.5 38 536 27 c 128,-1,13
 508.5 16 508.5 16 471 9.5 c 128,-1,14
 433.5 3 433.5 3 389.5 3 c 0,15,16
 346.5 3 346.5 3 309 9.5 c 128,-1,17
 271.5 16 271.5 16 243.5 27 c 128,-1,18
 215.5 38 215.5 38 200 53 c 128,-1,19
 184.5 68 184.5 68 184.5 85 c 0,0,1
264.5 85 m 256,20,21
 264.5 74 264.5 74 274 64.5 c 128,-1,22
 283.5 55 283.5 55 300.5 48.5 c 128,-1,23
 317.5 42 317.5 42 340.5 38 c 128,-1,24
 363.5 34 363.5 34 389.5 34 c 0,25,26
 416.5 34 416.5 34 439 38 c 128,-1,27
 461.5 42 461.5 42 478.5 48.5 c 128,-1,28
 495.5 55 495.5 55 505 64.5 c 128,-1,29
 514.5 74 514.5 74 514.5 85 c 256,30,31
 514.5 96 514.5 96 505 105.5 c 128,-1,32
 495.5 115 495.5 115 478.5 122 c 128,-1,33
 461.5 129 461.5 129 439 133 c 128,-1,34
 416.5 137 416.5 137 389.5 137 c 0,35,36
 363.5 137 363.5 137 340.5 133 c 128,-1,37
 317.5 129 317.5 129 300.5 122 c 128,-1,38
 283.5 115 283.5 115 274 105.5 c 128,-1,39
 264.5 96 264.5 96 264.5 85 c 256,20,21
184.5 272 m 0,40,41
 184.5 290 184.5 290 200 305 c 128,-1,42
 215.5 320 215.5 320 243.5 331.5 c 128,-1,43
 271.5 343 271.5 343 309 349 c 128,-1,44
 346.5 355 346.5 355 389.5 355 c 0,45,46
 433.5 355 433.5 355 471 349 c 128,-1,47
 508.5 343 508.5 343 536 331.5 c 128,-1,48
 563.5 320 563.5 320 579.5 305 c 128,-1,49
 595.5 290 595.5 290 595.5 272 c 0,50,51
 595.5 255 595.5 255 579.5 240 c 128,-1,52
 563.5 225 563.5 225 536 214 c 128,-1,53
 508.5 203 508.5 203 471 196 c 128,-1,54
 433.5 189 433.5 189 389.5 189 c 0,55,56
 346.5 189 346.5 189 309 196 c 128,-1,57
 271.5 203 271.5 203 243.5 214 c 128,-1,58
 215.5 225 215.5 225 200 240 c 128,-1,59
 184.5 255 184.5 255 184.5 272 c 0,40,41
184.5 461 m 256,60,61
 184.5 478 184.5 478 200 493.5 c 128,-1,62
 215.5 509 215.5 509 243.5 520 c 128,-1,63
 271.5 531 271.5 531 309 537.5 c 128,-1,64
 346.5 544 346.5 544 389.5 544 c 0,65,66
 433.5 544 433.5 544 471 537.5 c 128,-1,67
 508.5 531 508.5 531 536 520 c 128,-1,68
 563.5 509 563.5 509 579.5 493.5 c 128,-1,69
 595.5 478 595.5 478 595.5 461 c 256,70,71
 595.5 444 595.5 444 579.5 429 c 128,-1,72
 563.5 414 563.5 414 536 402.5 c 128,-1,73
 508.5 391 508.5 391 471 384.5 c 128,-1,74
 433.5 378 433.5 378 389.5 378 c 0,75,76
 346.5 378 346.5 378 309 384.5 c 128,-1,77
 271.5 391 271.5 391 243.5 402.5 c 128,-1,78
 215.5 414 215.5 414 200 429 c 128,-1,79
 184.5 444 184.5 444 184.5 461 c 256,60,61
264.5 461 m 256,80,81
 264.5 450 264.5 450 274 440.5 c 128,-1,82
 283.5 431 283.5 431 300.5 424 c 128,-1,83
 317.5 417 317.5 417 340.5 413 c 128,-1,84
 363.5 409 363.5 409 389.5 409 c 0,85,86
 416.5 409 416.5 409 439 413 c 128,-1,87
 461.5 417 461.5 417 478.5 424 c 128,-1,88
 495.5 431 495.5 431 505 440.5 c 128,-1,89
 514.5 450 514.5 450 514.5 461 c 256,90,91
 514.5 472 514.5 472 505 481.5 c 128,-1,92
 495.5 491 495.5 491 478.5 498 c 128,-1,93
 461.5 505 461.5 505 439 509 c 128,-1,94
 416.5 513 416.5 513 389.5 513 c 0,95,96
 363.5 513 363.5 513 340.5 509 c 128,-1,97
 317.5 505 317.5 505 300.5 498 c 128,-1,98
 283.5 491 283.5 491 274 481.5 c 128,-1,99
 264.5 472 264.5 472 264.5 461 c 256,80,81
184.5 648 m 256,100,101
 184.5 665 184.5 665 200 680.5 c 128,-1,102
 215.5 696 215.5 696 243.5 707 c 128,-1,103
 271.5 718 271.5 718 309 724.5 c 128,-1,104
 346.5 731 346.5 731 389.5 731 c 0,105,106
 433.5 731 433.5 731 471 724.5 c 128,-1,107
 508.5 718 508.5 718 536 707 c 128,-1,108
 563.5 696 563.5 696 579.5 680.5 c 128,-1,109
 595.5 665 595.5 665 595.5 648 c 256,110,111
 595.5 631 595.5 631 579.5 616 c 128,-1,112
 563.5 601 563.5 601 536 589.5 c 128,-1,113
 508.5 578 508.5 578 471 571.5 c 128,-1,114
 433.5 565 433.5 565 389.5 565 c 0,115,116
 346.5 565 346.5 565 309 571.5 c 128,-1,117
 271.5 578 271.5 578 243.5 589.5 c 128,-1,118
 215.5 601 215.5 601 200 616 c 128,-1,119
 184.5 631 184.5 631 184.5 648 c 256,100,101
EndSplineSet
EndChar

StartChar: uni008B
Encoding: 139 139 109
Width: 780
Flags: W
LayerCount: 2
Fore
SplineSet
184.5 85 m 0,0,1
 184.5 103 184.5 103 200 118 c 128,-1,2
 215.5 133 215.5 133 243.5 144.5 c 128,-1,3
 271.5 156 271.5 156 309 162.5 c 128,-1,4
 346.5 169 346.5 169 389.5 169 c 0,5,6
 433.5 169 433.5 169 471 162.5 c 128,-1,7
 508.5 156 508.5 156 536 144.5 c 128,-1,8
 563.5 133 563.5 133 579.5 118 c 128,-1,9
 595.5 103 595.5 103 595.5 85 c 0,10,11
 595.5 68 595.5 68 579.5 53 c 128,-1,12
 563.5 38 563.5 38 536 27 c 128,-1,13
 508.5 16 508.5 16 471 9.5 c 128,-1,14
 433.5 3 433.5 3 389.5 3 c 0,15,16
 346.5 3 346.5 3 309 9.5 c 128,-1,17
 271.5 16 271.5 16 243.5 27 c 128,-1,18
 215.5 38 215.5 38 200 53 c 128,-1,19
 184.5 68 184.5 68 184.5 85 c 0,0,1
184.5 272 m 0,20,21
 184.5 290 184.5 290 200 305 c 128,-1,22
 215.5 320 215.5 320 243.5 331.5 c 128,-1,23
 271.5 343 271.5 343 309 349 c 128,-1,24
 346.5 355 346.5 355 389.5 355 c 0,25,26
 433.5 355 433.5 355 471 349 c 128,-1,27
 508.5 343 508.5 343 536 331.5 c 128,-1,28
 563.5 320 563.5 320 579.5 305 c 128,-1,29
 595.5 290 595.5 290 595.5 272 c 0,30,31
 595.5 255 595.5 255 579.5 240 c 128,-1,32
 563.5 225 563.5 225 536 214 c 128,-1,33
 508.5 203 508.5 203 471 196 c 128,-1,34
 433.5 189 433.5 189 389.5 189 c 0,35,36
 346.5 189 346.5 189 309 196 c 128,-1,37
 271.5 203 271.5 203 243.5 214 c 128,-1,38
 215.5 225 215.5 225 200 240 c 128,-1,39
 184.5 255 184.5 255 184.5 272 c 0,20,21
184.5 461 m 256,40,41
 184.5 478 184.5 478 200 493.5 c 128,-1,42
 215.5 509 215.5 509 243.5 520 c 128,-1,43
 271.5 531 271.5 531 309 537.5 c 128,-1,44
 346.5 544 346.5 544 389.5 544 c 0,45,46
 433.5 544 433.5 544 471 537.5 c 128,-1,47
 508.5 531 508.5 531 536 520 c 128,-1,48
 563.5 509 563.5 509 579.5 493.5 c 128,-1,49
 595.5 478 595.5 478 595.5 461 c 256,50,51
 595.5 444 595.5 444 579.5 429 c 128,-1,52
 563.5 414 563.5 414 536 402.5 c 128,-1,53
 508.5 391 508.5 391 471 384.5 c 128,-1,54
 433.5 378 433.5 378 389.5 378 c 0,55,56
 346.5 378 346.5 378 309 384.5 c 128,-1,57
 271.5 391 271.5 391 243.5 402.5 c 128,-1,58
 215.5 414 215.5 414 200 429 c 128,-1,59
 184.5 444 184.5 444 184.5 461 c 256,40,41
264.5 461 m 256,60,61
 264.5 450 264.5 450 274 440.5 c 128,-1,62
 283.5 431 283.5 431 300.5 424 c 128,-1,63
 317.5 417 317.5 417 340.5 413 c 128,-1,64
 363.5 409 363.5 409 389.5 409 c 0,65,66
 416.5 409 416.5 409 439 413 c 128,-1,67
 461.5 417 461.5 417 478.5 424 c 128,-1,68
 495.5 431 495.5 431 505 440.5 c 128,-1,69
 514.5 450 514.5 450 514.5 461 c 256,70,71
 514.5 472 514.5 472 505 481.5 c 128,-1,72
 495.5 491 495.5 491 478.5 498 c 128,-1,73
 461.5 505 461.5 505 439 509 c 128,-1,74
 416.5 513 416.5 513 389.5 513 c 0,75,76
 363.5 513 363.5 513 340.5 509 c 128,-1,77
 317.5 505 317.5 505 300.5 498 c 128,-1,78
 283.5 491 283.5 491 274 481.5 c 128,-1,79
 264.5 472 264.5 472 264.5 461 c 256,60,61
184.5 648 m 256,80,81
 184.5 665 184.5 665 200 680.5 c 128,-1,82
 215.5 696 215.5 696 243.5 707 c 128,-1,83
 271.5 718 271.5 718 309 724.5 c 128,-1,84
 346.5 731 346.5 731 389.5 731 c 0,85,86
 433.5 731 433.5 731 471 724.5 c 128,-1,87
 508.5 718 508.5 718 536 707 c 128,-1,88
 563.5 696 563.5 696 579.5 680.5 c 128,-1,89
 595.5 665 595.5 665 595.5 648 c 256,90,91
 595.5 631 595.5 631 579.5 616 c 128,-1,92
 563.5 601 563.5 601 536 589.5 c 128,-1,93
 508.5 578 508.5 578 471 571.5 c 128,-1,94
 433.5 565 433.5 565 389.5 565 c 0,95,96
 346.5 565 346.5 565 309 571.5 c 128,-1,97
 271.5 578 271.5 578 243.5 589.5 c 128,-1,98
 215.5 601 215.5 601 200 616 c 128,-1,99
 184.5 631 184.5 631 184.5 648 c 256,80,81
EndSplineSet
EndChar

StartChar: uni008C
Encoding: 140 140 110
Width: 780
Flags: W
LayerCount: 2
Fore
SplineSet
184.5 85 m 0,0,1
 184.5 103 184.5 103 200 118 c 128,-1,2
 215.5 133 215.5 133 243.5 144.5 c 128,-1,3
 271.5 156 271.5 156 309 162.5 c 128,-1,4
 346.5 169 346.5 169 389.5 169 c 0,5,6
 433.5 169 433.5 169 471 162.5 c 128,-1,7
 508.5 156 508.5 156 536 144.5 c 128,-1,8
 563.5 133 563.5 133 579.5 118 c 128,-1,9
 595.5 103 595.5 103 595.5 85 c 0,10,11
 595.5 68 595.5 68 579.5 53 c 128,-1,12
 563.5 38 563.5 38 536 27 c 128,-1,13
 508.5 16 508.5 16 471 9.5 c 128,-1,14
 433.5 3 433.5 3 389.5 3 c 0,15,16
 346.5 3 346.5 3 309 9.5 c 128,-1,17
 271.5 16 271.5 16 243.5 27 c 128,-1,18
 215.5 38 215.5 38 200 53 c 128,-1,19
 184.5 68 184.5 68 184.5 85 c 0,0,1
264.5 85 m 256,20,21
 264.5 74 264.5 74 274 64.5 c 128,-1,22
 283.5 55 283.5 55 300.5 48.5 c 128,-1,23
 317.5 42 317.5 42 340.5 38 c 128,-1,24
 363.5 34 363.5 34 389.5 34 c 0,25,26
 416.5 34 416.5 34 439 38 c 128,-1,27
 461.5 42 461.5 42 478.5 48.5 c 128,-1,28
 495.5 55 495.5 55 505 64.5 c 128,-1,29
 514.5 74 514.5 74 514.5 85 c 256,30,31
 514.5 96 514.5 96 505 105.5 c 128,-1,32
 495.5 115 495.5 115 478.5 122 c 128,-1,33
 461.5 129 461.5 129 439 133 c 128,-1,34
 416.5 137 416.5 137 389.5 137 c 0,35,36
 363.5 137 363.5 137 340.5 133 c 128,-1,37
 317.5 129 317.5 129 300.5 122 c 128,-1,38
 283.5 115 283.5 115 274 105.5 c 128,-1,39
 264.5 96 264.5 96 264.5 85 c 256,20,21
184.5 272 m 0,40,41
 184.5 290 184.5 290 200 305 c 128,-1,42
 215.5 320 215.5 320 243.5 331.5 c 128,-1,43
 271.5 343 271.5 343 309 349 c 128,-1,44
 346.5 355 346.5 355 389.5 355 c 0,45,46
 433.5 355 433.5 355 471 349 c 128,-1,47
 508.5 343 508.5 343 536 331.5 c 128,-1,48
 563.5 320 563.5 320 579.5 305 c 128,-1,49
 595.5 290 595.5 290 595.5 272 c 0,50,51
 595.5 255 595.5 255 579.5 240 c 128,-1,52
 563.5 225 563.5 225 536 214 c 128,-1,53
 508.5 203 508.5 203 471 196 c 128,-1,54
 433.5 189 433.5 189 389.5 189 c 0,55,56
 346.5 189 346.5 189 309 196 c 128,-1,57
 271.5 203 271.5 203 243.5 214 c 128,-1,58
 215.5 225 215.5 225 200 240 c 128,-1,59
 184.5 255 184.5 255 184.5 272 c 0,40,41
264.5 272 m 256,60,61
 264.5 261 264.5 261 274 251.5 c 128,-1,62
 283.5 242 283.5 242 300.5 235 c 128,-1,63
 317.5 228 317.5 228 340.5 224 c 128,-1,64
 363.5 220 363.5 220 389.5 220 c 0,65,66
 416.5 220 416.5 220 439 224 c 128,-1,67
 461.5 228 461.5 228 478.5 235 c 128,-1,68
 495.5 242 495.5 242 505 251.5 c 128,-1,69
 514.5 261 514.5 261 514.5 272 c 256,70,71
 514.5 283 514.5 283 505 292.5 c 128,-1,72
 495.5 302 495.5 302 478.5 309 c 128,-1,73
 461.5 316 461.5 316 439 320 c 128,-1,74
 416.5 324 416.5 324 389.5 324 c 0,75,76
 363.5 324 363.5 324 340.5 320 c 128,-1,77
 317.5 316 317.5 316 300.5 309 c 128,-1,78
 283.5 302 283.5 302 274 292.5 c 128,-1,79
 264.5 283 264.5 283 264.5 272 c 256,60,61
184.5 461 m 256,80,81
 184.5 478 184.5 478 200 493.5 c 128,-1,82
 215.5 509 215.5 509 243.5 520 c 128,-1,83
 271.5 531 271.5 531 309 537.5 c 128,-1,84
 346.5 544 346.5 544 389.5 544 c 0,85,86
 433.5 544 433.5 544 471 537.5 c 128,-1,87
 508.5 531 508.5 531 536 520 c 128,-1,88
 563.5 509 563.5 509 579.5 493.5 c 128,-1,89
 595.5 478 595.5 478 595.5 461 c 256,90,91
 595.5 444 595.5 444 579.5 429 c 128,-1,92
 563.5 414 563.5 414 536 402.5 c 128,-1,93
 508.5 391 508.5 391 471 384.5 c 128,-1,94
 433.5 378 433.5 378 389.5 378 c 0,95,96
 346.5 378 346.5 378 309 384.5 c 128,-1,97
 271.5 391 271.5 391 243.5 402.5 c 128,-1,98
 215.5 414 215.5 414 200 429 c 128,-1,99
 184.5 444 184.5 444 184.5 461 c 256,80,81
184.5 648 m 256,100,101
 184.5 665 184.5 665 200 680.5 c 128,-1,102
 215.5 696 215.5 696 243.5 707 c 128,-1,103
 271.5 718 271.5 718 309 724.5 c 128,-1,104
 346.5 731 346.5 731 389.5 731 c 0,105,106
 433.5 731 433.5 731 471 724.5 c 128,-1,107
 508.5 718 508.5 718 536 707 c 128,-1,108
 563.5 696 563.5 696 579.5 680.5 c 128,-1,109
 595.5 665 595.5 665 595.5 648 c 256,110,111
 595.5 631 595.5 631 579.5 616 c 128,-1,112
 563.5 601 563.5 601 536 589.5 c 128,-1,113
 508.5 578 508.5 578 471 571.5 c 128,-1,114
 433.5 565 433.5 565 389.5 565 c 0,115,116
 346.5 565 346.5 565 309 571.5 c 128,-1,117
 271.5 578 271.5 578 243.5 589.5 c 128,-1,118
 215.5 601 215.5 601 200 616 c 128,-1,119
 184.5 631 184.5 631 184.5 648 c 256,100,101
EndSplineSet
EndChar

StartChar: uni008D
Encoding: 141 141 111
Width: 780
Flags: W
LayerCount: 2
Fore
SplineSet
184.5 85 m 0,0,1
 184.5 103 184.5 103 200 118 c 128,-1,2
 215.5 133 215.5 133 243.5 144.5 c 128,-1,3
 271.5 156 271.5 156 309 162.5 c 128,-1,4
 346.5 169 346.5 169 389.5 169 c 0,5,6
 433.5 169 433.5 169 471 162.5 c 128,-1,7
 508.5 156 508.5 156 536 144.5 c 128,-1,8
 563.5 133 563.5 133 579.5 118 c 128,-1,9
 595.5 103 595.5 103 595.5 85 c 0,10,11
 595.5 68 595.5 68 579.5 53 c 128,-1,12
 563.5 38 563.5 38 536 27 c 128,-1,13
 508.5 16 508.5 16 471 9.5 c 128,-1,14
 433.5 3 433.5 3 389.5 3 c 0,15,16
 346.5 3 346.5 3 309 9.5 c 128,-1,17
 271.5 16 271.5 16 243.5 27 c 128,-1,18
 215.5 38 215.5 38 200 53 c 128,-1,19
 184.5 68 184.5 68 184.5 85 c 0,0,1
184.5 272 m 0,20,21
 184.5 290 184.5 290 200 305 c 128,-1,22
 215.5 320 215.5 320 243.5 331.5 c 128,-1,23
 271.5 343 271.5 343 309 349 c 128,-1,24
 346.5 355 346.5 355 389.5 355 c 0,25,26
 433.5 355 433.5 355 471 349 c 128,-1,27
 508.5 343 508.5 343 536 331.5 c 128,-1,28
 563.5 320 563.5 320 579.5 305 c 128,-1,29
 595.5 290 595.5 290 595.5 272 c 0,30,31
 595.5 255 595.5 255 579.5 240 c 128,-1,32
 563.5 225 563.5 225 536 214 c 128,-1,33
 508.5 203 508.5 203 471 196 c 128,-1,34
 433.5 189 433.5 189 389.5 189 c 0,35,36
 346.5 189 346.5 189 309 196 c 128,-1,37
 271.5 203 271.5 203 243.5 214 c 128,-1,38
 215.5 225 215.5 225 200 240 c 128,-1,39
 184.5 255 184.5 255 184.5 272 c 0,20,21
264.5 272 m 256,40,41
 264.5 261 264.5 261 274 251.5 c 128,-1,42
 283.5 242 283.5 242 300.5 235 c 128,-1,43
 317.5 228 317.5 228 340.5 224 c 128,-1,44
 363.5 220 363.5 220 389.5 220 c 0,45,46
 416.5 220 416.5 220 439 224 c 128,-1,47
 461.5 228 461.5 228 478.5 235 c 128,-1,48
 495.5 242 495.5 242 505 251.5 c 128,-1,49
 514.5 261 514.5 261 514.5 272 c 256,50,51
 514.5 283 514.5 283 505 292.5 c 128,-1,52
 495.5 302 495.5 302 478.5 309 c 128,-1,53
 461.5 316 461.5 316 439 320 c 128,-1,54
 416.5 324 416.5 324 389.5 324 c 0,55,56
 363.5 324 363.5 324 340.5 320 c 128,-1,57
 317.5 316 317.5 316 300.5 309 c 128,-1,58
 283.5 302 283.5 302 274 292.5 c 128,-1,59
 264.5 283 264.5 283 264.5 272 c 256,40,41
184.5 461 m 256,60,61
 184.5 478 184.5 478 200 493.5 c 128,-1,62
 215.5 509 215.5 509 243.5 520 c 128,-1,63
 271.5 531 271.5 531 309 537.5 c 128,-1,64
 346.5 544 346.5 544 389.5 544 c 0,65,66
 433.5 544 433.5 544 471 537.5 c 128,-1,67
 508.5 531 508.5 531 536 520 c 128,-1,68
 563.5 509 563.5 509 579.5 493.5 c 128,-1,69
 595.5 478 595.5 478 595.5 461 c 256,70,71
 595.5 444 595.5 444 579.5 429 c 128,-1,72
 563.5 414 563.5 414 536 402.5 c 128,-1,73
 508.5 391 508.5 391 471 384.5 c 128,-1,74
 433.5 378 433.5 378 389.5 378 c 0,75,76
 346.5 378 346.5 378 309 384.5 c 128,-1,77
 271.5 391 271.5 391 243.5 402.5 c 128,-1,78
 215.5 414 215.5 414 200 429 c 128,-1,79
 184.5 444 184.5 444 184.5 461 c 256,60,61
184.5 648 m 256,80,81
 184.5 665 184.5 665 200 680.5 c 128,-1,82
 215.5 696 215.5 696 243.5 707 c 128,-1,83
 271.5 718 271.5 718 309 724.5 c 128,-1,84
 346.5 731 346.5 731 389.5 731 c 0,85,86
 433.5 731 433.5 731 471 724.5 c 128,-1,87
 508.5 718 508.5 718 536 707 c 128,-1,88
 563.5 696 563.5 696 579.5 680.5 c 128,-1,89
 595.5 665 595.5 665 595.5 648 c 256,90,91
 595.5 631 595.5 631 579.5 616 c 128,-1,92
 563.5 601 563.5 601 536 589.5 c 128,-1,93
 508.5 578 508.5 578 471 571.5 c 128,-1,94
 433.5 565 433.5 565 389.5 565 c 0,95,96
 346.5 565 346.5 565 309 571.5 c 128,-1,97
 271.5 578 271.5 578 243.5 589.5 c 128,-1,98
 215.5 601 215.5 601 200 616 c 128,-1,99
 184.5 631 184.5 631 184.5 648 c 256,80,81
EndSplineSet
EndChar

StartChar: uni008E
Encoding: 142 142 112
Width: 780
Flags: W
LayerCount: 2
Fore
SplineSet
184.5 85 m 0,0,1
 184.5 103 184.5 103 200 118 c 128,-1,2
 215.5 133 215.5 133 243.5 144.5 c 128,-1,3
 271.5 156 271.5 156 309 162.5 c 128,-1,4
 346.5 169 346.5 169 389.5 169 c 0,5,6
 433.5 169 433.5 169 471 162.5 c 128,-1,7
 508.5 156 508.5 156 536 144.5 c 128,-1,8
 563.5 133 563.5 133 579.5 118 c 128,-1,9
 595.5 103 595.5 103 595.5 85 c 0,10,11
 595.5 68 595.5 68 579.5 53 c 128,-1,12
 563.5 38 563.5 38 536 27 c 128,-1,13
 508.5 16 508.5 16 471 9.5 c 128,-1,14
 433.5 3 433.5 3 389.5 3 c 0,15,16
 346.5 3 346.5 3 309 9.5 c 128,-1,17
 271.5 16 271.5 16 243.5 27 c 128,-1,18
 215.5 38 215.5 38 200 53 c 128,-1,19
 184.5 68 184.5 68 184.5 85 c 0,0,1
264.5 85 m 256,20,21
 264.5 74 264.5 74 274 64.5 c 128,-1,22
 283.5 55 283.5 55 300.5 48.5 c 128,-1,23
 317.5 42 317.5 42 340.5 38 c 128,-1,24
 363.5 34 363.5 34 389.5 34 c 0,25,26
 416.5 34 416.5 34 439 38 c 128,-1,27
 461.5 42 461.5 42 478.5 48.5 c 128,-1,28
 495.5 55 495.5 55 505 64.5 c 128,-1,29
 514.5 74 514.5 74 514.5 85 c 256,30,31
 514.5 96 514.5 96 505 105.5 c 128,-1,32
 495.5 115 495.5 115 478.5 122 c 128,-1,33
 461.5 129 461.5 129 439 133 c 128,-1,34
 416.5 137 416.5 137 389.5 137 c 0,35,36
 363.5 137 363.5 137 340.5 133 c 128,-1,37
 317.5 129 317.5 129 300.5 122 c 128,-1,38
 283.5 115 283.5 115 274 105.5 c 128,-1,39
 264.5 96 264.5 96 264.5 85 c 256,20,21
184.5 272 m 0,40,41
 184.5 290 184.5 290 200 305 c 128,-1,42
 215.5 320 215.5 320 243.5 331.5 c 128,-1,43
 271.5 343 271.5 343 309 349 c 128,-1,44
 346.5 355 346.5 355 389.5 355 c 0,45,46
 433.5 355 433.5 355 471 349 c 128,-1,47
 508.5 343 508.5 343 536 331.5 c 128,-1,48
 563.5 320 563.5 320 579.5 305 c 128,-1,49
 595.5 290 595.5 290 595.5 272 c 0,50,51
 595.5 255 595.5 255 579.5 240 c 128,-1,52
 563.5 225 563.5 225 536 214 c 128,-1,53
 508.5 203 508.5 203 471 196 c 128,-1,54
 433.5 189 433.5 189 389.5 189 c 0,55,56
 346.5 189 346.5 189 309 196 c 128,-1,57
 271.5 203 271.5 203 243.5 214 c 128,-1,58
 215.5 225 215.5 225 200 240 c 128,-1,59
 184.5 255 184.5 255 184.5 272 c 0,40,41
184.5 461 m 256,60,61
 184.5 478 184.5 478 200 493.5 c 128,-1,62
 215.5 509 215.5 509 243.5 520 c 128,-1,63
 271.5 531 271.5 531 309 537.5 c 128,-1,64
 346.5 544 346.5 544 389.5 544 c 0,65,66
 433.5 544 433.5 544 471 537.5 c 128,-1,67
 508.5 531 508.5 531 536 520 c 128,-1,68
 563.5 509 563.5 509 579.5 493.5 c 128,-1,69
 595.5 478 595.5 478 595.5 461 c 256,70,71
 595.5 444 595.5 444 579.5 429 c 128,-1,72
 563.5 414 563.5 414 536 402.5 c 128,-1,73
 508.5 391 508.5 391 471 384.5 c 128,-1,74
 433.5 378 433.5 378 389.5 378 c 0,75,76
 346.5 378 346.5 378 309 384.5 c 128,-1,77
 271.5 391 271.5 391 243.5 402.5 c 128,-1,78
 215.5 414 215.5 414 200 429 c 128,-1,79
 184.5 444 184.5 444 184.5 461 c 256,60,61
184.5 648 m 256,80,81
 184.5 665 184.5 665 200 680.5 c 128,-1,82
 215.5 696 215.5 696 243.5 707 c 128,-1,83
 271.5 718 271.5 718 309 724.5 c 128,-1,84
 346.5 731 346.5 731 389.5 731 c 0,85,86
 433.5 731 433.5 731 471 724.5 c 128,-1,87
 508.5 718 508.5 718 536 707 c 128,-1,88
 563.5 696 563.5 696 579.5 680.5 c 128,-1,89
 595.5 665 595.5 665 595.5 648 c 256,90,91
 595.5 631 595.5 631 579.5 616 c 128,-1,92
 563.5 601 563.5 601 536 589.5 c 128,-1,93
 508.5 578 508.5 578 471 571.5 c 128,-1,94
 433.5 565 433.5 565 389.5 565 c 0,95,96
 346.5 565 346.5 565 309 571.5 c 128,-1,97
 271.5 578 271.5 578 243.5 589.5 c 128,-1,98
 215.5 601 215.5 601 200 616 c 128,-1,99
 184.5 631 184.5 631 184.5 648 c 256,80,81
EndSplineSet
EndChar

StartChar: uni008F
Encoding: 143 143 113
Width: 780
Flags: W
LayerCount: 2
Fore
SplineSet
184.5 85 m 0,0,1
 184.5 103 184.5 103 200 118 c 128,-1,2
 215.5 133 215.5 133 243.5 144.5 c 128,-1,3
 271.5 156 271.5 156 309 162.5 c 128,-1,4
 346.5 169 346.5 169 389.5 169 c 0,5,6
 433.5 169 433.5 169 471 162.5 c 128,-1,7
 508.5 156 508.5 156 536 144.5 c 128,-1,8
 563.5 133 563.5 133 579.5 118 c 128,-1,9
 595.5 103 595.5 103 595.5 85 c 0,10,11
 595.5 68 595.5 68 579.5 53 c 128,-1,12
 563.5 38 563.5 38 536 27 c 128,-1,13
 508.5 16 508.5 16 471 9.5 c 128,-1,14
 433.5 3 433.5 3 389.5 3 c 0,15,16
 346.5 3 346.5 3 309 9.5 c 128,-1,17
 271.5 16 271.5 16 243.5 27 c 128,-1,18
 215.5 38 215.5 38 200 53 c 128,-1,19
 184.5 68 184.5 68 184.5 85 c 0,0,1
184.5 272 m 0,20,21
 184.5 290 184.5 290 200 305 c 128,-1,22
 215.5 320 215.5 320 243.5 331.5 c 128,-1,23
 271.5 343 271.5 343 309 349 c 128,-1,24
 346.5 355 346.5 355 389.5 355 c 0,25,26
 433.5 355 433.5 355 471 349 c 128,-1,27
 508.5 343 508.5 343 536 331.5 c 128,-1,28
 563.5 320 563.5 320 579.5 305 c 128,-1,29
 595.5 290 595.5 290 595.5 272 c 0,30,31
 595.5 255 595.5 255 579.5 240 c 128,-1,32
 563.5 225 563.5 225 536 214 c 128,-1,33
 508.5 203 508.5 203 471 196 c 128,-1,34
 433.5 189 433.5 189 389.5 189 c 0,35,36
 346.5 189 346.5 189 309 196 c 128,-1,37
 271.5 203 271.5 203 243.5 214 c 128,-1,38
 215.5 225 215.5 225 200 240 c 128,-1,39
 184.5 255 184.5 255 184.5 272 c 0,20,21
184.5 461 m 256,40,41
 184.5 478 184.5 478 200 493.5 c 128,-1,42
 215.5 509 215.5 509 243.5 520 c 128,-1,43
 271.5 531 271.5 531 309 537.5 c 128,-1,44
 346.5 544 346.5 544 389.5 544 c 0,45,46
 433.5 544 433.5 544 471 537.5 c 128,-1,47
 508.5 531 508.5 531 536 520 c 128,-1,48
 563.5 509 563.5 509 579.5 493.5 c 128,-1,49
 595.5 478 595.5 478 595.5 461 c 256,50,51
 595.5 444 595.5 444 579.5 429 c 128,-1,52
 563.5 414 563.5 414 536 402.5 c 128,-1,53
 508.5 391 508.5 391 471 384.5 c 128,-1,54
 433.5 378 433.5 378 389.5 378 c 0,55,56
 346.5 378 346.5 378 309 384.5 c 128,-1,57
 271.5 391 271.5 391 243.5 402.5 c 128,-1,58
 215.5 414 215.5 414 200 429 c 128,-1,59
 184.5 444 184.5 444 184.5 461 c 256,40,41
184.5 648 m 256,60,61
 184.5 665 184.5 665 200 680.5 c 128,-1,62
 215.5 696 215.5 696 243.5 707 c 128,-1,63
 271.5 718 271.5 718 309 724.5 c 128,-1,64
 346.5 731 346.5 731 389.5 731 c 0,65,66
 433.5 731 433.5 731 471 724.5 c 128,-1,67
 508.5 718 508.5 718 536 707 c 128,-1,68
 563.5 696 563.5 696 579.5 680.5 c 128,-1,69
 595.5 665 595.5 665 595.5 648 c 256,70,71
 595.5 631 595.5 631 579.5 616 c 128,-1,72
 563.5 601 563.5 601 536 589.5 c 128,-1,73
 508.5 578 508.5 578 471 571.5 c 128,-1,74
 433.5 565 433.5 565 389.5 565 c 0,75,76
 346.5 565 346.5 565 309 571.5 c 128,-1,77
 271.5 578 271.5 578 243.5 589.5 c 128,-1,78
 215.5 601 215.5 601 200 616 c 128,-1,79
 184.5 631 184.5 631 184.5 648 c 256,60,61
EndSplineSet
EndChar

StartChar: uni0090
Encoding: 144 144 114
Width: 780
Flags: W
LayerCount: 2
Fore
SplineSet
389 -10 m 0,0,1
 274 -10 274 -10 218 87.5 c 128,-1,2
 162 185 162 185 162 358 c 0,3,4
 162 474 162 474 184.5 556 c 128,-1,5
 207 638 207 638 257 681.5 c 128,-1,6
 307 725 307 725 389 725 c 0,7,8
 505 725 505 725 561.5 628.5 c 128,-1,9
 618 532 618 532 618 358 c 0,10,11
 618 271 618 271 605.5 203 c 128,-1,12
 593 135 593 135 566 87.5 c 128,-1,13
 539 40 539 40 495 15 c 128,-1,14
 451 -10 451 -10 389 -10 c 0,0,1
389 66 m 256,15,16
 464 66 464 66 496 138 c 128,-1,17
 528 210 528 210 528 358 c 0,18,19
 528 504 528 504 496 576.5 c 128,-1,20
 464 649 464 649 389 649 c 256,21,22
 314 649 314 649 283 576.5 c 128,-1,23
 252 504 252 504 252 358 c 256,24,25
 252 212 252 212 283 139 c 128,-1,26
 314 66 314 66 389 66 c 256,15,16
EndSplineSet
EndChar

StartChar: uni0091
Encoding: 145 145 115
Width: 780
Flags: W
LayerCount: 2
Fore
SplineSet
434 0 m 1,0,-1
 434 446 l 2,1,2
 434 474 434 474 435 506.5 c 128,-1,3
 436 539 436 539 437 569.5 c 128,-1,4
 438 600 438 600 438 622 c 1,5,6
 422 605 422 605 410.5 594.5 c 128,-1,7
 399 584 399 584 379 567 c 2,8,-1
 307 508 l 1,9,-1
 260 568 l 1,10,-1
 447 714 l 1,11,-1
 520 714 l 1,12,-1
 520 0 l 1,13,-1
 434 0 l 1,0,-1
EndSplineSet
EndChar

StartChar: uni0092
Encoding: 146 146 116
Width: 780
Flags: W
LayerCount: 2
Fore
SplineSet
167.5 76 m 1,0,-1
 338.5 262 l 2,1,2
 387.5 315 387.5 315 422 357 c 128,-1,3
 456.5 399 456.5 399 475.5 440 c 128,-1,4
 494.5 481 494.5 481 494.5 530 c 0,5,6
 494.5 587 494.5 587 462.5 618 c 128,-1,7
 430.5 649 430.5 649 379.5 649 c 0,8,9
 333.5 649 333.5 649 296 630 c 128,-1,10
 258.5 611 258.5 611 224.5 582 c 1,11,-1
 174.5 640 l 1,12,13
 200.5 664 200.5 664 232 683 c 128,-1,14
 263.5 702 263.5 702 301 713 c 128,-1,15
 338.5 724 338.5 724 380.5 724 c 0,16,17
 443.5 724 443.5 724 489 701 c 128,-1,18
 534.5 678 534.5 678 559.5 635.5 c 128,-1,19
 584.5 593 584.5 593 584.5 533 c 0,20,21
 584.5 478 584.5 478 562.5 429 c 128,-1,22
 540.5 380 540.5 380 502 332 c 128,-1,23
 463.5 284 463.5 284 413.5 231 c 2,24,-1
 276.5 85 l 1,25,-1
 276.5 81 l 1,26,-1
 612.5 81 l 1,27,-1
 612.5 0 l 1,28,-1
 167.5 0 l 1,29,-1
 167.5 76 l 1,0,-1
EndSplineSet
EndChar

StartChar: uni0093
Encoding: 147 147 117
Width: 780
Flags: W
LayerCount: 2
Fore
SplineSet
353.5 -10 m 0,0,1
 300.5 -10 300.5 -10 253 -1.5 c 128,-1,2
 205.5 7 205.5 7 164.5 29 c 1,3,-1
 164.5 112 l 1,4,5
 207.5 90 207.5 90 256.5 77.5 c 128,-1,6
 305.5 65 305.5 65 351.5 65 c 0,7,8
 441.5 65 441.5 65 483 102.5 c 128,-1,9
 524.5 140 524.5 140 524.5 206 c 0,10,11
 524.5 250 524.5 250 502 278 c 128,-1,12
 479.5 306 479.5 306 438 319 c 128,-1,13
 396.5 332 396.5 332 338.5 332 c 2,14,-1
 273.5 332 l 1,15,-1
 273.5 406 l 1,16,-1
 338.5 406 l 2,17,18
 391.5 406 391.5 406 428 423 c 128,-1,19
 464.5 440 464.5 440 483.5 470.5 c 128,-1,20
 502.5 501 502.5 501 502.5 541 c 0,21,22
 502.5 575 502.5 575 487 599 c 128,-1,23
 471.5 623 471.5 623 444.5 636 c 128,-1,24
 417.5 649 417.5 649 380.5 649 c 0,25,26
 328.5 649 328.5 649 288.5 632.5 c 128,-1,27
 248.5 616 248.5 616 212.5 590 c 1,28,-1
 167.5 651 l 1,29,30
 204.5 681 204.5 681 258.5 702.5 c 128,-1,31
 312.5 724 312.5 724 380.5 724 c 0,32,33
 450.5 724 450.5 724 498 701 c 128,-1,34
 545.5 678 545.5 678 569.5 638.5 c 128,-1,35
 593.5 599 593.5 599 593.5 547 c 0,36,37
 593.5 499 593.5 499 574 463.5 c 128,-1,38
 554.5 428 554.5 428 520 406 c 128,-1,39
 485.5 384 485.5 384 439.5 376 c 1,40,-1
 439.5 373 l 1,41,42
 525.5 363 525.5 363 570.5 318.5 c 128,-1,43
 615.5 274 615.5 274 615.5 203 c 0,44,45
 615.5 141 615.5 141 587.5 92.5 c 128,-1,46
 559.5 44 559.5 44 501.5 17 c 128,-1,47
 443.5 -10 443.5 -10 353.5 -10 c 0,0,1
EndSplineSet
EndChar

StartChar: uni0094
Encoding: 148 148 118
Width: 780
Flags: W
LayerCount: 2
Fore
SplineSet
460 160 m 1,0,-1
 130 160 l 1,1,-1
 130 238 l 1,2,-1
 454 718 l 1,3,-1
 546 718 l 1,4,-1
 546 241 l 1,5,-1
 650 241 l 1,6,-1
 650 160 l 1,7,-1
 546 160 l 1,8,-1
 546 0 l 1,9,-1
 460 0 l 1,10,-1
 460 160 l 1,0,-1
460 241 m 1,11,-1
 460 415 l 2,12,13
 460 442 460 442 461 472 c 128,-1,14
 462 502 462 502 463 531 c 128,-1,15
 464 560 464 560 465 585 c 128,-1,16
 466 610 466 610 466 626 c 1,17,-1
 462 626 l 1,18,19
 455 607 455 607 442 581 c 128,-1,20
 429 555 429 555 418 538 c 2,21,-1
 217 241 l 1,22,-1
 460 241 l 1,11,-1
EndSplineSet
EndChar

StartChar: uni0095
Encoding: 149 149 119
Width: 780
Flags: W
LayerCount: 2
Fore
SplineSet
348.5 -10 m 0,0,1
 298.5 -10 298.5 -10 252.5 -0.5 c 128,-1,2
 206.5 9 206.5 9 174.5 29 c 1,3,-1
 174.5 113 l 1,4,5
 196.5 98 196.5 98 227 87.5 c 128,-1,6
 257.5 77 257.5 77 290.5 71.5 c 128,-1,7
 323.5 66 323.5 66 350.5 66 c 0,8,9
 427.5 66 427.5 66 471 103 c 128,-1,10
 514.5 140 514.5 140 514.5 219 c 0,11,12
 514.5 290 514.5 290 471.5 326.5 c 128,-1,13
 428.5 363 428.5 363 346.5 363 c 0,14,15
 320.5 363 320.5 363 287 358.5 c 128,-1,16
 253.5 354 253.5 354 233.5 350 c 1,17,-1
 189.5 378 l 1,18,-1
 216.5 714 l 1,19,-1
 553.5 714 l 1,20,-1
 553.5 633 l 1,21,-1
 293.5 633 l 1,22,-1
 274.5 428 l 1,23,24
 290.5 432 290.5 432 318 435 c 128,-1,25
 345.5 438 345.5 438 376.5 438 c 0,26,27
 441.5 438 441.5 438 493 414.5 c 128,-1,28
 544.5 391 544.5 391 575 344.5 c 128,-1,29
 605.5 298 605.5 298 605.5 229 c 0,30,31
 605.5 117 605.5 117 539.5 53.5 c 128,-1,32
 473.5 -10 473.5 -10 348.5 -10 c 0,0,1
EndSplineSet
EndChar

StartChar: uni0096
Encoding: 150 150 120
Width: 780
Flags: W
LayerCount: 2
Fore
SplineSet
398 -10 m 0,0,1
 333 -10 333 -10 280 24 c 128,-1,2
 227 58 227 58 196 128 c 128,-1,3
 165 198 165 198 165 305 c 0,4,5
 165 367 165 367 172.5 427 c 128,-1,6
 180 487 180 487 200 540.5 c 128,-1,7
 220 594 220 594 255 635.5 c 128,-1,8
 290 677 290 677 344.5 700.5 c 128,-1,9
 399 724 399 724 477 724 c 0,10,11
 496 724 496 724 520.5 722 c 128,-1,12
 545 720 545 720 561 715 c 1,13,-1
 561 639 l 1,14,15
 544 645 544 645 522.5 648 c 128,-1,16
 501 651 501 651 480 651 c 0,17,18
 414 651 414 651 371.5 628 c 128,-1,19
 329 605 329 605 304.5 565.5 c 128,-1,20
 280 526 280 526 269 474 c 128,-1,21
 258 422 258 422 256 364 c 1,22,-1
 262 364 l 1,23,24
 282 399 282 399 318 423 c 128,-1,25
 354 447 354 447 412 447 c 0,26,27
 474 447 474 447 519.5 421.5 c 128,-1,28
 565 396 565 396 590 347.5 c 128,-1,29
 615 299 615 299 615 230 c 0,30,31
 615 156 615 156 588.5 102 c 128,-1,32
 562 48 562 48 513.5 19 c 128,-1,33
 465 -10 465 -10 398 -10 c 0,0,1
397 65 m 0,34,35
 456 65 456 65 492.5 105 c 128,-1,36
 529 145 529 145 529 230 c 0,37,38
 529 298 529 298 497 337.5 c 128,-1,39
 465 377 465 377 400 377 c 0,40,41
 356 377 356 377 323 357.5 c 128,-1,42
 290 338 290 338 272 308.5 c 128,-1,43
 254 279 254 279 254 247 c 0,44,45
 254 204 254 204 270 162 c 128,-1,46
 286 120 286 120 318 92.5 c 128,-1,47
 350 65 350 65 397 65 c 0,34,35
EndSplineSet
EndChar

StartChar: uni0097
Encoding: 151 151 121
Width: 780
Flags: W
LayerCount: 2
Fore
SplineSet
528.5 633 m 1,0,-1
 160.5 633 l 1,1,-1
 160.5 714 l 1,2,-1
 619.5 714 l 1,3,-1
 619.5 643 l 1,4,-1
 348.5 0 l 1,5,-1
 253.5 0 l 1,6,-1
 528.5 633 l 1,0,-1
EndSplineSet
EndChar

StartChar: uni0098
Encoding: 152 152 122
Width: 780
Flags: W
LayerCount: 2
Fore
SplineSet
390 -10 m 0,0,1
 283 -10 283 -10 224.5 41.5 c 128,-1,2
 166 93 166 93 166 182 c 0,3,4
 166 231 166 231 184.5 267 c 128,-1,5
 203 303 203 303 234.5 329.5 c 128,-1,6
 266 356 266 356 304 374 c 1,7,8
 272 395 272 395 246 420 c 128,-1,9
 220 445 220 445 204.5 478 c 128,-1,10
 189 511 189 511 189 554 c 0,11,12
 189 611 189 611 217 649 c 128,-1,13
 245 687 245 687 291 706 c 128,-1,14
 337 725 337 725 390 725 c 0,15,16
 445 725 445 725 490.5 706 c 128,-1,17
 536 687 536 687 563.5 649 c 128,-1,18
 591 611 591 611 591 553 c 0,19,20
 591 510 591 510 574 477.5 c 128,-1,21
 557 445 557 445 528.5 421 c 128,-1,22
 500 397 500 397 463 378 c 1,23,24
 501 358 501 358 535.5 331.5 c 128,-1,25
 570 305 570 305 592 269.5 c 128,-1,26
 614 234 614 234 614 186 c 0,27,28
 614 126 614 126 585.5 82 c 128,-1,29
 557 38 557 38 507 14 c 128,-1,30
 457 -10 457 -10 390 -10 c 0,0,1
388 64 m 0,31,32
 457 64 457 64 492 97 c 128,-1,33
 527 130 527 130 527 185 c 0,34,35
 527 233 527 233 490.5 268.5 c 128,-1,36
 454 304 454 304 377 340 c 1,37,38
 336 321 336 321 308.5 297.5 c 128,-1,39
 281 274 281 274 267 245.5 c 128,-1,40
 253 217 253 217 253 181 c 0,41,42
 253 129 253 129 285.5 96.5 c 128,-1,43
 318 64 318 64 388 64 c 0,31,32
391 414 m 1,44,45
 423 429 423 429 448.5 447 c 128,-1,46
 474 465 474 465 489 490 c 128,-1,47
 504 515 504 515 504 550 c 0,48,49
 504 600 504 600 473.5 625.5 c 128,-1,50
 443 651 443 651 389 651 c 0,51,52
 355 651 355 651 329.5 639.5 c 128,-1,53
 304 628 304 628 290 605.5 c 128,-1,54
 276 583 276 583 276 550 c 0,55,56
 276 514 276 514 291 489.5 c 128,-1,57
 306 465 306 465 332 447.5 c 128,-1,58
 358 430 358 430 391 414 c 1,44,45
EndSplineSet
EndChar

StartChar: uni0099
Encoding: 153 153 123
Width: 780
Flags: W
LayerCount: 2
Fore
SplineSet
303 -10 m 0,0,1
 284 -10 284 -10 260 -7.5 c 128,-1,2
 236 -5 236 -5 219 -1 c 1,3,-1
 219 75 l 1,4,5
 236 69 236 69 257.5 66 c 128,-1,6
 279 63 279 63 300 63 c 0,7,8
 366 63 366 63 409 86 c 128,-1,9
 452 109 452 109 476 148.5 c 128,-1,10
 500 188 500 188 511 240 c 128,-1,11
 522 292 522 292 524 350 c 1,12,-1
 518 350 l 1,13,14
 505 327 505 327 484.5 308 c 128,-1,15
 464 289 464 289 435.5 278 c 128,-1,16
 407 267 407 267 368 267 c 0,17,18
 307 267 307 267 261 292.5 c 128,-1,19
 215 318 215 318 190 366.5 c 128,-1,20
 165 415 165 415 165 484 c 0,21,22
 165 559 165 559 191.5 612.5 c 128,-1,23
 218 666 218 666 267 695 c 128,-1,24
 316 724 316 724 382 724 c 256,25,26
 448 724 448 724 500.5 690 c 128,-1,27
 553 656 553 656 584 586 c 128,-1,28
 615 516 615 516 615 409 c 0,29,30
 615 348 615 348 607.5 287.5 c 128,-1,31
 600 227 600 227 580 173.5 c 128,-1,32
 560 120 560 120 525 78.5 c 128,-1,33
 490 37 490 37 435.5 13.5 c 128,-1,34
 381 -10 381 -10 303 -10 c 0,0,1
380 337 m 0,35,36
 424 337 424 337 457 356.5 c 128,-1,37
 490 376 490 376 508 406 c 128,-1,38
 526 436 526 436 526 467 c 0,39,40
 526 500 526 500 517 532 c 128,-1,41
 508 564 508 564 490 590.5 c 128,-1,42
 472 617 472 617 445.5 633 c 128,-1,43
 419 649 419 649 383 649 c 0,44,45
 325 649 325 649 288 609 c 128,-1,46
 251 569 251 569 251 484 c 0,47,48
 251 416 251 416 283.5 376.5 c 128,-1,49
 316 337 316 337 380 337 c 0,35,36
EndSplineSet
EndChar

StartChar: uni009A
Encoding: 154 154 124
Width: 780
Flags: W
LayerCount: 2
Fore
SplineSet
440.5 723 m 0,0,1
 495.5 723 495.5 723 539.5 711 c 128,-1,2
 583.5 699 583.5 699 617.5 682 c 1,3,-1
 586.5 612 l 1,4,5
 556.5 626 556.5 626 520 638 c 128,-1,6
 483.5 650 483.5 650 442.5 650 c 0,7,8
 385.5 650 385.5 650 355.5 620.5 c 128,-1,9
 325.5 591 325.5 591 325.5 525 c 2,10,-1
 325.5 386 l 1,11,-1
 529.5 386 l 1,12,-1
 529.5 320 l 1,13,-1
 325.5 320 l 1,14,-1
 325.5 216 l 2,15,16
 325.5 176 325.5 176 316 149.5 c 128,-1,17
 306.5 123 306.5 123 291 107 c 128,-1,18
 275.5 91 275.5 91 257.5 80 c 1,19,-1
 641.5 80 l 1,20,-1
 641.5 0 l 1,21,-1
 138.5 0 l 1,22,-1
 138.5 74 l 1,23,24
 167.5 81 167.5 81 189.5 97.5 c 128,-1,25
 211.5 114 211.5 114 224.5 142.5 c 128,-1,26
 237.5 171 237.5 171 237.5 215 c 2,27,-1
 237.5 320 l 1,28,-1
 141.5 320 l 1,29,-1
 141.5 386 l 1,30,-1
 237.5 386 l 1,31,-1
 237.5 534 l 2,32,33
 237.5 594 237.5 594 262.5 636 c 128,-1,34
 287.5 678 287.5 678 333.5 700.5 c 128,-1,35
 379.5 723 379.5 723 440.5 723 c 0,0,1
EndSplineSet
EndChar

StartChar: uni009B
Encoding: 155 155 125
Width: 780
Flags: W
LayerCount: 2
Fore
SplineSet
339.5 -8 m 4,0,1
 284.5 -8 284.5 -8 240.5 4 c 132,-1,2
 196.5 16 196.5 16 162.5 33 c 5,3,-1
 193.5 103 l 5,4,5
 223.5 89 223.5 89 260 77 c 132,-1,6
 296.5 65 296.5 65 337.5 65 c 4,7,8
 394.5 65 394.5 65 424.5 94.5 c 132,-1,9
 454.5 124 454.5 124 454.5 190 c 6,10,-1
 454.5 329 l 5,11,-1
 250.5 329 l 5,12,-1
 250.5 395 l 5,13,-1
 454.5 395 l 5,14,-1
 454.5 499 l 6,15,16
 454.5 539 454.5 539 464 565.5 c 132,-1,17
 473.5 592 473.5 592 489 608 c 132,-1,18
 504.5 624 504.5 624 522.5 635 c 5,19,-1
 138.5 635 l 5,20,-1
 138.5 715 l 5,21,-1
 641.5 715 l 5,22,-1
 641.5 641 l 5,23,24
 612.5 634 612.5 634 590.5 617.5 c 132,-1,25
 568.5 601 568.5 601 555.5 572.5 c 132,-1,26
 542.5 544 542.5 544 542.5 500 c 6,27,-1
 542.5 395 l 5,28,-1
 638.5 395 l 5,29,-1
 638.5 329 l 5,30,-1
 542.5 329 l 5,31,-1
 542.5 181 l 6,32,33
 542.5 121 542.5 121 517.5 79 c 132,-1,34
 492.5 37 492.5 37 446.5 14.5 c 132,-1,35
 400.5 -8 400.5 -8 339.5 -8 c 4,0,1
EndSplineSet
EndChar

StartChar: uni009C
Encoding: 156 156 126
Width: 780
Flags: W
LayerCount: 2
Fore
SplineSet
576.5 617 m 0,0,1
 576.5 583 576.5 583 562.5 557.5 c 128,-1,2
 548.5 532 548.5 532 527.5 512.5 c 128,-1,3
 506.5 493 506.5 493 485.5 477 c 128,-1,4
 464.5 461 464.5 461 450.5 445.5 c 128,-1,5
 436.5 430 436.5 430 436.5 412 c 0,6,7
 436.5 399 436.5 399 443 388 c 128,-1,8
 449.5 377 449.5 377 468.5 362.5 c 128,-1,9
 487.5 348 487.5 348 524.5 323 c 0,10,11
 560.5 299 560.5 299 586.5 275 c 128,-1,12
 612.5 251 612.5 251 626.5 222 c 128,-1,13
 640.5 193 640.5 193 640.5 153 c 0,14,15
 640.5 96 640.5 96 617 60 c 128,-1,16
 593.5 24 593.5 24 551.5 7 c 128,-1,17
 509.5 -10 509.5 -10 454.5 -10 c 0,18,19
 407.5 -10 407.5 -10 371.5 -1 c 128,-1,20
 335.5 8 335.5 8 309.5 24 c 1,21,-1
 309.5 103 l 1,22,23
 326.5 93 326.5 93 349.5 83 c 128,-1,24
 372.5 73 372.5 73 399 67 c 128,-1,25
 425.5 61 425.5 61 451.5 61 c 0,26,27
 506.5 61 506.5 61 530.5 84 c 128,-1,28
 554.5 107 554.5 107 554.5 147 c 0,29,30
 554.5 171 554.5 171 546 189.5 c 128,-1,31
 537.5 208 537.5 208 517 226 c 128,-1,32
 496.5 244 496.5 244 460.5 267 c 0,33,34
 418.5 294 418.5 294 395 315.5 c 128,-1,35
 371.5 337 371.5 337 361.5 359 c 128,-1,36
 351.5 381 351.5 381 351.5 407 c 0,37,38
 351.5 438 351.5 438 365 460 c 128,-1,39
 378.5 482 378.5 482 399 498.5 c 128,-1,40
 419.5 515 419.5 515 440 531 c 128,-1,41
 460.5 547 460.5 547 474 566 c 128,-1,42
 487.5 585 487.5 585 487.5 612 c 0,43,44
 487.5 654 487.5 654 452 673 c 128,-1,45
 416.5 692 416.5 692 360.5 692 c 0,46,47
 325.5 692 325.5 692 295 682.5 c 128,-1,48
 264.5 673 264.5 673 246 650 c 128,-1,49
 227.5 627 227.5 627 227.5 584 c 2,50,-1
 227.5 0 l 1,51,-1
 139.5 0 l 1,52,-1
 139.5 584 l 2,53,54
 139.5 651 139.5 651 168.5 690.5 c 128,-1,55
 197.5 730 197.5 730 247.5 747.5 c 128,-1,56
 297.5 765 297.5 765 360.5 765 c 0,57,58
 425.5 765 425.5 765 474 748.5 c 128,-1,59
 522.5 732 522.5 732 549.5 699.5 c 128,-1,60
 576.5 667 576.5 667 576.5 617 c 0,0,1
EndSplineSet
EndChar

StartChar: uni009D
Encoding: 157 157 127
Width: 780
Flags: W
LayerCount: 2
Fore
SplineSet
248 -10 m 0,0,1
 186 -10 186 -10 143.5 24 c 128,-1,2
 101 58 101 58 79 119 c 128,-1,3
 57 180 57 180 57 260 c 0,4,5
 57 322 57 322 68.5 467 c 128,-1,6
 80 612 80 612 99 652 c 1,7,-1
 23 652 l 1,8,-1
 23 725 l 1,9,-1
 757 725 l 5,10,-1
 757 652 l 5,11,-1
 685 652 l 1,12,13
 705 612 705 612 716 467 c 128,-1,14
 727 322 727 322 727 260 c 0,15,16
 727 180 727 180 705 119 c 128,-1,17
 683 58 683 58 640.5 24 c 128,-1,18
 598 -10 598 -10 536 -10 c 0,19,20
 481 -10 481 -10 446 15.5 c 128,-1,21
 411 41 411 41 394 100 c 1,22,-1
 389 100 l 1,23,24
 379 61 379 61 360 36.5 c 128,-1,25
 341 12 341 12 313 1 c 128,-1,26
 285 -10 285 -10 248 -10 c 0,0,1
254 63 m 0,27,28
 287 63 287 63 308.5 80 c 128,-1,29
 330 97 330 97 340 126.5 c 128,-1,30
 350 156 350 156 350 193 c 2,31,-1
 350 344 l 1,32,-1
 434 344 l 1,33,-1
 434 193 l 2,34,35
 434 152 434 152 445.5 122.5 c 128,-1,36
 457 93 457 93 478 78 c 128,-1,37
 499 63 499 63 529 63 c 0,38,39
 563 63 563 63 587.5 85 c 128,-1,40
 612 107 612 107 625.5 151 c 128,-1,41
 639 195 639 195 639 259 c 0,42,43
 639 322 639 322 628 467 c 128,-1,44
 617 612 617 612 597 652 c 1,45,-1
 188 652 l 1,46,47
 169 612 169 612 157 467 c 128,-1,48
 145 322 145 322 145 259 c 0,49,50
 145 162 145 162 175 112.5 c 128,-1,51
 205 63 205 63 254 63 c 0,27,28
EndSplineSet
EndChar

StartChar: uni009E
Encoding: 158 158 128
Width: 780
Flags: W
LayerCount: 2
Fore
SplineSet
589.5 0 m 1,0,-1
 190.5 0 l 1,1,-1
 190.5 714 l 1,2,-1
 589.5 714 l 1,3,-1
 589.5 635 l 1,4,-1
 280.5 635 l 1,5,-1
 280.5 412 l 1,6,-1
 571.5 412 l 1,7,-1
 571.5 334 l 1,8,-1
 280.5 334 l 1,9,-1
 280.5 79 l 1,10,-1
 589.5 79 l 1,11,-1
 589.5 0 l 1,0,-1
EndSplineSet
EndChar

StartChar: uni009F
Encoding: 159 159 129
Width: 780
Flags: W
LayerCount: 2
Fore
SplineSet
280.5 0 m 1,0,-1
 190.5 0 l 1,1,-1
 190.5 714 l 1,2,-1
 589.5 714 l 1,3,-1
 589.5 635 l 1,4,-1
 280.5 635 l 1,5,-1
 280.5 382 l 1,6,-1
 570.5 382 l 1,7,-1
 570.5 303 l 1,8,-1
 280.5 303 l 1,9,-1
 280.5 0 l 1,0,-1
EndSplineSet
EndChar

